<?xml version="1.0" encoding="UTF-8" standalone="no"?>
<!-- Created with Inkscape (http://www.inkscape.org/) -->

<svg
   width="130.563"
   height="200"
   viewBox="0 0 34.544794 52.916668"
   version="1.1"
   id="svg5"
   inkscape:version="1.1.1 (c3084ef, 2021-09-22)"
   sodipodi:docname="3.svg"
   inkscape:export-filename="/home/irina/Documents/Kvissentali tänavaraamatukogu/Logo/3.png"
   inkscape:export-xdpi="300"
   inkscape:export-ydpi="300"
   xmlns:inkscape="http://www.inkscape.org/namespaces/inkscape"
   xmlns:sodipodi="http://sodipodi.sourceforge.net/DTD/sodipodi-0.dtd"
   xmlns="http://www.w3.org/2000/svg"
   xmlns:svg="http://www.w3.org/2000/svg">
  <sodipodi:namedview
     id="namedview7"
     pagecolor="#ffffff"
     bordercolor="#666666"
     borderopacity="1.0"
     inkscape:pageshadow="2"
     inkscape:pageopacity="0.0"
     inkscape:pagecheckerboard="true"
     inkscape:document-units="mm"
     showgrid="false"
     inkscape:zoom="0.54115914"
     inkscape:cx="88.698493"
     inkscape:cy="560.83318"
     inkscape:window-width="1312"
     inkscape:window-height="783"
     inkscape:window-x="0"
     inkscape:window-y="25"
     inkscape:window-maximized="0"
     inkscape:current-layer="layer1"
     inkscape:showpageshadow="false"
     units="px"
     width="130.563px" />
  <defs
     id="defs2">
    <inkscape:path-effect
       effect="powerstroke"
       id="path-effect405"
       is_visible="true"
       lpeversion="1"
       offset_points="0,4.99214"
       not_jump="false"
       sort_points="true"
       interpolator_type="CubicBezierJohan"
       interpolator_beta="0.2"
       start_linecap_type="zerowidth"
       linejoin_type="extrp_arc"
       miter_limit="4"
       scale_width="1"
       end_linecap_type="zerowidth" />
    <inkscape:path-effect
       effect="skeletal"
       id="path-effect401"
       is_visible="true"
       lpeversion="1"
       pattern="m 58.231126,93.290476 c 5.441159,18.594674 14.157593,29.487064 26.482008,45.353524 1.72052,2.215 4.209585,3.71769 6.146186,5.74647 8.196022,8.58616 0.990844,2.41329 8.296728,9.33465 0.926332,0.87758 1.132362,0.4913 1.796942,1.15588"
       copytype="single_stretched"
       prop_scale="1"
       scale_y_rel="false"
       spacing="0"
       normal_offset="0"
       tang_offset="0"
       prop_units="false"
       vertical_pattern="false"
       hide_knot="false"
       fuse_tolerance="0" />
    <inkscape:path-effect
       effect="skeletal"
       id="path-effect305"
       is_visible="true"
       lpeversion="1"
       pattern="M 0,4.9921382 C 0,2.2364779 2.2364779,0 4.9921382,0 c 2.7556604,0 4.9921383,2.2364779 4.9921383,4.9921382 0,2.7556604 -2.2364779,4.9921383 -4.9921383,4.9921383 C 2.2364779,9.9842765 0,7.7477986 0,4.9921382 Z"
       copytype="single_stretched"
       prop_scale="1"
       scale_y_rel="false"
       spacing="0"
       normal_offset="0"
       tang_offset="0"
       prop_units="false"
       vertical_pattern="false"
       hide_knot="false"
       fuse_tolerance="0" />
    <inkscape:path-effect
       effect="skeletal"
       id="path-effect301"
       is_visible="true"
       lpeversion="1"
       pattern="M 0,4.9921382 C 0,2.2364779 2.2364779,0 4.9921382,0 c 2.7556604,0 4.9921383,2.2364779 4.9921383,4.9921382 0,2.7556604 -2.2364779,4.9921383 -4.9921383,4.9921383 C 2.2364779,9.9842765 0,7.7477986 0,4.9921382 Z"
       copytype="single_stretched"
       prop_scale="1"
       scale_y_rel="false"
       spacing="0"
       normal_offset="0"
       tang_offset="0"
       prop_units="false"
       vertical_pattern="false"
       hide_knot="false"
       fuse_tolerance="0" />
    <inkscape:path-effect
       effect="skeletal"
       id="path-effect297"
       is_visible="true"
       lpeversion="1"
       pattern="M 0,4.9921382 C 0,2.2364779 2.2364779,0 4.9921382,0 c 2.7556604,0 4.9921383,2.2364779 4.9921383,4.9921382 0,2.7556604 -2.2364779,4.9921383 -4.9921383,4.9921383 C 2.2364779,9.9842765 0,7.7477986 0,4.9921382 Z"
       copytype="single_stretched"
       prop_scale="1"
       scale_y_rel="false"
       spacing="0"
       normal_offset="0"
       tang_offset="0"
       prop_units="false"
       vertical_pattern="false"
       hide_knot="false"
       fuse_tolerance="0" />
  </defs>
  <g
     inkscape:label="Layer 1"
     inkscape:groupmode="layer"
     id="layer1"
     style="display:inline">
    <path
       style="fill:none;stroke:#000000;stroke-width:0.219974px;stroke-linecap:butt;stroke-linejoin:miter;stroke-opacity:1"
       d="m 18.8766,52.906073 c -0.3939,-4.070718 0.540163,-8.318874 0,-12.370138 -1.791419,-13.43572 -1.365919,-26.843404 -1.365919,-40.39818026 0,-0.43798166 0.04001,0.91655226 -0.165118,1.30351916 -0.243811,0.4599473 -2.924218,-0.022531 -1.420317,0.9246169 0.562194,0.3540518 3.438564,-0.8871955 2.879015,-0.551925 -0.29417,0.1762734 -3.358405,2.1722909 -3.563926,1.1675437 -0.14149,-0.6917251 3.683348,-0.026605 3.572375,0.2111923 -0.02634,0.056452 -2.39535,0.3219265 -2.842991,-0.014633 -0.573899,-0.4315383 4.408881,0.929173 3.911604,1.592381 -0.813257,1.0846198 -3.862203,-0.2808554 -3.853474,-0.3331504 0.0736,-0.4408583 1.433621,0.4372417 1.340891,0 -0.04964,-0.2340808 -2.022298,-1.7279159 -2.239776,-1.3272973 -0.143399,0.2641608 1.992854,0.7830044 2.093967,0.4748376 0.333401,-1.0161291 -3.138578,-0.8238511 -2.907879,-0.3300659 0.808844,1.7312414 3.3113,1.9965911 3.140296,2.1230554 -0.487592,0.3606116 -2.402062,-0.054041 -1.816412,0.1034512 0.531813,0.1429925 1.065104,0.2821107 1.603652,0.3971682 2.276146,0.4862694 4.276592,0.9411701 4.227716,0.992642 C 21.190513,7.1657392 18.649861,6.8179645 17.944345,6.7238832 17.422666,6.654295 16.452783,7.029481 16.380259,6.5082097 16.266926,5.693612 19.477133,6.8518607 18.841164,6.3303731 17.767632,5.4500949 13.846981,4.6160923 15.819579,5.3101536 c 1.495839,0.5263179 5.771171,2.0702615 4.664483,0.934577 -1.183309,-1.21431 -4.705574,-2.0238611 -6.506509,-1.2737218 -0.367964,0.1532686 -0.231255,0.7995909 -0.139956,1.1876054 0.488092,2.0743935 0.680464,1.1424271 2.752624,1.1424271 0.694942,0 2.735519,0.244016 2.084825,0 -4.620302,-1.7326132 -3.885873,-0.6470123 1.563485,-0.6470123 1.628279,0 -6.480486,-0.3936099 -4.884306,-0.071916 10.302401,2.0765054 -4.103537,0.4226923 0.976685,1.6710065 1.201728,0.5891219 2.539872,0.4425627 3.799195,0.7161516 1.448316,0.3146517 -2.963155,-0.2189077 -4.417726,-0.50323 -3.988656,-0.7796539 6.219607,1.3082333 0.176552,-1.2816534 -0.846549,-0.3628064 -2.216817,-1.2766899 -2.716844,-0.5032216 -1.103943,1.7076379 3.846279,1.517214 5.876066,1.6383989 0.613185,0.036582 2.446686,0.1126381 1.842825,0 -1.514778,-0.2825514 -6.045565,-0.9112563 -4.60919,-0.3533867 1.898062,0.737186 1.566866,0.6984843 3.474158,0.9723892 0.134447,0.019289 0.540207,0.02885 0.407477,0 -3.807249,-0.8268609 -2.884631,-0.8390159 -5.502837,-0.9263961 -0.260774,-0.00873 -0.896477,-0.234829 -0.782756,0 0.634565,1.3103949 4.265156,0.2963693 4.828507,1.3396519 0.334252,0.6190024 -4.350381,0.1613582 -3.758936,0.3891203 1.556695,0.5994894 6.407876,1.2597044 4.762808,1.5361694 -0.518878,0.08721 -5.566226,-0.367088 -5.34697,-0.746522 0.725742,-1.2559217 2.863456,-0.5348482 4.313432,-0.5751212 0.56995,-0.01588 2.273051,-0.011473 1.709001,0.071916 C 17.604077,10.438264 14.865283,9.4873912 12.152571,9.0844198 11.26867,8.9531168 14.08921,9.9049287 14.8164,9.3855863 15.266844,9.0638925 13.032258,8.0898739 13.423697,8.4812306 c 2.550995,2.5505034 4.779869,3.0436654 4.224716,3.2257914 -1.635426,0.536528 -5.090856,-2.3745622 -5.028689,-2.2968512 0.999618,1.2495442 0.667828,0.8920512 2.627142,2.1166202 5.643798,3.527357 1.089202,-1.9097013 3.90778,-1.336035 0.583779,0.118815 0.541315,0.692881 0.988414,0.916527 0.131063,0.0656 1.923269,-1.2007081 -0.271198,0.331679 -0.545617,0.380998 1.185054,-1.8277503 1.543056,-1.26678 0.421425,0.660357 -2.684243,5.021816 -0.700971,2.157118 1.221038,-1.763699 -1.57768,1.219847 -2.398989,1.685922 -1.555585,0.882764 3.208582,-3.239052 2.880456,-3.432594 -0.826011,-0.487217 -3.735174,2.809011 -6.444661,2.809011 -1.287331,0 -5.3918007,-2.132101 -5.3918007,-3.6664174 0,-2.5641715 6.7814157,3.5463294 7.0417227,3.8066494 0.516995,0.517014 -1.445979,-0.855719 -1.518027,-1.583319 -0.08631,-0.871582 3.122855,1.484524 2.258565,1.342703 -1.937185,-0.317852 -3.872761,-1.885167 -5.587263,-2.857639 -0.139713,-0.07923 3.144568,1.45589 3.302444,2.035858 0.511478,1.878965 -4.184374,-3.1619812 -5.5623017,-1.785972 -1.4917159,1.489645 7.9319647,4.815188 7.1137937,4.815188 -2.263682,0 -4.102138,-1.161226 -3.96598,-1.07836 1.167275,0.710373 3.069867,1.03146 4.244147,1.331272 0.259591,0.06626 1.058711,0.143782 0.790791,0.143782 -3.508484,0 -3.900751,-1.082442 -0.383768,-3.446321 1.031906,-0.69357 2.142793,-2.161931 3.306963,-1.725371 0.940132,0.352555 -1.725312,3.145229 -1.723381,3.66443 0.0013,0.370389 2.079099,0 2.295919,0 1.479726,0 -3.527108,2.384464 0.446831,-0.565868 1.171787,-0.869961 -2.966477,3.126996 -2.910172,2.877651 0.17894,-0.792433 2.122925,-1.930262 2.76899,-2.760922 0.114906,-0.14774 0.442894,-0.598883 0.359461,-0.431347 -0.524917,1.054049 -1.591091,1.977759 -2.576781,2.5734 -1.146555,0.692855 3.407768,-4.116255 2.692854,-2.983322 -3.069644,4.864514 -0.33752,0.04423 1.26645,-1.828674 0.01298,-0.01513 0,0.03991 0,0.05986 0.08093,1.548708 -0.988461,2.658993 -1.653482,3.905711 -0.314898,0.590344 1.047246,-0.90961 1.300605,-1.528862 0.550004,-1.344324 -3.806046,3.010667 -3.806046,2.770658 0,-2.331637 3.133766,-4.169389 1.5097,-3.727059 -1.577747,0.429709 -2.117991,0.858387 -3.272046,1.876653 -0.179601,0.158465 -0.718591,0.622694 -0.574873,0.431089 0.511339,-0.681731 2.014712,-2.717215 1.37278,-2.156727 -1.291358,1.127512 -2.783317,2.641068 -2.597289,2.817458 1.176559,1.115614 3.680799,-0.941495 4.598062,-0.07275 3.91459,3.707655 -6.364907,-0.689804 -7.619647,-1.02766 -0.216022,-0.0582 0.321733,0.314119 0.506214,0.440675 1.188334,0.815205 2.553502,1.516857 3.666423,2.444267 0.624517,0.520423 -3.30505,-1.206952 -2.626981,-0.867159 0.910895,0.456455 2.989566,1.167993 3.450743,2.084836 0.376169,0.747836 -3.146273,-1.539595 -6.971345,-3.162331 -0.236779,-0.100449 -0.9063459,-0.46057 -0.7160284,-0.287556 2.5519044,2.319881 6.2496514,4.405972 6.2199334,4.428412 -0.0087,0.0067 -9.4763172,-5.13689 -2.360607,-1.328486 1.531047,0.819436 3.221605,1.830826 4.816672,2.659957 0.340767,0.17713 -0.724691,-0.266821 -1.055566,-0.461818 -0.792511,-0.467039 -4.517936,-2.415018 -5.244512,-3.303453 -0.75663,-0.925182 4.062096,0.967659 3.583262,-0.127403 -0.77923,-1.782057 -2.153359,-2.132359 -3.937619,-3.270147 C 9.2073831,12.336026 9.644767,12.710173 8.5230642,11.030861 8.2694396,10.65116 7.1707259,9.8141565 7.4587163,10.168508 c 2.5815277,3.176348 7.2349357,4.851943 10.6968837,6.582919 0.320474,0.160236 -5.434124,-2.41294 -5.330032,-2.214169 0.23739,0.453288 1.503212,0.941844 1.030513,1.137763 -0.677097,0.280631 -3.9721884,-1.112954 -4.5664799,-0.433758 -0.8466407,0.9676 3.0574629,3.506314 3.0123879,3.516391 -0.597551,0.133548 -2.207,-0.602915 -1.638501,-0.83032 1.608234,-0.643304 6.200383,0.693904 7.476626,0.934578 0.330907,0.06244 1.323691,0.236408 0.999941,0.143774 -1.055169,-0.30189 -4.203952,-0.738084 -3.137646,-0.997922 0.759372,-0.185045 1.539862,-0.269332 2.307833,-0.414619 3.696666,-0.699366 -2.40984,1.649515 1.820129,-1.636545 0.697008,-0.541474 1.753562,-2.184937 2.223465,-1.437807 0.331357,0.526842 -4.412573,3.558809 -5.521496,4.421303 -0.446425,0.347218 -1.836489,1.320189 -1.365917,1.006469 1.208605,-0.805744 9.972624,-6.653489 6.174889,-2.444592 -0.655195,0.726129 -2.041361,1.975324 -3.091298,2.516175 -1.519661,0.782805 4.329299,-3.672461 4.484588,-3.506879 1.124192,1.198712 -2.193206,5.317403 -2.084825,5.246144 0.243114,-0.159862 6.563357,-8.529959 0.924457,0.33162 -0.889267,1.397493 2.099799,-6.153384 2.114477,-4.497011 0.01353,1.525246 -1.10856,3.223871 -2.154202,4.29331 -0.03933,0.04024 1.312186,-3.285594 1.065267,-3.44874 -1.376074,-0.909228 -5.585795,2.172615 -3.312772,-0.370871 1.025866,-1.147931 2.172733,-2.10824 3.019398,-3.378861 0.278649,-0.418177 -0.546285,0.848802 -0.882705,1.222084 -0.958049,1.063012 -2.292009,2.200625 -3.522641,2.947514 -0.868258,0.526958 2.9296,-2.454552 2.667027,-1.473425 -0.592229,2.21293 -1.046332,2.59485 -2.444285,4.672894 -0.372143,0.55318 -1.790091,1.82366 -1.150253,1.636287 2.200966,-0.644535 3.685172,-2.391772 5.240144,-3.953982 0.106064,-0.10656 0.204392,0.252064 0.20371,0.402415 -0.0047,1.021849 -0.495486,4.816335 -2.156721,4.888567 -2.213925,0.09627 -3.547066,-2.293094 -4.744777,-3.810208 -0.306116,-0.387748 -1.376454,-1.371187 -0.934586,-1.15025 1.462193,0.731108 2.887743,1.757422 4.241546,2.659957 0.466307,0.310869 1.851474,1.115456 1.29249,1.075258 -2.711016,-0.194947 -4.322194,-1.573267 -6.462347,-3.09389 -0.444404,-0.315766 -1.688798,-1.217793 -1.468999,-0.718912 0.633535,1.437957 3.702692,4.931634 3.230613,3.432902 -0.652165,-2.070469 -3.425174,-2.688973 -5.29682,-3.788558 -0.6730103,-0.395397 -2.2286076,-1.49948 -2.2286076,-0.718912 0,1.514944 4.2258036,3.146484 5.5965256,4.51817 0.278879,0.279076 -0.484376,-0.626402 -0.768297,-0.900348 -1.609337,-1.552798 -1.354743,-1.192503 -2.947516,-2.30051 -0.1259566,-0.08762 -0.4891746,-0.369482 -0.3594446,-0.287548 0.5844086,0.3691 1.1268356,0.804505 1.7253646,1.150242 2.188027,1.263912 4.387555,2.510571 6.629594,3.675987 0.236213,0.122789 1.010205,0.286708 0.785608,0.143782 -0.260595,-0.165839 -0.533618,-0.311284 -0.800428,-0.466923 -2.152181,-1.499072 -4.306875,-2.994554 -6.456546,-4.497218 -5.3948721,-3.77114 2.618844,0.636046 2.648557,-0.07084 0.05091,-1.211275 -3.492004,-3.107433 -3.346544,-3.164766 2.523013,-0.994455 8.724138,5.594218 8.636687,6.293825 -0.288079,2.304641 -8.654489,-0.294915 -10.9555668,-0.957333 -0.5473766,-0.157575 -2.116983,-0.762427 -1.6534815,-0.431339 0.994294,0.710232 2.1945817,1.075965 3.3069603,1.58159 7.938675,3.608501 -1.7071457,-0.924875 -1.7071457,-2.070553 0,-1.736155 3.1478717,1.470706 4.6728927,2.300493 0.362146,0.19705 1.00647,1.131195 1.00647,0.718912 0,-2.32038 -3.60456,-2.924974 -5.4636842,-4.313429 -0.2343659,-0.175035 -0.9964109,-0.595749 -0.7189086,-0.503247 4.1372638,1.379085 6.5879658,4.380424 6.4684368,4.02416 -0.408414,-1.217286 -12.75326,-10.139375 -6.6087913,-5.102021 1.1927178,0.97781 6.3533193,5.848951 6.2459443,5.811605 -1.432226,-0.498167 -2.749331,-1.264261 -4.226073,-1.647112 -3.7292967,-0.966836 4.845417,4.799399 5.109685,4.166013 0.110262,-0.264268 -0.442347,-0.373465 -0.607429,-0.607429 -0.206881,-0.293218 4.157549,0.324969 4.595999,0.101988 0.269093,-0.136857 -0.398922,-0.519492 -0.382516,-0.820941 0.03504,-0.643995 0.609903,-1.17136 1.078368,-1.509699 0.699176,-0.504959 2.421483,-0.551301 2.084825,0.862695 -0.246798,1.036565 -5.082224,8.962495 -3.233158,4.265374 0.172127,-0.43725 3.171682,-4.440816 3.346808,-4.337074 0.524752,0.310852 -1.106718,2.129681 -1.006459,1.528064 0.853286,-5.120187 6.063651,-5.267437 -1.127981,0.50732 -0.91484,0.7346 1.544279,-1.767823 2.27557,-2.685315 0.915508,-1.148613 1.24785,-2.814356 2.444285,-3.666417 0.577275,-0.411119 -0.04353,1.442047 -0.291176,2.106078 -0.988777,2.651261 -1.137766,2.773801 -2.588066,4.385329 -0.135405,0.150459 -0.541782,0.597727 -0.429385,0.429385 0.594463,-0.890355 1.323213,-1.701036 2.012941,-2.516166 0.140369,-0.16589 0.351324,-0.702592 0.421841,-0.497045 0.586702,1.710116 -1.296365,3.130015 -1.296365,3.087597 0,-1.139676 1.04314,-2.08886 1.071997,-3.184247 0.03277,-1.243425 -3.86894,2.404061 -3.530995,1.206986 0.932012,-3.3014 0.425513,-2.184546 2.027069,-4.586869 0.0067,-0.01014 0.497431,-0.609209 0.153975,-0.431347 -0.644409,0.333716 -6.19241,4.203418 -6.835239,3.640943 -2.31837,-2.028575 1.290504,-6.235053 3.235077,-7.045278 1.282488,-0.534357 -0.518997,2.890762 -0.724185,3.280614 -0.02834,0.05388 -0.5729,0.904713 -0.503228,0.934569 1.738729,0.745184 11.097594,-2.476858 1.845891,4.225891 -0.0624,0.04523 3.806567,-2.637035 4.148542,-2.558086 1.50134,0.34662 -2.302339,4.116953 -2.150193,3.930479 2.090591,-2.56226 3.323093,-0.94768 -0.03844,0.427481 -1.846035,0.755185 2.126471,-1.09261 2.960906,-0.485156 0.744837,0.542231 -6.444423,2.335329 -4.217879,1.701112 1.774694,-0.505517 3.500129,-1.070046 5.288266,-1.57296 0.620541,-0.174527 2.431574,-0.191737 1.867219,-0.503246 -1.199903,-0.662319 -5.291009,1.410836 -6.382804,0.431347 -1.313817,-1.178668 3.270794,-1.678639 4.266668,-3.135901 0.811339,-1.187231 -3.768823,2.439628 -2.168343,2.112647 0.541318,-0.110585 2.065945,-2.206902 2.457812,-2.047772 0.633784,0.257359 -0.916782,2.157866 -0.797309,2.259363 0.33486,0.28448 1.222555,-1.199519 0.814595,-1.036332 -0.935524,0.374197 -2.228971,1.496421 -3.019399,1.941037 -0.560434,0.31525 -1.124774,0.633045 -1.72538,0.862694 -0.579909,0.221726 -1.77154,0.30189 -1.725378,-0.575129 0.03366,-0.639613 1.458032,-1.491042 0.859331,-1.718646 -1.669697,-0.634749 -2.085538,3.894769 -4.787102,-0.884868 -0.253074,-0.447742 -1.142154,-1.695832 -0.778476,-1.332161 1.009971,1.009977 2.307859,1.950316 2.28571,1.998138 -0.181873,0.392654 -2.406813,-0.571613 -1.209956,0.842832 0.265961,0.314311 1.385819,0.874084 1.004445,0.718903 -1.318225,-0.536369 -2.734072,-0.951379 -4.11845,-1.277122 -0.352995,-0.08306 -1.380098,-0.344931 -1.078366,-0.143782 1.080033,0.720034 6.5178,1.990048 6.683474,2.300509 0.269709,0.505417 -1.125509,-0.231279 -1.66682,-0.418818 -1.703262,-0.590086 -3.834785,-1.789589 -5.672874,-1.866984 -7.7517938,-0.326424 5.91163,2.886946 8.250451,3.110909 2.346296,0.224677 -4.380474,-1.760715 -6.640709,-2.429235 -1.091248,-0.322767 -2.4549365,-1.347135 -3.3520706,-0.647029 -0.05789,0.04514 6.0519056,2.964125 5.7063096,2.529094 -1.404197,-1.767548 -3.76927,-2.493868 -5.744638,-3.586536 -0.7794404,-0.431147 -2.7250525,-1.820442 -2.4937137,-0.960267 0.2992667,1.112754 3.7966035,4.093191 5.3917987,3.502141 1.404243,-0.520299 -6.8353208,-3.971433 -2.9648515,-1.003484 1.0221543,0.783811 3.2405675,1.835965 4.4572145,2.444284 0.239633,0.119821 0.973082,0.274736 0.718906,0.359447 -0.499576,0.166505 -4.8557453,-1.148588 -5.2480175,-1.222133 -0.735544,-0.137913 -2.9365532,-0.524215 -2.2265939,-0.287565 2.2040164,0.734675 4.4853244,1.213113 6.7262394,1.826088 0.549427,0.150292 2.07688,0.812394 1.653495,0.431347 -2.128548,-1.915713 -5.3914997,-1.958663 -8.164775,-2.67252 -0.3632554,-0.0935 -1.4958986,-0.112305 -1.1229865,-0.07192 2.1757803,0.235835 4.1568194,0.248289 6.4999125,0.348041 4.11842,0.175325 -6.6133222,-1.558842 -5.3486617,-1.040647 2.4368617,0.998511 5.3163387,1.230464 7.9187777,1.65378 0.530545,0.0863 -8.1428526,-0.316298 -8.1340165,-0.281263 0.1553089,0.615743 5.2113055,1.312773 7.5153655,1.692573 1.116693,0.184064 4.501058,0.484332 3.376207,0.359447 -0.525179,-0.05828 -2.383712,-0.0042 -2.765618,-0.498299 -0.03141,-0.04066 5.876554,-1.392213 5.261411,-0.857374 -0.815542,0.709077 -1.879811,1.252954 -2.820456,1.766851 -0.176835,0.09661 -0.746308,0.302471 -0.565678,0.213162 4.759264,-2.353195 12.384046,-6.515376 5.080994,0.787029 -3.329041,3.328752 3.772401,-3.335038 3.879715,-3.265557 0.429406,0.278045 -1.976703,2.220844 -1.999961,2.161033 -0.177856,-0.457453 1.904646,-1.751719 1.972695,-1.631706 0.921441,1.625072 -4.278667,4.591125 1.079349,0.905561 1.978134,-1.360678 4.51161,-2.761828 4.385329,-1.941045 -0.297217,1.931925 -1.525287,2.876928 -2.875614,4.313446 -0.494193,0.525736 -2.040385,1.900315 -1.784106,1.225817 0.857918,-2.257951 2.619472,-3.295488 4.60099,-4.484391 0.211566,-0.126929 0.835349,-0.51881 0.647012,-0.359447 -1.283449,1.086 -4.341106,3.141288 -6.230483,2.659949 -1.579665,-0.402431 1.727994,-2.871258 -3.436405,-1.804455 -1.092986,0.225775 4.083968,-1.765778 3.132356,-1.182667 -1.600967,0.981028 -3.640177,1.429053 -5.294795,1.998977 -0.801352,0.276025 -3.095991,1.253478 -2.439288,0.717673 1.667311,-1.360387 5.259658,-3.306977 7.544365,-3.306977 1.389749,0 -5.408851,0.860374 -4.033066,1.056901 2.357841,0.3368 4.51053,-0.04905 4.025881,0.205572 -1.054115,0.553754 -2.11416,1.096966 -3.187421,1.612634 -4.998572,2.40169 1.21353,-0.201565 1.573708,0.359464 0.716767,1.116471 -4.671257,1.970127 -3.355524,2.140772 0.817704,0.106045 1.20391,-0.08504 1.990126,-0.503246 0.05599,-0.02976 2.438326,-1.881584 3.089977,-2.083506 1.226319,-0.379983 -3.379051,4.669252 -2.905549,4.76986 0.919224,0.195312 3.535259,-1.204126 3.580425,-2.233308 0.0089,-0.20326 -5.698459,4.799084 -6.227835,4.408126 -0.48083,-0.355099 -2.635787,-4.190723 -4.860494,-5.738341 -1.234291,-0.858645 -1.247243,-0.667008 -2.444285,-1.294041 -0.197868,-0.103643 -0.785561,-0.405765 -0.56785,-0.355806 1.970181,0.452132 3.577314,1.884335 5.389922,2.779038 0.312875,0.154433 1.340671,0.387823 1.00647,0.287565 -2.413892,-0.72415 -4.504112,-1.91706 -6.913854,-2.881151 -0.4989306,-0.199611 -1.7644865,-0.860998 -1.57156,-0.359448 0.7436767,1.933355 6.277183,4.328469 7.711522,5.086889 0.315364,0.166754 1.310703,0.564106 0.98392,0.421013 -2.204243,-0.965206 -1.412926,-0.639288 -4.553044,-2.166355 -12.62296023,-6.13866 1.41269,0.819212 1.628478,0.45954 0.08886,-0.148105 -4.9555974,-4.29138 -6.238749,-3.810199 -0.4630294,0.173638 5.194158,4.198339 4.09678,3.289793 -1.263968,-1.046467 -1.320574,-1.008115 -3.1232668,-1.981568 -5.8220252,-3.143882 0.9884918,4.255165 2.7469888,4.414769 0.275397,0.02502 -5.2594207,-3.453429 -5.0912716,-2.74639 0.4673733,1.965223 1.2540908,2.179109 3.2350796,3.378861 0.928225,0.562159 3.687899,2.075458 3.017451,1.22215 -1.431791,-1.822297 -2.394724,-2.342088 -4.7973498,-4.018648 -6.3036578,-4.398715 -1.2496545,1.650346 3.2232678,1.145029 0.785928,-0.08879 -0.962763,-1.26569 -1.545693,-1.800247 -1.6327307,-1.497253 -4.6234272,-3.365658 -4.6812744,-3.285162 -0.1923129,0.267611 5.4742234,3.518793 5.7121594,2.754961 0.496139,-1.59273 -5.5019315,-2.837744 -5.2818557,-2.509399 1.1296443,1.685382 0.9389469,1.341913 2.8579876,2.546903 0.4733436,0.297218 1.9117761,1.158914 1.4378141,0.862686 -2.1556943,-1.347334 -6.3593006,-5.109254 -4.7025302,-0.676626 0.1625263,0.434838 -1.3724107,-1.25036 -1.0200384,-0.948146 1.7011938,1.458991 3.8617679,2.558302 5.8616576,3.565319 0.383375,0.193043 -0.4948631,-1.321328 -0.4516794,-1.309846 3.9523684,1.05074 7.8300834,2.369831 11.7820364,3.422143 0.488031,0.129948 1.482954,0.576351 1.51339,0.07225 0.131718,-2.181869 -4.202473,-1.207817 -6.280677,-1.885292 C 14.51444,33.595124 12.154408,32.666125 9.754002,31.855111 8.9929382,31.597976 6.7509592,30.927834 7.3829331,31.423764 c 1.5759642,1.236708 4.3925329,1.539255 6.3687779,2.411127 0.313363,0.138254 1.226282,0.607563 0.932588,0.431347 C 12.379816,32.88356 10.012389,31.60569 7.6255409,30.37062 7.0617176,30.078865 5.3854251,29.274693 5.8343164,29.723591 c 1.3282002,1.328228 5.9009186,2.742789 6.5355076,4.384838 0.748535,1.936888 -8.6030587,-2.946981 -6.7220946,-1.447418 1.6577947,1.321636 3.3162147,1.612168 5.5702706,2.346636 0.649242,0.211549 2.613891,0.734118 2.003147,0.428736 -0.92971,-0.464869 -3.528143,-1.431488 -3.5196145,-1.431937 2.6746205,-0.141579 7.3183605,0.336068 9.3342965,-2.28478 0.365578,-0.475278 0.396994,-1.361808 0.978084,-1.509689 1.390434,-0.353861 -2.714012,4.539827 -1.352884,4.086116 2.872133,-0.957374 3.30647,-4.793779 3.305282,-4.739705 -0.05545,2.521537 -3.021062,6.728073 -2.87563,6.680916 3.453106,-1.119854 4.103445,-3.859584 4.264337,-3.504759 0.870257,1.919262 -4.055959,2.2864 -2.437077,3.074077 0.286206,0.13926 1.409535,-1.051655 1.600588,-1.325751 0.107174,-0.153759 -0.619372,0.419392 -0.477442,0.296985 0.03661,-0.03159 1.485624,-1.331571 1.461575,-1.343626 -0.706417,-0.353894 -4.596416,3.398615 -5.430793,2.379468 -1.369338,-1.67257 3.032958,-3.081702 4.593654,-4.5773 0.07723,-0.07399 0.854443,-1.080163 1.205223,-0.934585 0.664733,0.275867 -0.793248,3.159737 -0.739829,2.875905 0.605543,-3.217436 1.567237,-0.645923 1.264755,1.410969 -0.247863,1.685457 -0.7386,2.532845 -1.150252,3.95148 -0.194543,0.670424 0.756171,-1.175825 1.184128,-1.727342 0.213633,-0.27531 -0.444186,0.60422 -0.591679,0.552748 -0.130423,-0.04548 1.204981,-1.660997 1.420037,-1.810067 0.757968,-0.525378 -2.214207,2.947963 -1.704374,2.179449 1.492081,-2.249145 2.606232,-2.655384 2.602441,-2.638831 -0.370206,1.618254 -0.53301,1.518811 -1.649692,3.216164 -2.152892,3.272408 -0.391955,-2.045461 0.716469,-2.652483 0.192854,-0.105621 -2.303836,3.833637 -2.731834,2.913293 -0.265967,-0.571928 0.693217,-2.423506 0.578777,-2.551525 -1.000884,-1.119722 -4.763595,0.163386 -4.712631,0.09223 1.0327,-1.441906 3.135244,-1.662892 4.654101,-2.578671 0.402278,-0.242545 1.408321,-1.225235 1.000088,-0.99285 -0.16391,0.09331 -0.306951,0.219248 -0.460425,0.328877 -1.246101,0.59909 -2.476849,1.23122 -3.738306,1.797263 -0.795838,0.357103 -2.872561,0.17466 -2.444286,0.934568 0.414219,0.734967 1.682476,-0.147357 2.514931,-0.284347 2.457466,-0.404401 4.219859,-1.177878 2.342697,1.637834 -0.317175,0.47576 1.418641,-0.499713 1.402846,-0.495673 -0.09988,0.02561 -1.178246,1.255007 -1.243899,1.420107 -0.259876,0.653489 1.185405,-0.775431 1.682707,-1.272699 0.769432,-0.769387 -1.519926,1.680958 -2.546091,2.042858 -1.11198,0.392172 3.611696,-2.966719 2.898341,-2.027877 -1.272585,1.674831 -1.445982,1.80305 -3.281747,3.27166 -2.263889,1.811098 -0.973293,0.778357 -2.715832,-1.322658 -1.155834,-1.393626 -3.710721,-2.113536 -5.17612,-2.659957 -0.481086,-0.179391 -1.066485,-0.737452 -1.4787,-0.431347 -1.672111,1.241688 7.604244,2.298789 5.583702,2.803914 -2.086784,0.521679 -4.801424,-0.591599 -6.829615,-1.078359 -0.5359568,-0.128626 -2.143406,-0.483767 -1.6283327,-0.287565 2.6151707,0.996184 5.0925707,2.173505 7.7269127,3.150758 0.213143,0.07907 0.874333,0.213229 0.647012,0.215665 -1.449064,0.01555 -8.1673999,-3.168583 -9.652433,-3.720708 -0.3686072,-0.137048 -1.5052735,-0.443377 -1.1442005,-0.287556 1.9410736,0.837686 4.2935385,1.481813 6.3255185,2.057533 0.484701,0.13733 1.702577,0.741326 1.483727,0.287564 -1.224533,-2.538908 -4.6261771,-3.481807 -7.5891041,-4.8683 -0.2825904,-0.132243 -1.045889,-0.647328 -0.840006,-0.412907 1.1695108,1.331662 0.5529792,0.66522 3.1309437,2.336119 0.7035293,0.455989 1.3927184,0.948794 2.1567214,1.294016 0.06234,0.02818 -3.5664862,-3.153925 -3.6042251,-2.90083 -0.1517804,1.017891 3.0432921,2.965081 4.0213371,3.090564 1.122416,0.144007 -1.310897,-1.345198 1.885871,-0.866752 1.970282,0.294881 3.881138,0.902785 5.830727,1.31274 0.663287,0.139476 1.448991,0.663549 2.012942,0.287565 2.78766,-1.858496 -5.913986,-3.150642 -8.886842,-4.695691 -0.857456,-0.445639 -2.4340499,-2.249794 -2.5929313,-1.296594 -0.4857348,2.914141 7.7863703,5.282801 7.6872013,4.81666 -0.15156,-0.712394 -2.666836,-2.052719 -3.279455,-2.461128 -0.0324,-0.02162 -0.562783,-0.396121 -0.570249,-0.287565 -0.104085,1.513373 3.678533,1.821548 4.793912,3.135859 1.254361,1.47808 -4.42006,-0.937071 -5.080583,0.143782 -0.525132,0.859303 1.152685,2.649515 0.213747,3.013619 -1.378075,0.534382 -5.0173247,-1.200667 -4.9362399,-1.143716 0.9914764,0.696414 4.3647109,2.054049 3.3697969,1.362565 -2.8260853,-1.9642 -2.2290892,-1.815096 -5.6734459,-2.874899 -0.3431762,-0.105596 -1.413348,-0.126073 -1.0771564,0 1.2070868,0.452648 3.7522567,0.992783 4.2443867,1.077179 11.8414266,2.030778 -4.3708618,-3.016087 -4.2478519,-1.664663 0.2618121,2.876346 7.3694415,4.365907 8.9284485,4.940721 0.46888,0.172881 1.679108,0.867857 1.435814,0.431347 -1.045249,-1.875381 -11.995326,-4.117393 -7.0232522,-2.83061 1.3412274,0.347109 2.6780912,0.714946 4.0321462,1.008039 2.721642,0.589122 6.173193,1.453338 9.041192,0.959985 0.107047,-0.01837 -1.302899,-0.356405 -1.336947,-0.697329 -0.07018,-0.702708 1.234842,-2.540177 0.907922,-1.914207 -0.853133,1.633543 -2.205605,2.358898 -1.741718,2.117983 1.486136,-0.771797 2.732987,-1.754055 4.043434,-2.779038 0.163898,-0.128194 0.535732,-0.493511 0.55471,-0.286293 0.13817,1.508667 -0.42057,2.839058 -1.224562,4.075957 -0.11162,0.171725 -0.485878,0.659458 -0.35946,0.498316 1.593485,-2.031161 -0.15725,0.01455 1.913856,-2.693787 1.304806,-1.706274 1.54023,-1.791543 -0.04465,1.291048 -0.805389,1.566475 -0.695845,1.181138 2.244576,-0.176464 1.196809,-0.552565 2.335238,-1.224761 3.522643,-1.797255 0.157143,-0.07574 0.56803,-0.305764 0.503239,-0.143782 -0.426459,1.066129 -4.063378,2.858304 -4.888562,3.450743 -0.359748,0.258283 -1.00306,1.225742 -1.069732,0.787927 -0.27171,-1.784227 2.854942,-2.210594 4.328799,-3.25223 0.507678,-0.358799 2.173804,-1.202895 1.653481,-0.862695 -0.733063,0.479311 -6.359983,4.327372 -6.929234,3.738325 -0.448405,-0.464004 3.073207,-6.523649 4.056895,-5.461543 0.660415,0.713059 -3.272645,2.782954 -1.946649,1.625346 1.152088,-1.005778 2.370422,-3.343925 3.7383,-2.659949 1.183698,0.591891 -1.690752,2.046334 -2.659949,2.947514 -0.740619,0.688649 -1.443586,1.943365 -2.444288,1.797279 -1.008054,-0.147158 1.892879,-12.441489 2.205926,-9.911929 0.08413,0.679761 -1.368383,2.714347 -1.782526,3.349363 -0.138786,0.212813 -0.475131,0.826062 -0.502107,0.573441 -0.07461,-0.698708 0.627582,-1.257983 0.912384,-1.900348 0.485985,-1.096126 -2.124816,2.901346 -1.30347,1.30687 0.419153,-0.813708 0.467171,-2.835607 1.285853,-2.426267 0.930185,0.465085 -2.228607,7.301174 -2.228607,8.682737 0,1.042617 -2.140361,-0.137813 -3.120202,0.218492 -1.33956,0.487117 -2.558169,1.259787 -3.810203,1.941045 -0.458671,0.24957 -1.558408,0.308084 -1.353645,0.788434 0.178094,0.417778 4.682308,-1.209014 4.781972,-2.384822 0.05147,-0.607288 -1.759225,0.01206 -1.656999,0.08525 0.678479,0.485778 3.26845,0.499571 2.437144,0.572003 -4.106321,0.357801 -2.432934,0.473042 -8.020182,-1.241189 -0.809014,-0.248215 -3.1910891,-1.098887 -2.3615004,-0.931859 2.7661284,0.556931 6.5315664,2.494334 8.9353104,3.965023 2.577903,1.577241 -5.730603,-1.930312 -8.540788,-3.042135 -4.4058459,-1.74313 4.959575,5.21544 3.025355,4.769095 -2.829395,-0.652907 -5.28508,-2.408841 -7.9575172,-3.544559 -0.1699765,-0.07225 -0.6050906,-0.245911 -0.5496595,-0.06975 0.6521021,2.072539 6.9712627,2.959327 8.6876617,1.81508 4.141674,-2.761081 -15.1899709,-8.208922 -5.3014598,-3.693687 1.5605949,0.712585 2.5523968,0.810939 4.0977678,0.934568 0.127068,0.01014 -8.8541847,-5.133896 -11.7522889,-4.371186 -2.4050365,0.632945 4.436297,2.405781 6.8731777,2.902185 4.5854602,0.934087 -9.1531982,-3.35115 -0.7987079,1.124253 1.3461368,0.721115 2.8230929,1.165864 4.2436541,1.726295 0.317032,0.125075 1.275524,0.45934 0.981165,0.287564 -1.039918,-0.60683 -6.9214419,-3.193849 -7.7438522,-2.793962 -1.6539586,0.804222 12.1754592,4.044812 11.6610802,3.629877 -1.17242,-0.945751 -3.88161,-3.411111 -5.502705,-2.909676 -3.0568357,0.945534 8.347084,2.710373 7.855412,2.628422 -4.718215,-0.786447 -6.707527,-3.887869 -6.803564,-2.156727 -0.138518,2.496911 5.816797,2.733419 7.493472,2.930669 0.16594,0.01954 0.619158,-0.118392 0.501257,0 -0.623714,0.626294 -1.464532,0.922804 -2.242547,1.3118 -0.143193,0.07158 -0.583651,0.258258 -0.429574,0.214784 2.293848,-0.647112 1.852497,-0.573641 4.678958,-2.502814 0.536943,-0.366482 1.96392,-1.703706 1.459404,-1.293726 -1.046828,0.850672 -2.594517,1.59727 -3.524559,2.518087 -0.106883,0.105821 0.289241,-0.08481 0.428064,-0.142685 1.161352,-0.484199 2.518729,-1.922887 3.733364,-2.010716 0.182874,-0.01322 -0.811962,1.856392 -1.060124,1.538739 -0.281731,-0.36062 3.267147,-3.3656 3.169203,-3.219764 -0.790118,1.176398 -1.597024,2.325219 -2.365913,3.515509 -0.07416,0.114808 -0.335585,0.412691 -0.214345,0.349571 4.753994,-2.474995 8.393091,-4.292345 8.378924,-4.055321 -0.196302,3.284763 -6.025024,3.221136 -7.042671,5.447842 -0.355212,0.777234 1.53215,-0.757489 2.293031,-1.14651 0.515926,-0.263786 2.041121,-0.632147 1.509366,-0.862353 -1.475378,-0.638723 -2.949305,0.02095 -4.390477,0.320031 -0.774082,0.160643 0.74781,-1.433475 -1.090855,-1.031053 -0.222709,0.04872 -2.335307,1.061116 -1.106647,1.123837 1.685654,0.08605 2.643021,-1.169215 -0.706247,0.0779 -3.225943,1.201232 -4.465197,2.147491 -3.687226,2.012929 11.989175,-2.073737 -4.442985,0.01721 -4.759302,-3.230681 -0.153627,-1.577432 3.174497,0.09779 4.744044,0.317803 1.059447,0.148505 2.939985,-0.19636 3.091295,0.862686 0.131431,0.91992 -12.206138,-1.216904 -12.1797012,-0.722828 0.089457,1.671921 6.3448162,2.993964 7.5030652,3.297891 0.25189,0.0661 1.035757,0.108647 0.777944,0.07192 -2.217756,-0.316231 -5.64773,-0.769951 -7.4565818,-0.932748 -0.7611653,-0.06851 -3.0551558,-0.05254 -2.292721,0 1.6252213,0.111981 3.2447849,0.298306 4.8701538,0.408134 0.523123,0.03534 2.047348,0.223273 1.572948,0 -3.2851941,-1.54618 -3.0827423,-1.433841 -7.1890624,-2.012936 -0.5176439,-0.073 -2.0329308,-0.239576 -1.5682986,0 2.9156833,1.503421 11.430018,1.776669 7.532265,0.509898 -2.6916979,-0.874808 -9.7613423,0.365267 0.253393,2.09167 2.143778,0.369557 4.350896,0.02245 6.526194,0.0017 0.264043,-0.0025 1.030983,0.03359 0.7889,-0.07192 -3.887183,-1.693404 -9.281316,-1.625661 -13.4582775,-1.67725 -0.6968822,-0.0086 -2.6284487,-0.213919 -2.0796539,0.215674 2.6870566,2.103376 8.7215574,2.147049 12.1172804,1.637675 1.533177,-0.22999 4.558657,-2.341755 4.211256,-1.406413 -0.304645,0.820226 -4.476891,1.078376 -5.535581,1.078376 -1.400941,0 2.793672,-0.233906 4.180631,-0.431347 5.310307,-0.755959 1.101004,0.749507 2.89598,0.533293 2.241916,-0.270055 3.265941,-1.220545 3.017412,-0.647012 -0.268592,0.619834 -0.755061,1.336268 -1.425568,1.596654 -1.862769,0.723393 3.170245,-2.476982 4.957581,-3.370646 0.143782,-0.07192 0.570324,-0.296452 0.431347,-0.215665 -2.691526,1.564562 -1.41733,0.808877 -3.984603,2.129191 -0.343618,0.176714 -0.930686,0.954023 -1.006457,0.575121 -0.257761,-1.288953 10.767504,-8.646164 5.821753,-5.030953 -2.173995,1.589131 -4.464428,2.904979 -6.753515,4.31205 -0.364837,0.224262 -0.600249,0.785831 -0.472683,1.194639 0.07528,0.241255 0.77583,0.313903 0.586149,0.480907 -0.06073,0.05346 -4.805294,2.278502 -4.217574,2.276332 2.927917,-0.01081 -2.261034,-1.188936 -2.784303,-1.328445 -2.151263,-0.573525 4.706716,-1.873045 3.977681,-2.074177 -0.2073,-0.0572 -4.050898,-0.49465 -4.385332,-0.50323 -0.33655,-0.0086 -1.336361,0.143782 -0.999699,0.143782 4.038569,0 7.210857,-1.46496 6.596969,-1.149303 -3.084544,1.586063 -2.966837,1.541126 -7.418371,2.565718 -0.04643,0.01073 -2.807951,0.321154 -2.72219,0.21648 1.392687,-1.699872 4.852296,-1.375127 6.28265,-1.598284 0.882638,-0.137704 3.572257,-0.07325 2.678942,-0.07325 -3.514368,0 -7.200397,0.268243 -10.6298369,-0.589113 -0.2557321,-0.06394 0.5276373,0.01513 0.7908039,0 6.803084,-0.391099 1.657331,-0.288047 8.759291,-0.288047 0.165402,0 0.654452,0.04814 0.496207,0 -1.188105,-0.361352 -2.366987,-0.757157 -3.570123,-1.064783 -0.629163,-0.160876 -2.556369,-0.408442 -1.936235,-0.215682 3.931398,1.222001 10.239462,0.965746 4.577541,1.964907 -1.835211,0.323863 1.710903,0.433583 2.516171,0.359447 2.115067,-0.194714 2.588689,-1.963119 5.425211,-2.28729 0.681058,-0.07782 -1.139018,0.864182 -1.416175,1.49115 -0.228212,0.516241 3.24267,-1.236085 -0.79375,0.712318 -0.231569,0.111782 -0.836715,0.451426 -0.74155,0.212548 0.283167,-0.710781 1.217751,-1.824915 1.90966,-2.236084 3.052532,-1.813966 6.542409,-7.890671 9.14061,-5.47039 0.363945,0.33902 -5.159986,4.240566 -5.189418,3.610364 -0.01671,-0.357618 0.398499,-2.227263 0.3658,-2.242868 -0.592323,-0.282726 -3.200941,0.715287 -3.378853,0.359456 -1.000305,-2.000574 1.116197,-3.545914 1.147532,-5.304151 0.02627,-1.473541 -5.641987,1.755884 -1.934054,-0.919338 0.172618,-0.124543 -0.53869,2.215665 0.641975,2.072548 0.609774,-0.07391 1.170238,-0.384157 1.72538,-0.64702 3.993706,-1.891054 -2.294774,1.201414 -1.830003,1.491989 0.28606,0.178851 2.45451,-2.039616 2.336393,-1.913335 -0.936307,1.000973 -3.51267,3.196244 -3.290536,4.782048 0.223455,1.595233 1.824361,2.824949 0.713937,4.588565 -0.143874,0.228502 -1.957343,1.28581 -1.76236,1.730784 0.762366,1.739813 4.569057,1.207343 4.286622,1.416199 -2.672681,1.97643 -1.406538,-3.208324 -0.997863,-4.025682"
       id="path1587" />
  </g>
</svg>
