<?xml version="1.0" encoding="UTF-8" standalone="no"?>
<!-- Created with Inkscape (http://www.inkscape.org/) -->

<svg
   width="154.241"
   height="200"
   viewBox="0 0 40.809596 52.916668"
   version="1.1"
   id="svg5"
   inkscape:version="1.1.1 (c3084ef, 2021-09-22)"
   sodipodi:docname="1.svg"
   inkscape:export-filename="/home/irina/Documents/Kvissentali tänavaraamatukogu/Logo/1.png"
   inkscape:export-xdpi="300.01038"
   inkscape:export-ydpi="300.01038"
   xmlns:inkscape="http://www.inkscape.org/namespaces/inkscape"
   xmlns:sodipodi="http://sodipodi.sourceforge.net/DTD/sodipodi-0.dtd"
   xmlns="http://www.w3.org/2000/svg"
   xmlns:svg="http://www.w3.org/2000/svg">
  <sodipodi:namedview
     id="namedview7"
     pagecolor="#ffffff"
     bordercolor="#666666"
     borderopacity="1.0"
     inkscape:pageshadow="2"
     inkscape:pageopacity="0.0"
     inkscape:pagecheckerboard="true"
     inkscape:document-units="mm"
     showgrid="false"
     inkscape:zoom="0.672594"
     inkscape:cx="313.7108"
     inkscape:cy="287.69213"
     inkscape:window-width="1440"
     inkscape:window-height="783"
     inkscape:window-x="0"
     inkscape:window-y="25"
     inkscape:window-maximized="0"
     inkscape:current-layer="layer1"
     inkscape:snap-text-baseline="false"
     units="px"
     showborder="true"
     inkscape:showpageshadow="false" />
  <defs
     id="defs2" />
  <g
     inkscape:label="Layer 1"
     inkscape:groupmode="layer"
     id="layer1">
    <path
       style="fill:none;stroke:#000000;stroke-width:0.106599px;stroke-linecap:butt;stroke-linejoin:miter;stroke-opacity:1"
       d="m 19.775456,52.919179 c 0,-2.786 0.04075,-5.557006 0.156545,-8.335911 0.05509,-1.322073 0.299075,-2.641801 0.365288,-3.96591 0.05881,-1.176207 0,-2.370523 0,-3.548446 0,-1.820527 0.07579,-3.660399 0,-5.479231 -0.02269,-0.544411 -0.157359,-1.078241 -0.208734,-1.617673 -0.06649,-0.69812 0,-1.438851 0,-2.139507 0,-1.67573 0.04243,-3.33757 0.104368,-5.009578 0.146445,-3.95366 0,-7.940028 0,-11.897733 0,-1.8450075 -0.07167,-3.6955643 0.156543,-5.521288 C 20.548923,3.8082693 20.169622,2.1464163 20.381356,0.54688945 20.102773,1.1321989 19.953394,1.5954315 19.594938,2.073711 19.20737,2.5908356 18.285934,2.5977607 17.891752,3.1608859 c -0.245526,0.3507562 -0.09549,0.6964928 -0.259577,1.027069 -0.05304,0.1068689 -0.253815,0.1337836 -0.253095,0.2530901 2.16e-4,0.035702 0.06593,0.032462 0.10161,0.033869 0.25208,0.00994 0.50628,0.029475 0.756828,0 0.491356,-0.057804 0.97562,-0.1657199 1.461119,-0.2609159 0.932267,-0.1827975 0.98018,-0.2693878 1.72205,-0.3130994 0.198281,-0.011686 0.514583,0.1812283 0.595871,0 0.02997,-0.06682 -1.25678,-0.8212535 -1.353898,-0.8924736 C 20.233869,2.693985 19.534869,2.4658724 18.992806,2.5909646 18.347575,2.739865 18.828685,3.373512 18.407903,3.4708286 c -0.244917,0.056643 -1.74636,-0.1109295 -1.768095,-0.3673282 -0.02713,-0.3200028 0.58144,-0.3058893 0.900488,-0.3425836 0.456064,-0.052453 2.391422,0.1863041 2.856062,0 0.01577,-0.00632 -0.0165,-0.1199814 0,-0.1258506 0.398898,-0.1419069 1.171223,0.04268 1.576707,0 0.05121,-0.00537 0.62865,-0.2672831 0.615471,-0.2087331 -0.127611,0.5669189 -2.176475,0.3511812 -2.5647,-0.2488149 -0.04521,-0.069883 0.157517,0.05618 0.230228,0.096695 0.342366,0.1907645 0.487502,0.3727272 0.198197,0.7584726 -0.482752,0.6436768 -1.624556,0.9481377 -1.982961,1.4089455 -0.401188,0.515814 0.162906,0.9702021 -0.730564,1.1732636 -0.731117,0.166163 -1.753006,0.025335 -2.504784,0.052182 -0.242909,0.00867 -0.918297,0.1527051 -0.72919,0 1.250356,-1.009679 5.428702,-0.7846514 7.075128,-0.7160501 0.481897,0.020078 1.319093,-0.1505564 1.183831,0.5026695 -0.0092,0.044457 -1.716673,0.4485054 -2.059545,0.5427407 -1.093697,0.3005934 -2.383967,-0.048474 -3.519659,-0.1139963 -0.22575,-0.013026 -0.452252,0 -0.678376,0 -1.070694,0 0.684665,0.1687472 -0.275208,0.1687472 -0.539225,0 -1.078582,0.011982 -1.617675,0 -0.776813,-0.017265 -0.566931,-0.029666 -1.200218,-0.1565492 -0.145216,-0.029099 -0.589335,-0.052182 -0.441232,-0.052182 0.77588,0 1.936276,0.776791 2.648383,0.9802363 1.936433,0.5532246 3.887274,1.0582714 5.848822,1.5145075 0.498571,0.1159602 1.006876,0.1864387 1.513307,0.2609135 0.100839,0.014827 0.40769,0 0.305768,0 -0.102404,0 -0.628308,-0.099558 -0.623587,-0.1035721 0.161913,-0.1376723 1.721794,0.165654 1.680482,-0.076593 C 24.234711,7.771321 23.586118,7.5116447 23.092588,7.2200143 22.523227,6.8835702 21.83954,6.2280939 21.182643,6.0735304 20.082867,5.8147612 19.296865,6.3364511 18.214755,6.3210482 c -0.975384,-0.013883 -1.946849,-0.144654 -2.92226,-0.156549 -0.559045,-0.00682 -1.379,0.057371 -1.98295,0.2087325 -0.02869,0.00719 -0.438316,0.094677 -0.303272,0.2880104 0.576931,0.8259547 1.842241,0.2072041 2.504784,0.6783834 0.277406,0.1972804 -0.0726,0.5775874 -0.260708,0.7092566 C 14.781918,8.3767809 13.620302,9.246079 12.984962,8.9827281 12.801751,8.9067867 12.661606,8.7513543 12.51531,8.617449 12.356416,8.4720089 12.273493,8.2686081 12.308618,8.0461504 12.520549,6.70388 14.103765,6.7584482 15.178688,6.84594 c 1.465996,0.1193292 2.510871,0.4270426 3.705002,1.1480282 1.233368,0.7446754 2.411359,1.9346358 3.913723,2.1395028 1.025279,0.139812 2.046166,-0.2151165 2.08733,-1.4089409 0.09036,-2.6208429 -5.765611,-3.3816325 -7.879649,-2.8178852 -0.932795,0.248747 0.788545,3.1602918 -0.991475,4.1224611 -0.804518,0.434875 -2.700538,0.830173 -2.922258,-0.5740101 -0.462601,-2.9297134 5.346559,-2.3373679 6.731617,-2.1395074 0.564055,0.080583 1.110625,0.2561598 1.669861,0.3652792 0.154596,0.030178 0.313715,0.029895 0.469644,0.052182 0.115527,0.016518 0.330893,0.1678778 0.346192,0.052182 0.07503,-0.5673983 -1.23922,-0.8926218 -1.610371,-0.8207858 -0.345791,0.066924 -0.664796,0.2336332 -0.991476,0.3652827 -2.523084,1.016765 -1.826561,0.7663313 -3.600634,1.5133111 -0.293705,0.1236639 -0.952498,0.454161 -1.344933,0.521827 -0.600812,0.1035956 0.117126,0.5463231 -0.0893,0.8532553 -0.220567,0.327954 -0.939426,0.346052 -0.635678,0.05663 1.735526,-1.6536096 3.084021,-1.38818 5.270487,-0.8871136 1.169,0.2678958 1.416124,0.8545926 2.21316,8.021e-4 0.722288,-0.7738812 1.377967,-0.7187329 2.400425,-0.7827491 0.143264,-0.00898 0.570084,0.034042 0.430632,0 C 23.612705,8.4255786 22.866808,8.2748196 22.117214,8.1498866 20.69772,7.9133038 18.994144,7.7540725 18.099123,9.1413621 c -0.228318,0.3538974 -0.05688,0.9531489 -0.104366,1.3567629 -0.152257,1.294178 -1.007806,2.452608 -2.191693,3.026614 -0.719853,0.349022 -2.731203,0.719425 -3.183171,-0.365275 -0.04683,-0.112395 0.01423,-0.244359 0,-0.365287 -0.02073,-0.176173 -0.22423,-0.391064 -0.104366,-0.521828 1.551662,-1.692715 7.838205,-0.648888 10.270031,-0.396027 0.682396,0.07095 1.361464,0.171004 2.041523,0.261654 0.365755,0.04875 0.729285,0.114252 1.095846,0.156548 0.131085,0.01511 0.478161,0.103162 0.395871,0 -0.05937,-0.07443 -0.166207,-0.09298 -0.248005,-0.141713 -0.587865,-0.350167 -1.117625,-0.821826 -1.760945,-1.054935 -2.661814,-0.964514 -4.599082,-1.6724378 -6.992529,-0.260914 -1.001865,0.590844 -1.420775,1.352678 -1.356763,2.504786 0.01578,0.28396 0.213928,0.926304 0.104366,1.200211 -0.196232,0.490582 -1.594621,0.541899 -1.982951,0.469652 -0.486704,-0.09055 -0.956131,-0.269571 -1.408952,-0.469652 -0.534932,-0.236369 -1.394944,-0.816938 -1.774217,-1.304576 -0.03204,-0.04119 0.0086,-0.105074 0,-0.156544 -0.02637,-0.158189 -0.182989,-0.32988 -0.104366,-0.469657 0.514792,-0.915195 5.000864,-0.05221 5.690506,2.66e-4 0.361381,0.02752 1.837547,0.127504 2.559079,1.77e-4 0.403854,-0.07127 0.626378,-0.311004 0.990518,-0.469325 1.058758,-0.460331 2.353364,-0.646043 3.496258,-0.417466 0.592696,0.118539 1.652526,0.512206 2.243874,0.939292 8.02e-4,4.03e-4 0.674668,0.723271 0.729723,0.677533 0.06485,-0.05387 -0.08367,-0.152615 -0.151758,-0.202336 -0.717766,-0.524173 -1.436474,-1.050738 -2.196057,-1.51224 -0.883087,-0.536537 -1.752592,-1.128324 -2.72504,-1.477696 -1.001645,-0.3598643 -2.071023,-0.5298412 -3.13098,-0.6262009 -1.617325,-0.1470277 -2.996295,0.8863809 -3.861546,2.1395069 -1.242251,1.799124 1.299728,3.980692 -0.313099,5.740139 -0.330772,0.360843 -1.186039,0.813639 -1.617685,0.88711 -0.480132,0.08172 -0.977415,0.05691 -1.461118,0 -0.622364,-0.07322 -1.8082157,-0.464309 -2.296061,-0.88711 -1.3955096,-1.20944 0.7895032,-2.149108 1.669862,-2.348239 0.867912,-0.196309 1.773262,-0.264696 2.661338,-0.208729 2.343004,0.147655 5.117615,0.637424 7.480996,1.24101 1.636098,0.417846 3.173119,1.151671 4.848901,1.356763 0.183853,0.02248 0.567741,0.242594 0.752358,0.154823 0.02679,-0.01273 0.02031,-0.0674 0,-0.08904 -0.828851,-0.883564 -1.575787,-1.863021 -2.530632,-2.608644 -1.129982,-0.882384 -3.146786,-1.942339 -4.717661,-2.187785 -0.515576,-0.08055 -1.048447,-0.0705 -1.565495,0 -2.981851,0.406604 0.846276,5.753462 0.626198,6.001053 -0.767387,0.863318 -2.535756,-0.484181 -2.922249,-0.887119 -0.427575,-0.445773 -0.775844,-0.986669 -0.991484,-1.565486 -0.358236,-0.961569 0.432323,-2.328098 1.304583,-2.661339 3.507829,-1.340146 6.901168,-0.968575 10.379081,-0.113353 0.282529,0.06947 0.585343,0.108104 0.832928,0.260909 0.154374,0.09528 -0.328969,0.153128 -0.491226,0.234253 -0.288665,0.144322 -0.47117,0.231258 -0.780593,0.259839 -0.01378,0.0012 -4.487373,0.443549 -5.119912,0.522613 -0.314963,0.03936 -0.625572,0.108229 -0.939288,0.156544 -0.205767,0.03171 -0.783183,-0.02119 -0.61604,0.102915 0.37395,0.277714 0.727461,0.591185 1.138616,0.810081 0.461898,0.245909 0.966895,0.402104 1.46113,0.574009 0.03474,0.01209 1.154865,0.208232 1.400719,0.363229 0.05277,0.03327 -0.04069,0.139865 0,0.187152 0.510359,0.593034 1.739603,0.649666 2.504794,0.782741 1.625308,0.282661 -0.694568,-0.180266 0.782741,0.156556 0.03005,0.0068 0.106811,0.02728 0.09248,0 -0.464342,-0.884299 -2.10267,-1.785832 -2.807012,-2.28301 -0.02698,-0.01906 -0.402904,-0.293814 -0.520931,-0.364691 -0.03273,-0.01966 -0.111559,-0.08829 -0.102452,-0.05122 0.107739,0.438609 1.222319,1.005169 1.523582,1.206011 0.156549,0.104371 0.309406,0.214493 0.469645,0.3131 0.106823,0.06574 0.408332,0.290354 0.313095,0.208724 -1.173171,-1.005593 -2.517455,-1.900286 -4.018089,-2.348239 -1.068049,-0.318821 -4.530704,-0.130855 -4.122466,1.774229 0.563065,2.627602 3.661345,2.889994 5.844507,2.556971 0.261204,-0.03986 1.366164,-0.43131 1.461118,-0.887108 0.134812,-0.647095 0.155432,-1.34051 0,-1.982964 -0.709616,-2.933097 -6.712926,-4.25806 -7.775269,-0.83493 -0.05257,0.169419 7.4e-4,0.377877 0.104366,0.521834 0.861375,1.196367 2.358221,1.324765 3.704991,1.408942 0.334309,0.02091 1.27187,0.0053 0.989541,-0.174936 -1.872059,-1.195207 -2.663058,-1.315205 -4.886722,-0.969293 -0.252502,0.03928 -1.126672,0.306009 -1.148022,0.521831 -0.0671,0.678339 0.94947,0.74111 1.409678,0.83315 0.189477,0.03791 0.763448,0.104367 0.570217,0.104367 -0.681839,0 -1.36368,0 -2.045519,0 -0.226124,0 -0.452251,0 -0.678376,0 -0.07997,0 -0.319907,0 -0.23993,0 0.813961,0 2.685282,-0.01438 3.339724,0.417465 0.663659,0.437933 -1.20888,1.06747 -1.930782,1.400765 -0.591117,0.272919 -2.933939,0.805242 -3.600626,0.208734 -0.44699,-0.39994 -0.769488,-0.97735 -0.887119,-1.565495 -0.120173,-0.600866 0.06464,-1.230822 0.208733,-1.826408 0.122333,-0.505637 0.671202,-1.935739 1.304585,-2.243872 1.699336,-0.826705 5.1867,1.261837 6.628738,2.088171 1.787888,1.024517 3.03444,1.866862 5.009577,2.55697 0.534624,0.186793 1.108292,0.239852 1.669852,0.313099 0.198784,0.02598 1.388958,0.154918 1.648743,-0.05072 1.281539,-1.014538 0.568256,-5.017449 -0.470812,-6.156432 -0.517013,-0.566731 -1.183712,-1.078077 -1.930773,-1.252394 -1.495796,-0.349019 -5.530121,0.442356 -5.113942,2.870074 0.370748,2.162706 2.518671,3.531156 4.174645,4.696477 0.43006,0.302634 0.977258,0.47552 1.304576,0.887103 0.287432,0.361442 -0.629855,0.649731 -0.682142,0.663337 -3.183379,0.828548 -6.642637,0.794407 -9.888608,0.415718 -1.213648,-0.141597 -2.404071,-0.596168 -2.231094,-0.837654 0.532325,-0.743151 1.94716,-0.313735 2.551399,-0.307528 2.513139,0.02585 3.417807,0.21221 5.939558,0.684075 0.369085,0.06906 0.728957,0.180976 1.095842,0.260911 0.06397,0.01394 0.255711,0.03338 0.191243,0.04479 -2.81135,0.497906 -5.804344,0.0025 -8.653692,0.102063 -1.613241,0.05652 -3.8845385,1.034044 -4.3253187,-1.224944 -0.068675,-0.351953 0.067848,-0.741472 0.260911,-1.043659 0.7553177,-1.182243 2.1959967,-1.265948 3.4982997,-0.939153 2.169595,0.544422 8.882598,3.450626 11.312475,4.288651 0.606419,0.209148 1.250722,0.286054 1.878587,0.417464 0.847799,0.177444 0.145105,-0.190453 0.579292,-0.340348 0.05592,-0.01931 0.230446,0.02641 0.177485,0 -1.688702,-0.841061 -3.685948,-0.815553 -5.547899,-1.11926 -1.251549,-0.20414 -2.518672,-0.299186 -3.780869,-0.421284 -0.310623,-0.03005 -1.121755,-0.202145 -0.934993,0.04788 0.867504,1.161331 2.250187,1.778607 3.483355,2.483274 0.142478,0.08141 0.578378,0.228738 0.417465,0.260917 -0.442819,0.08855 -0.864667,-0.263281 -1.304585,-0.365288 -1.612974,-0.373989 -3.008152,-0.653021 -4.646368,-0.678665 -0.453535,-0.0071 -0.905036,0.0633 -1.356762,0.104364 -0.138219,0.01259 -0.314284,-0.04529 -0.413085,0.0522 -0.400439,0.395058 0.335895,0.915134 0.310207,0.818951 -0.211725,-0.792783 -1.515973,-0.721258 -2.134388,-0.721258 -0.20873,0 -0.62993,-0.208697 -0.626189,0 0.01949,1.08683 2.513638,1.15144 2.513596,-0.05448 -2.1e-5,-0.615025 -1.860927,-1.077636 -2.120817,-0.194032 -0.05005,0.170177 -0.162641,0.354288 -0.104366,0.521829 0.185228,0.532534 1.635669,1.704032 2.242876,1.09685 0.209097,-0.209086 -0.142031,-0.675154 -0.417467,-0.782745 -1.630232,-0.636812 -2.7374296,-0.789656 -4.3311977,-0.626193 -0.3660388,0.03758 -1.2708321,0.256081 -1.0436638,0.887111 0.5523421,1.534293 3.7327715,1.732169 5.1661305,1.356761 0.845051,-0.221329 0.927895,-0.349059 1.043664,-1.043662 0.20311,-1.218638 -0.696501,-1.747271 -1.878591,-2.087323 -1.251944,-0.360148 -2.6860354,-0.28142 -3.9659124,-0.156552 -0.1427603,0.01394 -0.2800481,0.06324 -0.4174657,0.104363 -0.036565,0.01098 -0.1351036,0.03153 -0.102412,0.05121 0.6806189,0.41006 1.3253909,0.930376 2.0900838,1.146337 1.0084543,0.284796 3.5601873,0.290659 4.7897273,0.26607 0.508329,-0.01018 1.368264,-0.053 1.304576,-0.782746 -0.0343,-0.393018 -0.732622,-0.850631 -0.988951,-1.038603 -0.09319,-0.06833 -0.421048,-0.185985 -0.309307,-0.156546 1.637288,0.431421 3.036615,0.920825 4.757565,1.132928 1.080039,0.133112 2.172204,0.141213 3.259821,0.177162 0.185679,0.0062 0.681651,-0.06096 0.676422,-0.104366 -0.168709,-1.400891 -5.063486,-1.162095 -5.308368,-1.165698 -0.244115,-0.0037 -0.486898,0.03696 -0.730564,0.0522 -0.03472,0.0019 -0.125676,-0.02752 -0.104367,0 1.203576,1.553144 3.675505,1.505751 5.500685,1.353288 1.098628,-0.09177 2.625507,0.238908 3.237042,-0.678387 0.08895,-0.133432 0.223025,-0.361771 0.104366,-0.469646 -1.556125,-1.414644 -3.74431,-1.591572 -5.740141,-1.513302 -0.67767,0.02659 -2.775697,0.23172 -0.415531,0.97614 0.633978,0.199962 4.188775,0.804595 4.853021,0 0.02357,-0.02857 -0.02333,-0.07333 -0.04966,-0.09933 -1.018679,-1.005108 -2.765976,-0.877051 -4.117436,-0.877051 -0.169285,0 1.752451,0.224815 1.634332,-0.306953 -0.407258,-1.833469 -4.273893,-0.207797 -4.95318,0.743212 -1.003352,1.404686 -0.984997,1.898395 -1.304574,3.496262 -0.155086,0.775421 -0.126422,1.660464 -0.678378,2.296055 -0.419365,0.482905 -0.829147,0.99525 -1.356762,1.356762 -2.317002,1.587574 -6.0504297,0.366114 -6.1054176,-2.713518 -0.031672,-1.773709 1.2549472,-2.673671 2.8178826,-3.49627 2.889456,-1.520767 7.699403,0.204262 10.343114,1.234091 0.95026,0.370155 1.812177,0.947104 2.767047,1.305209 1.433424,0.537568 3.254584,0.889237 4.800844,0.678375 0.297145,-0.04054 0.908238,-0.302882 0.831535,-0.72037 -0.344014,-1.872452 -0.854227,-1.982621 -3.202021,-3.322409 -3.432286,-1.958654 -10.466673,-5.66409 -14.866969,-3.429017 -3.1011255,1.575178 -0.9011153,3.357436 0.365276,5.270498 0.72972,1.102343 0.908573,1.548758 1.148031,2.817883 0.08527,0.451949 0.388953,1.456424 -0.104367,1.930772 -1.409111,1.354913 -3.6609743,1.265278 -5.3748596,0.626195 -0.4528431,-0.168856 -0.8366162,-0.48417 -1.2523967,-0.730557 -0.083046,-0.04924 -0.2902712,-0.156207 -0.2060916,-0.203453 2.2386434,-1.256445 4.5013167,-1.063489 6.9740609,-0.92083 0.53811,0.03104 3.183323,0.371945 4.122467,-0.0522 2.135652,-0.964486 1.821708,-1.744621 3.391892,-2.922266 0.420701,-0.315524 0.812725,-0.701044 1.304584,-0.88711 1.944701,-0.735641 4.215214,-0.946813 6.107768,-4.01e-4 0.02784,0.01394 1.280543,0.624459 1.356763,1.043669 0.02381,0.131002 -0.120063,0.864428 -0.446494,0.72522 -0.809417,-0.345179 -1.572722,-1.289722 -2.139504,-1.774227 -2.061732,-1.762444 -4.338793,-3.062162 -7.149083,-2.556956 -0.971314,0.174606 -1.998091,0.299087 -2.852465,0.793031 -0.948226,0.548211 -1.755446,1.358617 -2.400418,2.243871 -0.281257,0.386044 -0.232312,0.932164 -0.26092,1.408944 -0.08908,1.484771 0.65938,2.919624 1.72205,3.913733 0.459937,0.430261 1.868208,0.840289 0.939288,1.814525 -2.651009,2.780328 -6.6887024,2.432028 -8.3492905,-1.252392 -0.9015884,-2.000399 0.4856796,-3.170576 2.1395057,-4.38338 1.6336468,-1.198006 5.4482468,1.217555 6.5826558,1.725832 1.139785,0.510685 2.302275,0.970113 3.467615,1.41944 2.328321,0.897729 4.744807,1.450736 7.20126,1.878578 0.488379,0.08506 0.860663,-0.335467 1.155255,-0.669335 0.225543,-0.255617 0.839847,-1.05596 0.939301,-1.304593 0.502708,-1.25676 0.153901,-2.933051 -0.939301,-3.809356 -0.897783,-0.719654 -1.988716,-1.243593 -3.11172,-1.494175 -1.235665,-0.275713 -2.537213,-0.164401 -3.797865,-0.04757 -1.154673,0.107012 -3.616945,0.627297 -4.003446,2.205499 -0.140921,0.57543 -0.114945,1.18189 -0.104366,1.77422 0.01928,1.079672 0.547173,2.045681 0.469653,3.130994 -0.03015,0.422148 -0.01331,0.876979 -0.208733,1.252386 C 16.653822,31.235695 14.151557,34.601691 12.173,34.880719 9.0208107,35.325248 6.8186976,34.683012 4.707788,32.270543 4.430427,31.953563 3.8234418,30.578326 4.1859562,30.078866 4.8079585,29.221879 5.5600419,28.354478 6.5341944,27.939358 7.5060238,27.52522 8.6404909,27.701543 9.6964793,27.730624 c 2.1183177,0.05831 3.4388847,0.579773 5.4678827,1.104995 1.072529,0.277632 2.161228,0.49463 3.224281,0.806587 2.153023,0.631808 2.229296,0.974993 4.435566,1.461121 0.424672,0.09357 0.869715,0 1.304573,0 2.085177,0 4.169271,-0.404154 6.151718,-1.043657 0.392445,-0.126596 1.361761,-0.258856 1.09584,-0.574016 -0.452172,-0.535916 -0.920819,-1.086127 -1.513303,-1.46112 -1.023935,-0.648061 -4.601468,-1.919753 -5.684582,-2.100715 -2.035219,-0.340039 -4.103959,-0.442257 -6.162044,-0.590689 -1.42153,-0.102527 -3.547163,0.682225 -2.922249,2.556971 0.526468,1.579411 4.057109,5.617279 3.339714,7.096904 -0.742242,1.53087 -3.298415,2.230371 -4.800843,1.513309 -0.436452,-0.20831 -0.795216,-0.556352 -1.14803,-0.88711 -0.427451,-0.400742 -0.876637,-1.235319 -0.626198,-1.408945 0.738349,-0.511882 1.515332,-1.148255 2.412121,-1.202635 5.892341,-0.357285 6.182711,0.629679 10.78748,1.319346 1.488125,0.222878 2.991542,0.328026 4.488404,0.481629 0.892644,0.0916 3.953599,-2.777843 3.802827,-3.548446 -0.123578,-0.631617 -0.27578,-1.286575 -0.626198,-1.826408 -1.092872,-1.683615 -5.31532,-3.337384 -6.992274,-3.83513 -0.591722,-0.175624 -2.426904,-0.369255 -3.07979,-2.34e-4 -2.5674,1.451143 -0.09526,5.963728 -1.46113,8.297113 -0.686408,1.172628 -1.511784,1.744731 -2.713524,2.452607 -2.533344,1.492243 -5.079055,1.726036 -8.004173,1.197605 C 9.1262938,37.296504 7.8648919,36.710634 6.5529515,36.322874 4.6460363,35.759261 1.6403665,35.083386 0.55190015,33.139703 0.44677495,32.951978 0.39534614,32.72867 0.39534614,32.513518 c 0,-0.334591 -0.0677165,-0.743189 0.15655401,-0.991494 1.01442585,-1.123111 3.66074245,-0.592595 4.54294995,-0.417259 2.3452126,0.46611 4.6534498,1.115045 6.9400889,1.814018 8.351281,2.552788 -4.61603,-0.137685 8.839305,2.87945 2.070461,0.464265 5.620605,0.673235 7.716281,0.06939 2.747343,-0.791599 0.259878,-3.968286 4.383378,-3.183165 0.949794,0.180833 1.799772,0.709011 2.682087,1.104391 0.638897,0.286296 1.252471,0.626032 1.878584,0.939299 0.312563,0.15638 0.821649,0.13988 0.937442,0.469646 0.08355,0.237933 -0.503708,0.07306 -0.754857,0.05035 -1.974846,-0.178771 -6.746936,-0.709065 -9.117541,-1.138981 -1.83815,-0.333356 -3.659614,-0.753203 -5.492743,-1.113172 -0.680832,-0.133691 -1.356328,-0.323656 -2.048758,-0.367749 -4.276197,-0.272314 -4.87018,2.352543 -5.061756,5.896682 -0.01512,0.279756 -0.310306,2.545099 -0.574008,2.609153 -1.511666,0.367145 -3.115643,0.828178 -4.638709,0.511635 C 8.5423948,41.17991 5.6742083,37.731399 4.6700036,35.685797 4.502593,35.344777 4.2544729,34.955783 4.3569049,34.589952 c 0.4352422,-1.554433 1.3548936,-1.878146 2.8178824,-1.72205 4.9489477,0.528036 6.2138377,1.605352 10.4210137,3.512732 1.460849,0.662301 6.663024,2.806703 8.301803,3.351761 1.737073,0.577751 3.510842,1.038875 5.271204,1.541206 0.277083,0.07906 1.055343,0.368786 1.274265,-0.100336 0.771219,-1.652603 0.78504,-4.696639 0.364147,-6.32337 -0.251509,-0.972076 -0.788515,-1.853842 -1.305055,-2.714876 -0.251176,-0.418692 -1.234116,-1.198507 -1.826409,-0.834935 -1.255667,0.770783 -2.473065,1.700047 -3.348837,2.884881 -0.944458,1.277764 -0.758294,5.478866 -0.83936,6.50566 -0.03626,0.459112 0.01914,0.991147 -0.260922,1.356761 -0.396039,0.517053 -0.992703,0.91252 -1.617671,1.095839 -1.611683,0.472762 -4.099373,-0.229497 -5.792321,-0.313094 -0.057,-0.0031 -5.358154,-0.103679 -5.378674,-0.10437 -1.239849,-0.04183 -2.5172526,-0.205217 -3.7601782,-0.05245 -0.6945028,0.08536 -0.8799689,0.918252 -1.5946516,1.033525 -0.7202169,0.116161 -2.2725468,-0.0043 -2.5047931,-0.991475 -0.4382855,-1.862707 0.2681797,-2.901038 2.1916942,-3.600635 1.0946435,-0.398131 2.3101415,-0.40279 3.4745317,-0.372018 2.857843,0.0755 5.421426,0.766974 8.220315,1.069189 1.34411,0.145132 3.839,0.126361 5.062201,0.0522 0.211124,-0.01283 0.472964,-0.210556 0.715751,-0.156553 1.677003,0.373043 3.565519,0.270074 5.25347,0 0.217263,-0.0348 0.634345,0.01111 0.626205,-0.208734 -0.0874,-2.360078 -1.915847,-2.52063 -4.185722,-3.735709 -1.319209,-0.706185 -2.701795,-1.29375 -4.096816,-1.834968 -1.44135,-0.559182 -2.884062,-1.166598 -4.401583,-1.462088 -0.669366,-0.130341 -1.379071,0.0227 -2.035139,0.208729 -1.604348,0.454973 -2.068626,1.133181 -1.72204,2.974435 0.191932,1.019649 1.900584,3.471478 2.400426,4.331198 0.457723,0.787286 0.858771,1.606332 1.304575,2.400418 0.192462,0.342828 0.588871,0.700933 0.469644,1.148033 -0.134688,0.505076 -0.796669,1.103244 -1.200208,1.200209 C 12.197467,45.800315 8.2130565,46.025081 3.9478166,44.384609 3.0393538,44.035203 2.1710251,43.589215 1.2859571,43.184189 1.2463376,43.166049 0.82300947,42.97361 0.71193671,42.871091 -3.1964382,39.26362 11.34688,42.479584 16.665104,42.555369 c 1.646523,0.02345 3.266943,0.422399 4.906747,0.572837 2.766936,0.253846 3.557855,0.232898 6.264567,-0.03233 0.504346,-0.04942 0.05244,-0.643241 -0.05217,-0.782745 -0.677569,-0.903418 -2.512747,-2.046299 0.357044,-2.286645 2.513326,-0.210486 5.044673,-0.03579 7.566374,0.01037 2.331274,0.04276 1.976618,0.202417 3.954963,0.328692 0.295101,0.01888 0.591411,0 0.887116,0 0.06583,0 0.249533,0.04035 0.197505,0 -0.998342,-0.773903 -9.655281,-3.740304 -10.733244,-4.137881 -2.21342,-0.816367 -11.277385,-5.100856 -14.12975,-2.698864 -1.991719,1.677235 1.885435,4.690982 2.765704,5.687953 0.567529,0.642767 1.0741,1.337072 1.626071,1.993254 0.372884,0.443279 0.752794,0.881099 1.148029,1.304572 0.126117,0.13513 0.437805,0.423444 0.264394,0.487423 -2.937893,1.083973 -8.24486,-0.341736 -11.455159,-1.341015 -2.3682293,-0.737159 -6.0050861,-1.805065 -5.7471542,-4.943235 0.066786,-0.812572 0.2409022,-1.617858 0.4696534,-2.400426 0.2013202,-0.688722 1.3430433,-2.478695 2.3430443,-2.296053 1.1149351,0.203638 1.9678067,1.256982 2.7135255,1.930772 3.176566,2.870176 6.345155,5.749762 9.468861,8.677376 0.794297,0.74444 1.56239,1.519424 2.282246,2.336063 0.253041,0.287061 1.270742,2.285348 1.820517,2.544938 1.370521,0.647123 3.181243,-0.09652 4.331196,-0.887109 0.327504,-0.22516 0.538605,-0.590615 0.93159,-0.72219 0.39128,-0.131002 2.634103,-0.0075 2.758119,-0.207378 0.283069,-0.456219 -1.682122,-1.365085 -2.44858,-1.606943 -2.471112,-0.779783 -6.522552,-1.454802 -8.921713,0.178668 -2.034314,1.385052 -1.352481,2.62762 -0.521832,4.905207 0.278699,0.764178 1.677097,2.236894 0.692238,2.066734 C 16.979389,50.645542 14.053452,48.690293 11.220781,46.801842 10.139988,46.081312 9.0564918,45.310173 8.0376117,44.505787 7.8136941,44.329016 7.6367724,44.050007 7.359235,43.98396 c -0.047554,-0.01129 -0.046462,0.131445 0,0.146637 7.23586,2.365698 6.495994,2.970178 12.879897,2.05042 0.698314,-0.100606 1.396228,-0.304165 2.018637,-0.636392 1.485514,-0.792926 2.248376,-1.930253 2.035138,-3.600621 -0.05992,-0.469375 -0.460299,-1.828 -0.417463,-1.356762 0.182076,2.003051 1.431943,2.308216 3.600631,4.07028 0.423695,0.344248 1.000332,0.439436 1.513312,0.626193 0.06474,0.02357 0.27185,0.02246 0.206698,0 -1.87769,-0.646475 -3.804118,-1.185457 -5.763687,-1.507583 -0.774092,-0.127244 -1.576235,0.01715 -2.348236,0.156547 -6.238488,1.126387 1.9037,7.263278 -4.174645,7.723101 -1.273013,0.0963 -2.586806,0.0116 -3.815161,-0.336225 C 9.4785649,50.295723 8.094917,46.869709 6.3785451,43.944063 5.8625136,43.064462 4.8839421,41.985524 5.334881,40.813087 c 0.6825146,-1.774541 4.1350899,-0.567204 5.311357,0.152771 0.606068,0.370964 -1.4076156,-0.199122 -2.1148958,-0.267575 -0.6595795,-0.06384 -1.5352705,0.09568 -2.0873271,0.469652 -1.3728932,0.930017 -0.3099571,2.79446 0.4174651,3.652815 1.4290242,1.686245 3.1474968,1.851745 5.3824558,2.036316 0.421536,0.0348 1.408616,-0.135055 1.46113,-0.782739 0.04079,-0.503088 0.185908,-1.068257 -0.05219,-1.513314 C 12.220227,41.883109 11.414723,41.589816 9.597678,39.875676 8.4893538,38.830114 4.8696035,34.855411 3.0747941,36.744688 2.9232529,36.904209 2.8885097,37.152015 2.866061,37.370893 c -0.2256052,2.199644 1.1254264,4.783301 3.3397144,5.479218 0.2510886,0.07891 0.9568323,0.181481 1.2002185,-0.156552 1.032379,-1.43386 1.2534441,-4.549478 -0.469654,-5.687953 -0.5098992,-0.336899 -2.09254,-0.761353 -2.9222483,-0.678382 -0.6892869,0.06893 -1.1962669,0.515307 -0.991476,1.408944 0.3667983,1.600582 4.0604959,3.187873 4.542612,3.393078 1.2060069,0.513338 2.5066514,0.778285 3.7873224,1.057287 1.384193,0.301561 2.799834,0.435599 4.194949,0.681732 1.108663,0.195597 0.80947,0.234427 1.513317,0.313104 1.87924,0.210056 2.803262,0.113091 4.846947,0.521829 0.37252,0.0745 0.733015,0.200498 1.095842,0.3131 0.103149,0.03202 1.085395,0.332485 0.782741,0.678374 -1.323518,1.512599 -2.78287,1.452353 -4.905613,1.760312 -0.870119,0.126225 -1.756898,0.07416 -2.63553,0.106468 -0.134872,0.0049 -0.505119,-0.09038 -0.40489,0 0.06956,0.06273 0.174964,0.06712 0.260912,0.104372 0.960475,0.416241 1.945851,0.78022 2.878243,1.25605 0.863749,0.440806 1.677623,0.973888 2.499569,1.488448 0.637907,0.399348 1.245526,0.845423 1.878595,1.252399 0.22504,0.144661 0.654459,0.2254 0.666981,0.156546 0.08622,-0.474163 0.361504,-3.591071 0.361855,-3.597205 0.02679,-0.468879 -0.05487,-0.942512 0,-1.408943 0.166059,-1.411511 0.942532,-2.636001 2.296059,-3.18317 1.338452,-0.541074 2.813451,-0.201658 4.174644,0 0.292972,0.04344 0.883111,0.193883 0.882593,-0.102285 -0.0031,-1.561511 -1.182915,-3.675689 -2.766399,-4.115546 -0.235233,-0.06534 -0.525409,-0.08017 -0.730559,0.0522 -2.128076,1.372942 -1.066292,4.464396 1.252388,4.957396 2.786581,0.592491 5.121625,0.270074 7.857103,-0.293867 0.266662,-0.05498 0.495895,-0.227239 0.73057,-0.365281 0.06361,-0.03745 0.151388,-0.08292 0.156559,-0.156552 0.0031,-0.04843 -0.09748,-0.0064 -0.145583,0 -2.463689,0.324316 -5.011397,0.225622 -6.730628,2.272303 -0.02758,0.03283 -0.229091,0.5991 -0.208402,0.624873 0.644649,0.803133 4.389797,0.04313 5.061754,-0.991474 0.182987,-0.281748 -0.809968,-0.439171 -2.136224,-0.306541 -1.079069,0.107907 -3.285067,0.892873 -4.279015,1.252386 -0.123202,0.04455 -0.467091,0.232756 -0.360518,0.156553 0.613809,-0.438864 3.326562,-1.815333 4.071458,-2.270552 0.440794,-0.269371 1.361625,-0.65288 1.095845,-1.095851 -1.330452,-2.217427 -6.591193,-0.711695 -8.03859,-0.388976 -0.425798,0.09493 -0.797116,0.355032 -1.200218,0.521834 -0.15113,0.06253 -0.621737,0.106833 -0.465486,0.155159 1.854206,0.573497 3.210969,0.01598 5.322679,-0.730564 0.382849,-0.135352 0.771583,-0.486003 0.834916,-0.887109 0.59505,-3.768688 -4.314372,-3.674296 -6.679426,-3.391899 -0.719648,0.08592 -1.331001,0.693609 -1.930773,1.043662 -0.336544,0.196419 -0.372123,0.360518 -0.310459,0.356841 0.623461,-0.03721 1.269513,0.02314 1.86696,-0.15888 0.0108,-0.0031 2.831987,-1.274363 2.452603,-2.087325 -0.469467,-1.005987 -2.561106,-0.132272 -2.452603,-1.043662 0.07382,-0.620128 0.162438,-1.256354 0.417464,-1.826409 0.344858,-0.770855 0.905814,-1.425511 1.356764,-2.139502 0.175251,-0.277483 0.348868,-0.556005 0.521831,-0.834927 0.05317,-0.08573 0.1681,-0.158804 0.156544,-0.259029 -0.0071,-0.06172 -0.134937,-0.0348 -0.186406,0 -0.472638,0.319647 -0.972575,0.621806 -1.356763,1.043663 -0.513334,0.563657 -0.875516,1.248399 -1.304576,1.878584 -0.127636,0.187466 -0.239473,0.385311 -0.365276,0.574017 -0.04824,0.07237 -0.19545,0.286523 -0.156555,0.208734 0.125431,-0.250866 0.250514,-0.505192 0.417466,-0.730563 0.880108,-1.188102 1.79897,-2.347206 2.71954,-3.504241 0.368857,-0.4636 0.774449,-0.89697 1.148032,-1.356762 0.07909,-0.09734 0.283996,-0.212758 0.20873,-0.3131 -0.07598,-0.10131 -0.258342,0.03653 -0.365287,0.104365 -1.609722,1.020807 -2.763117,2.152606 -3.757179,3.809369 -0.4658,0.776334 0.386632,0.144021 0.678387,-0.0522 1.399006,-0.940835 6.596338,-4.093331 6.879474,-5.933752 0.02277,-0.147896 -0.215998,-0.271129 -0.365282,-0.260924 -1.024615,0.07008 -2.091827,0.102162 -3.041177,0.493926 -2.622672,1.08229 -4.857163,4.642828 -6.487827,6.879167 -0.327028,0.448494 -0.745785,0.890453 -0.678378,0.935533 0.704464,0.471104 1.992836,-0.0049 2.538167,-0.164067 2.069096,-0.604585 4.098633,-1.33793 6.160015,-1.968307 0.653609,-0.199873 1.319081,-0.359253 1.98295,-0.521834 0.188896,-0.04627 0.412206,0.0037 0.574022,-0.104364 0.115787,-0.07719 -0.280088,-0.02215 -0.41747,0 -2.051123,0.330745 -4.131945,0.533965 -6.142447,1.057804 -1.641729,0.427751 -5.345701,2.749732 -6.516855,3.420758 -0.236007,0.135223 -0.995998,0.420618 -0.729683,0.365276 1.461025,-0.303578 1.559787,0.719821 1.23775,-3.844028 -0.191693,-2.716641 -5.249997,-4.764815 -7.096893,-5.740141 -0.482742,-0.254932 -0.940828,-0.554056 -1.408952,-0.834928 -0.140711,-0.08442 -0.280799,-0.170078 -0.417465,-0.260911 -0.01937,-0.0129 -0.06897,-0.06184 -0.04934,-0.04936 2.060189,1.311003 3.784312,3.024093 5.613516,4.620337 0.794099,0.692968 1.615709,1.353924 2.411697,2.044719 0.147098,0.127664 0.49244,0.235261 0.413169,0.41317 -0.335982,0.754059 -1.559812,-0.55381 -2.365766,-0.732489 -2.186059,-0.484659 -4.387933,-0.905633 -6.601915,-1.240334 -0.3871281,-0.05855 -1.6235582,-0.05621 -1.9879334,0.417463 -0.2113149,0.274708 -0.281721,0.646326 -0.3130988,0.991487 -0.3345442,3.679984 4.7171972,5.253373 7.6187252,4.905202 0.21012,-0.02523 0.28462,-0.375279 0.156555,-0.511074 -0.735903,-0.780351 -1.471458,-1.60801 -2.402401,-2.140778 -1.329757,-0.761002 -3.408262,-1.342232 -5.0360803,-1.07093 -0.776321,0.129385 -1.3798537,1.447035 -0.7305644,2.087326 2.4240766,2.390479 5.8610447,1.832702 8.9589077,1.494125 1.712831,-0.187201 3.708234,-0.730878 3.918241,-2.760943 0.25231,-2.438989 -5.096609,-2.864302 -6.676418,-2.825324 -1.952967,0.04819 -4.8227442,-0.08805 -4.7486561,2.504788 0.033437,1.170273 1.5572331,1.760671 2.4608371,1.934187 1.669046,0.320503 3.399687,0.255715 5.096259,0.155287 0.403874,-0.02388 0.912291,-0.161285 1.095842,-0.521834 0.359388,-0.705943 0.49884,-1.567417 0.365277,-2.348237 -0.497483,-2.908339 -5.204854,-2.948533 -7.5217298,-2.834733 -0.3685451,0.01808 -0.7318732,0.09587 -1.0958418,0.156546 -0.054255,0.009 -0.1894916,0.0081 -0.1565447,0.0522 0.069742,0.09323 0.1959971,0.155485 0.3124312,0.156219 1.7960851,0.01135 3.5981631,0.04115 5.3870221,-0.120185 2.555999,-0.230535 8.962453,-0.880815 11.150672,-2.967383 0.650205,-0.619996 1.062457,-2.560771 1.404799,-3.346146 0.231353,-0.530755 0.470475,-0.839024 0.574019,-1.356762 0.03082,-0.154047 0.204924,-0.505106 0.05217,-0.468387 -2.074951,0.498826 -3.81804,0.823643 -5.361038,2.35326 -0.03598,0.03566 0.106012,0.02129 0.151978,0 0.626819,-0.290363 1.262058,-0.57039 1.852711,-0.928637 0.163261,-0.09902 2.493237,-1.343471 2.661334,-2.29606 0.38185,-2.163873 -5.77849,-0.784498 -6.031627,-0.715514 -0.861653,0.234817 -1.6513,0.699533 -2.409733,1.171093 -0.172268,0.107109 -0.362297,0.325032 -0.313099,0.521827 0.09366,0.374685 0.309086,0.826216 0.678377,0.939292 1.983126,0.607226 5.889586,-0.479457 7.391439,-0.826566 0.48234,-0.111473 0.944969,-0.297007 1.40894,-0.469653 0.306075,-0.113885 1.208185,-0.360179 0.88658,-0.416933 -2.730541,-0.481857 -5.69065,0.799849 -7.969505,2.113394 -0.764041,0.4404 -1.383749,1.094963 -2.045702,1.677649 -0.07613,0.06701 -0.228272,0.189194 -0.156554,0.260917 0.171313,0.171312 0.43763,0.288098 0.678376,0.260917 1.740914,-0.196523 3.48899,-0.443581 5.17448,-0.921633 0.339529,-0.09629 5.869824,-2.670079 7.310941,-2.700226 0.149635,-0.0031 -0.272734,0.124709 -0.401613,0.200806 -0.544603,0.321553 -1.135834,0.581834 -1.617685,0.991481 -1.446182,1.229486 -3.195045,3.305168 -4.509396,4.726553 -0.198944,0.215145 -0.886988,0.494987 -0.622367,0.62086 2.168526,1.031496 4.68079,1.142789 7.029752,1.414615 0.259763,0.03005 0.521711,0.03683 0.782752,0.0522 0.03474,0.0019 0.139153,0 0.104364,0 -1.458522,0 -2.957406,0.286585 -4.423057,0.155052 -0.891845,-0.08003 -1.774631,-0.240591 -2.661338,-0.365288 -0.263609,-0.03708 -0.956384,-0.19872 -1.024565,-0.104369 -0.134969,0.186774 1.585034,2.55046 2.39258,1.305227 1.597774,-2.463763 3.108849,-7.304862 1.55493,-10.309099 -0.226027,-0.436987 -0.601427,-0.828066 -1.043662,-1.043655 -2.462539,-1.200492 -4.343235,-1.440273 -6.522884,0.260916 -0.218115,0.170238 -1.537182,1.06822 -0.83493,1.722043 1.816484,1.691211 5.360685,0.210421 7.044713,-0.678381 0.738785,-0.389913 1.01441,-1.644599 1.095845,-2.296059 0.337701,-2.701544 -9.227697,0.08224 -8.401469,-2.922245 0.626463,-2.27807 4.192563,-1.919138 5.844496,-1.774229 0.164389,0.01443 0.438489,-0.0055 0.469653,0.156556 0.398929,2.07438 -4.4149,5.493286 -5.137901,6.064968 -0.5337,0.422006 -1.138617,0.745792 -1.72204,1.095845 -0.146904,0.08813 -0.422637,0.04399 -0.469654,0.208735 -0.171941,0.602431 4.569462,2.276765 5.214692,2.804684 0.175992,0.143996 0.546572,0.677289 0.208722,0.939299 -3.198692,2.480619 -5.310067,2.245179 -9.827638,3.555312 -0.619777,0.179741 -1.214541,0.438011 -1.831283,0.627902 -0.289978,0.08928 -0.59083,0.138399 -0.885977,0.208735 -0.08326,0.01981 -0.198816,-0.01629 -0.251654,0.05103 -0.22311,0.284345 4.184098,1.245005 4.576875,1.308356 1.726101,0.278409 -1.82525,-3.076072 -2.24039,-3.501861 -2.291724,-2.350495 -0.15064,-0.202823 -1.304574,-1.356762 -0.05218,-0.0522 -0.229452,-0.16806 -0.156554,-0.156552 0.391799,0.06186 0.769521,0.431693 1.148029,0.313099 2.2203,-0.695682 4.561735,-1.318555 6.440699,-2.690847 1.41436,-1.032976 -0.145604,-4.486527 -0.674538,-5.124605 -1.935761,-2.335203 -10.8500559,-2.578036 -8.614814,1.668923 0.739269,1.404612 4.18072,2.147103 5.73661,1.878583 0.484334,-0.08358 -0.649533,-0.738559 -0.995094,-1.088063 -0.856166,-0.865941 -1.760659,-1.683521 -2.609159,-2.556971 -1.046171,-1.076938 -0.677221,-0.781194 -1.304575,-1.617672 -0.02952,-0.03936 -0.128259,-0.147375 -0.104366,-0.104367 1.017997,1.832414 3.343291,3.396904 5.076109,4.426745 0.555677,0.33024 1.17754,0.534119 1.774219,0.782739 0.03212,0.01339 0.116855,0.03245 0.104367,0 -0.178808,-0.464901 -0.207724,-1.086607 -0.626199,-1.356761 -1.461842,-0.943722 -4.494074,-1.933789 -6.418517,-1.408943 -0.181518,0.04948 -0.39268,0.141417 -0.469644,0.313098 -1.3350226,2.978143 4.363972,5.92794 6.23894,6.964217 0.252,0.139275 0.51368,0.262775 0.782743,0.365276 0.09887,0.03764 0.401136,0.110879 0.3131,0.0522 -1.036532,-0.691024 -5.712304,-2.457667 -6.888171,-1.252397 -0.467298,0.478981 -0.748035,1.132959 -0.9392878,1.774219 -0.3594884,1.205349 0.5661748,3.155669 1.8785858,3.391899 1.319182,0.237459 2.685011,0.296211 4.018099,0.156559 0.541568,-0.0567 1.076089,-0.345524 1.461131,-0.730563 0.198325,-0.198325 0.273882,-0.611484 0.104366,-0.834934 -1.861284,-2.453508 -4.211502,-3.134055 -7.149083,-3.235347 -0.5606184,-0.01937 -1.1472176,0.0049 -1.6698614,0.208736 -0.5350581,0.20858 -1.1880655,0.461371 -1.4089413,0.991475 -1.0162358,2.438963 2.1288249,4.327635 3.8615457,4.905206 0.694837,0.231615 1.462809,0.22853 2.191685,0.156547 0.701437,-0.06928 1.497518,-0.118198 2.035148,-0.57401 1.493334,-1.266084 -1.022787,-3.242918 -1.513317,-3.652816 -1.873151,-1.565232 -5.7029289,-2.201253 -7.6187257,-0.365288 -2.229682,2.13678 4.3247717,5.122957 5.7401407,5.635778 0.279934,0.10142 1.77513,0.390239 1.878585,0.260922 0.113447,-0.141812 -0.02981,-0.391764 -0.156544,-0.521834 -2.105078,-2.16048 -4.2562535,-2.73628 -7.1597228,-3.083088 -0.2586504,-0.03091 -0.5209776,0 -0.7814666,0 -0.050898,0 -0.1665104,-0.04899 -0.1527043,0 0.3906575,1.386317 1.7322687,1.803084 2.926012,2.594116 0.5719601,0.379011 1.1940717,0.677307 1.7742187,1.043664 0.09134,0.05769 0.250401,0.316245 0.248364,0.208228 C 10.301216,32.810547 8.3500789,31.795243 7.2549486,31.184007 7.0035324,31.043676 6.7324158,30.941983 6.4722057,30.818725 6.4019033,30.785404 6.2167986,30.652127 6.2634732,30.714361 c 0.8846565,1.179539 2.0424683,2.364749 3.2900797,3.133043 1.5298211,0.942082 3.1178731,1.809248 4.7816021,2.487389 0.786421,0.320547 1.663907,0.343198 2.501834,0.48137 0.137301,0.02264 0.464615,0.130921 0.417464,0 -0.112265,-0.311736 -0.400068,-0.547077 -0.678927,-0.726022 -2.358763,-1.513606 -5.66251,-3.800046 -8.6661131,-2.298246 -0.54453,0.272266 -0.9285915,0.875751 -1.0958423,1.461127 -0.7427381,2.599584 4.1779584,3.899654 5.6357644,4.122462 0.959014,0.146565 1.940346,0.0096 2.910447,0 0.782901,-0.0078 1.565456,-0.03653 2.348238,-0.0522 0.08695,-0.0019 0.329178,0.05386 0.260911,0 -1.859645,-1.467883 -6.388199,-2.034329 -8.7097106,-1.842648 -1.2336905,0.101865 -2.7368409,0.776957 -2.5569712,1.304579 1.0978828,3.22047 5.8858498,3.135252 8.4755478,3.39433 0.554932,0.05553 1.112594,0.08206 1.669852,0.104366 0.312275,0.01246 1.128927,0.247096 0.937575,0 -0.257482,-0.332493 -0.80253,-0.253792 -1.211129,-0.353244 -1.787812,-0.435174 -3.879967,-1.012182 -5.776367,-0.959204 -0.430146,0.01197 -0.8368794,0.201226 -1.2523977,0.313093 -0.037559,0.01012 -0.116937,0.01536 -0.1043663,0.0522 0.052021,0.152326 0.1017718,0.38241 0.2609499,0.406307 4.0181711,0.603123 6.3176571,0.469672 10.3287101,0.14359 0.302782,-0.02462 0.887119,0.09504 0.887119,-0.208735 0,-0.296212 -0.591371,0.03548 -0.887119,0.0522 -3.787966,0.213603 -7.711817,0.144496 -11.2734443,1.618277 -0.3593964,0.148717 -0.7515744,0.26499 -1.0436632,0.521828 -0.2844742,0.250144 0.9574944,0.929612 2.3459265,1.29762 1.681718,0.445743 3.407344,0.717747 5.129768,0.962931 0.880555,0.125343 2.083604,0.115502 3.072476,0.115502 0.121762,0 -0.243537,-0.0019 -0.365286,0 -1.157658,0.01678 -2.315392,0.0811 -3.472888,0.05559 -1.228352,-0.02709 -2.452149,-0.163112 -3.679773,-0.213264 -0.938676,-0.03838 -1.8785523,-0.03727 -2.8178925,-0.0522 -0.1565281,-0.0025 -0.3130957,0 -0.4696435,0 -0.034789,0 -0.1388583,-0.0043 -0.1043663,0 0.6951951,0.09148 1.3915446,0.173952 2.0873173,0.260923 2.054271,0.325699 4.101998,0.695744 6.162811,0.977092 1.296372,0.176982 2.601869,0.280407 3.905028,0.397397 0.225219,0.02024 0.471177,0.09056 0.678377,0 0.590641,-0.258165 -5.627438,-3.374314 -6.525981,-3.831095 -0.227111,-0.115458 -0.902605,-0.252389 -0.672872,-0.362535 2.463363,-1.181039 4.480794,-1.09368 7.386844,-1.888968 0.224619,-0.06145 3.077317,-0.872345 1.722041,-2.191691 -2.425198,-2.360896 -5.509501,-2.766481 -8.588707,-3.602766 -1.173932,-0.318832 -2.335,-0.691715 -3.5243982,-0.946864 -1.0150435,-0.217749 -2.0486739,-0.34089 -3.0787932,-0.469652 -0.1553731,-0.01944 -1.2011814,-0.08874 -0.7268408,0.242301 0.9945934,0.694115 1.957456,1.507639 3.1075815,1.892647 3.6758017,1.230492 10.9389387,1.206336 14.1377117,1.19307 1.293145,-0.0056 4.527942,-0.143558 5.722041,-1.307931 0.275109,-0.268264 0.19943,-0.912746 -0.104365,-1.148033 -3.163909,-2.45038 -7.856426,-3.093929 -11.10036,-0.446581 -0.628636,0.513023 -1.165184,1.280614 -1.252397,2.087319 -0.305574,2.826545 5.52114,3.470348 7.582869,3.734289 0.674878,0.0864 1.356335,0.110263 2.035146,0.156546 0.08677,0.0062 0.347862,0.0019 0.260913,0 -3.914578,-0.0883 -6.746809,-0.331931 -10.693534,0.464352 -1.231588,0.248484 -2.374689,0.826888 -3.532246,1.315373 -0.238274,0.10055 -1.171357,0.723053 -0.417464,0.93051 4.635584,1.275642 6.493312,0.959994 11.536172,0.24688 1.236324,-0.174834 2.433665,-0.560387 3.645764,-0.860163 0.299213,-0.074 0.69456,-0.02024 0.887111,-0.260906 0.141259,-0.176581 -0.452269,0.0025 -0.67838,0 -1.952847,-0.02104 -4.995853,-0.183529 -7.062658,0.157003 -0.750681,0.123685 -1.46845,0.399977 -2.194645,0.626829 -0.111376,0.0348 -0.425844,0.126478 -0.313099,0.156547 4.139368,1.103804 8.659304,-0.468697 12.525358,-1.814025 0.345382,-0.120191 0.6478,-0.344673 0.991474,-0.469645 0.154221,-0.05609 -0.261899,0.208678 -0.417464,0.26091 -1.451216,0.487256 -2.893358,1.025227 -4.388727,1.352807 -4.422534,0.968817 -5.431506,0.897747 -9.141668,1.200345 -0.0692,0.0056 0.138909,-0.0031 0.208288,0 1.792137,0.06847 3.584533,0.13136 5.376101,0.213387 2.3737,0.108671 4.75027,0.177396 7.119532,0.358704 0.718846,0.05504 1.552163,0.01635 2.110661,0.472238 0.400193,0.326686 -0.738628,0.83752 -1.248985,0.917573 -1.340812,0.210321 -2.719703,0.238303 -4.07029,0.104364 -0.87786,-0.08705 -2.661327,-0.338243 -2.661327,-1.669849 0,-0.855925 2.69631,-5.339775 -0.523147,-1.475528 -0.383922,0.460816 -0.662074,1.009517 -0.88711,1.565486 -0.455111,1.124394 1.375064,1.324218 2.03514,1.356767 0.04439,0.0019 7.836935,-0.407505 8.854824,-0.952878 0.116168,-0.06224 -0.234927,-0.126406 -0.363412,-0.155745 -0.481258,-0.109887 -0.967046,-0.207816 -1.457912,-0.260115 -0.814584,-0.08679 -1.635277,-0.101139 -2.4526,-0.156547 -0.745269,-0.05053 -0.88384,-0.08367 -0.834932,-0.104371 4.029091,-1.704625 -1.15358,1.719872 6.809044,-2.97383 0.899716,-0.530356 3.362245,-2.125322 1.177633,-3.41215 -1.459832,-0.859899 -3.669124,-0.614475 -5.270496,-0.521835 -3.199722,0.18511 -3.641938,0.454641 -6.366333,0.0522 -0.72561,-0.107192 0.596395,-1.395685 1.151509,-1.875104 1.004131,-0.867199 2.1836,-1.507916 3.287539,-2.243873 0.409614,-0.273078 0.842781,-0.509673 1.252397,-0.782752 0.06139,-0.04091 0.228795,-0.141521 0.156547,-0.156546 -2.268052,-0.471578 -4.881991,0.740325 -6.768851,1.431849 -1.644009,0.602517 -3.200763,1.42258 -4.77372,2.191732 -0.38594,0.18872 -0.871283,0.312131 -1.095843,0.678375 -0.109273,0.178217 0.160156,0.496864 0.368953,0.507137 3.436505,0.169103 7.889418,-0.02098 11.191762,-1.375951 0.216756,-0.08893 3.524671,-1.811922 2.452577,-3.262398 -1.35783,-1.837057 -6.811802,-0.766339 -7.357399,-0.658186 -2.84935,0.564805 -6.153873,1.35688 -8.006948,3.857542 -0.851523,1.1491 1.465062,1.934332 3.339974,2.09315 2.958198,0.250574 11.956376,-0.150038 11.596592,-5.127098 -0.05078,-0.702587 -0.498468,-1.501679 -1.148015,-1.774227 -2.388893,-1.002384 -8.042383,-0.537599 -10.262972,-0.45496 -1.078964,0.04017 -2.157449,0.09403 -3.235348,0.156552 -0.12214,0.0071 -0.484737,0.03727 -0.363305,0.0522 3.968825,0.487145 11.726135,-1.074133 12.578863,-5.973675 0.105784,-0.607812 -0.808921,-1.056725 -1.408954,-1.200204 -1.036841,-0.247947 -5.913211,0.280496 -6.888159,0.365277 -0.434608,0.03776 -0.869538,0.07189 -1.304575,0.104363 -0.03116,0.0025 -0.124981,0 -0.09373,0 2.633994,0 6.400096,-1.794827 8.464653,-2.831599 0.21143,-0.106172 0.551065,-0.378757 0.417466,-0.574022 -0.220726,-0.322602 -0.706171,-0.448322 -1.095841,-0.417464 -4.002109,0.316893 -4.580938,0.746852 -7.793688,2.549357 -0.236719,0.132815 -0.897566,0.526407 -0.626198,0.520527 0.82847,-0.01795 1.681379,0.102222 2.483791,-0.104711 0.245722,-0.06337 5.613801,-1.696239 4.905209,-3.444086 -0.722941,-1.783239 -5.220406,-1.625744 -6.940348,-1.8264 -0.196324,-0.02289 -0.682314,0.0085 -0.572183,-0.155631 1.608739,-2.397536 1.384256,-1.584284 4.628474,-3.615751 0.343544,-0.215121 1.235357,-0.833489 0.833375,-0.885544 -1.44721,-0.18741 -2.908153,-0.266216 -4.366711,-0.3125 -1.037712,-0.03292 -2.918817,0.556155 -3.079094,-0.469632 -0.210723,-1.348644 0.30051,-2.119089 1.565495,-2.9222556 0.512907,-0.3256548 1.176042,-0.3111182 1.774218,-0.4174578 0.361689,-0.064302 1.323865,0.077778 0.782753,0.1043614 C 20.019839,9.2410172 19.535589,6.8520489 19.363831,6.180631 19.280131,5.8534301 19.233328,5.5177043 19.1551,5.1891506 19.1461,5.1513075 19.093519,5.0470419 19.102909,5.0847844 19.484235,6.6158968 20.998841,8.1571526 22.597291,6.8019405 23.036734,6.4293626 23.404382,5.8640652 23.432225,5.288619 23.531095,3.2452738 21.753412,3.0506724 20.249058,2.6794698 19.758147,2.5583364 19.24072,2.6009996 18.73575,2.5751035 c -0.190445,-0.00977 -0.750699,-0.066797 -0.572084,0 0.926005,0.3463019 4.080465,-0.7169342 2.217693,-2.02776886 C 19.9985,0.27791663 19.454432,0.3803627 19.017381,0.21257256 c -0.0778,-0.0298704 -0.259009,-0.2088911 -0.200074,-0.14995735 0.360337,0.36033735 0.62807,0.62447668 0.982837,1.13530939 1.947722,2.8045526 -0.301034,1.3426352 -0.542611,4.7698448 -0.273683,3.8827066 0.253178,6.4014856 1.207869,9.9605946 0.218044,0.812868 0.472321,1.618151 0.782744,2.400416 0.175078,0.441199 0.60517,1.076375 0.674469,0.991478 0.254236,-0.311476 0.548652,-0.642779 0.61103,-1.03997 0.164637,-1.048352 0.09931,-2.123017 0.05219,-3.183169 -0.02272,-0.511377 -0.161078,-1.011262 -0.260921,-1.513307 -0.250496,-1.259572 -0.108779,2.029796 0.710638,2.419993 1.8151,0.864336 4.019596,-2.6343 2.817881,-3.391901 -0.614487,-0.387393 -1.36426,-0.556502 -2.087316,-0.626192 -0.747723,-0.07207 -1.497919,0.120228 -2.243873,0.208731 -1.002106,0.118894 -1.775072,0.494579 0.365278,0.987427 0.678879,0.156322 1.391159,0.07858 2.087325,0.104369 0.243352,0.009 0.558362,-0.172196 0.730555,0 0.132471,0.132468 -0.346371,0.143052 -0.521819,0.208732 -1.977361,0.740239 -4.011181,1.342257 -5.936465,2.208969 -1.36855,0.616084 -2.613075,1.477151 -3.914043,2.225465 -0.679852,0.391048 -1.281504,0.690261 -1.14596,0.830769 0.656223,0.680263 1.20843,1.001446 1.930773,1.461132"
       id="path79" />
  </g>
</svg>
