<?xml version="1.0" encoding="UTF-8" standalone="no"?>
<!-- Created with Inkscape (http://www.inkscape.org/) -->

<svg
   width="163.256"
   height="200"
   viewBox="0 0 43.194815 52.916668"
   version="1.1"
   id="svg5"
   inkscape:version="1.1.1 (c3084ef, 2021-09-22)"
   sodipodi:docname="6.svg"
   inkscape:export-filename="/home/irina/Documents/Kvissentali tänavaraamatukogu/Logo/6.png"
   inkscape:export-xdpi="300"
   inkscape:export-ydpi="300"
   xmlns:inkscape="http://www.inkscape.org/namespaces/inkscape"
   xmlns:sodipodi="http://sodipodi.sourceforge.net/DTD/sodipodi-0.dtd"
   xmlns="http://www.w3.org/2000/svg"
   xmlns:svg="http://www.w3.org/2000/svg">
  <sodipodi:namedview
     id="namedview7"
     pagecolor="#ffffff"
     bordercolor="#666666"
     borderopacity="1.0"
     inkscape:pageshadow="2"
     inkscape:pageopacity="0.0"
     inkscape:pagecheckerboard="true"
     inkscape:document-units="mm"
     showgrid="false"
     inkscape:zoom="1.0074671"
     inkscape:cx="88.340354"
     inkscape:cy="561.30865"
     inkscape:window-width="1312"
     inkscape:window-height="783"
     inkscape:window-x="0"
     inkscape:window-y="25"
     inkscape:window-maximized="0"
     inkscape:current-layer="layer1"
     inkscape:showpageshadow="false"
     units="px"
     width="163.256px" />
  <defs
     id="defs2">
    <inkscape:path-effect
       effect="powerstroke"
       id="path-effect405"
       is_visible="true"
       lpeversion="1"
       offset_points="0,4.99214"
       not_jump="false"
       sort_points="true"
       interpolator_type="CubicBezierJohan"
       interpolator_beta="0.2"
       start_linecap_type="zerowidth"
       linejoin_type="extrp_arc"
       miter_limit="4"
       scale_width="1"
       end_linecap_type="zerowidth" />
    <inkscape:path-effect
       effect="skeletal"
       id="path-effect401"
       is_visible="true"
       lpeversion="1"
       pattern="m 58.231126,93.290476 c 5.441159,18.594674 14.157593,29.487064 26.482008,45.353524 1.72052,2.215 4.209585,3.71769 6.146186,5.74647 8.196022,8.58616 0.990844,2.41329 8.296728,9.33465 0.926332,0.87758 1.132362,0.4913 1.796942,1.15588"
       copytype="single_stretched"
       prop_scale="1"
       scale_y_rel="false"
       spacing="0"
       normal_offset="0"
       tang_offset="0"
       prop_units="false"
       vertical_pattern="false"
       hide_knot="false"
       fuse_tolerance="0" />
    <inkscape:path-effect
       effect="skeletal"
       id="path-effect305"
       is_visible="true"
       lpeversion="1"
       pattern="M 0,4.9921382 C 0,2.2364779 2.2364779,0 4.9921382,0 c 2.7556604,0 4.9921383,2.2364779 4.9921383,4.9921382 0,2.7556604 -2.2364779,4.9921383 -4.9921383,4.9921383 C 2.2364779,9.9842765 0,7.7477986 0,4.9921382 Z"
       copytype="single_stretched"
       prop_scale="1"
       scale_y_rel="false"
       spacing="0"
       normal_offset="0"
       tang_offset="0"
       prop_units="false"
       vertical_pattern="false"
       hide_knot="false"
       fuse_tolerance="0" />
    <inkscape:path-effect
       effect="skeletal"
       id="path-effect301"
       is_visible="true"
       lpeversion="1"
       pattern="M 0,4.9921382 C 0,2.2364779 2.2364779,0 4.9921382,0 c 2.7556604,0 4.9921383,2.2364779 4.9921383,4.9921382 0,2.7556604 -2.2364779,4.9921383 -4.9921383,4.9921383 C 2.2364779,9.9842765 0,7.7477986 0,4.9921382 Z"
       copytype="single_stretched"
       prop_scale="1"
       scale_y_rel="false"
       spacing="0"
       normal_offset="0"
       tang_offset="0"
       prop_units="false"
       vertical_pattern="false"
       hide_knot="false"
       fuse_tolerance="0" />
    <inkscape:path-effect
       effect="skeletal"
       id="path-effect297"
       is_visible="true"
       lpeversion="1"
       pattern="M 0,4.9921382 C 0,2.2364779 2.2364779,0 4.9921382,0 c 2.7556604,0 4.9921383,2.2364779 4.9921383,4.9921382 0,2.7556604 -2.2364779,4.9921383 -4.9921383,4.9921383 C 2.2364779,9.9842765 0,7.7477986 0,4.9921382 Z"
       copytype="single_stretched"
       prop_scale="1"
       scale_y_rel="false"
       spacing="0"
       normal_offset="0"
       tang_offset="0"
       prop_units="false"
       vertical_pattern="false"
       hide_knot="false"
       fuse_tolerance="0" />
  </defs>
  <g
     inkscape:label="Layer 1"
     inkscape:groupmode="layer"
     id="layer1"
     style="display:inline">
    <path
       style="fill:none;stroke:#000000;stroke-width:0.247981px;stroke-linecap:butt;stroke-linejoin:miter;stroke-opacity:1"
       d="m 23.581026,52.911375 c 0.747014,-17.488289 0.486262,-35.119951 0.486262,-52.67826197 0,-0.61639386 -0.268679,1.56473467 -0.882098,1.62525307 -0.357376,0.035241 -1.71695,-0.5535042 -1.979441,-0.3202875 -0.118838,0.1055909 0.277216,1.4388709 0.152759,1.709484 -0.136702,0.2972405 -1.250655,-0.376607 -1.539749,-0.1600734 -2.433748,1.8228635 3.550686,4.679564 6.406853,3.6279567 C 27.662688,6.1863384 29.91962,4.2480615 30.834659,2.9168341 31.259094,2.2993624 29.667928,3.8628037 29.03442,4.262917 27.171816,5.4393102 27.508305,4.1810011 25.998219,4.6843435 25.636952,4.8047618 25.232531,5.4326838 24.961782,5.1649012 24.808537,5.0133287 24.690894,3.0371306 24.503147,3.1127575 c -1.455502,0.5863174 -5.06442,6.8194718 -6.855496,5.1952032 -0.260002,-0.2357847 0.836751,0.2764803 1.052974,0 0.782875,-1.0010519 -3.268995,-1.564013 -3.489276,0.2935383 -0.254834,2.148915 7.850552,6.998571 9.213947,6.541904 2.645164,-0.886004 5.317285,-4.558068 7.12846,-6.7232344 1.593894,-1.9054167 -2.188707,1.5826924 -3.203879,1.6566784 -0.112758,0.0084 -0.83547,-4.2216963 -1.988122,-3.1525436 -0.820837,0.7613681 -5.569302,7.9416916 -6.594497,8.3187206 -1.016781,0.373926 -4.807338,-3.772069 -5.07159,-2.376255 -0.125679,0.663865 0.760247,2.221261 0.405212,2.781495 -0.281747,0.444595 -2.769445,0.200975 -2.820795,0.522725 -0.149496,0.936719 -1.897503,0.984303 -1.85536,1.178961 0.121339,0.560496 0.679645,0.770469 0.933554,1.182926 1.563637,2.54004 0.339739,5.226667 5.263286,4.132555 0.909956,-0.202212 1.293853,-1.285967 2.403702,-1.127403 1.415888,0.202287 0.921428,2.754493 2.022962,3.079664 0.820578,0.242233 11.390541,-4.373607 12.035001,-4.878609 0.823826,-0.64557 1.358003,-1.630951 1.785275,-2.596622 0.02969,-0.06711 -4.064025,2.998732 -4.401138,2.311819 -1.00717,-2.052265 3.421895,-6.164267 -1.216206,-6.164267 -1.451535,0 -2.576571,-0.04696 -3.973857,0.886886 -5.349173,3.574898 -0.349475,10.344274 -3.801044,14.097532 -2.005985,2.181326 -9.348065,-7.152187 -12.4101945,-7.5916 -0.5865236,-0.08416 -1.2270874,0 -1.8239911,0 -1.4254401,0 2.6320668,1.236434 3.6400376,2.244337 0.235984,0.235963 -1.4283195,-0.13652 -1.6373564,0.402354 -0.2625724,0.676884 -0.8913718,3.440703 -1.1428321,3.740558 -0.3765948,0.449075 -1.3150017,-0.0583 -1.6202303,0.286528 -0.7091819,0.801079 1.004755,1.4102 0.5693137,2.076193 -0.090407,0.138273 -3.2351145,-0.0747 -2.4867367,0.821212 2.227336,2.666466 13.7159968,6.179816 17.3391828,6.561203 1.595535,0.167946 3.175312,-0.243124 4.759626,-0.243124 2.850052,0 6.423131,-3.916574 7.989031,-5.830454 1.252641,-1.531013 2.321905,-3.063609 2.319718,-3.056317 -0.234938,0.783066 -5.150437,0.526474 -6.295155,0.263031 -0.143197,-0.03299 -0.180176,-1.09534 -0.166202,-1.248356 0.246999,-2.70495 4.860676,-4.227377 4.51213,-4.645888 -0.946878,-1.136945 -2.691083,1.233584 -4.004804,1.914283 -1.51152,0.783187 -4.369837,1.864112 -5.740387,2.815883 -2.321977,1.612488 -4.233952,4.233497 -6.390404,6.069285 -1.098329,0.935004 -14.5854741,-0.532247 -14.9995094,0.08389 -0.5849284,0.870464 4.0307984,3.15739 3.9273604,3.532272 -0.1385645,0.50218 -6.2676017,0.113726 -5.9191178,1.153862 0.3072559,0.917083 2.1237901,1.400668 2.8250748,1.891583 0.3762696,0.263387 0.648117,0.548508 0.4861278,1.006366 -0.035147,0.09936 -0.6591326,0.662094 -0.6489053,0.663434 4.1686393,0.549212 8.8366845,0.129669 12.9213075,1.296709 7.02366,2.006752 9.974606,5.98348 16.60099,0.561995 1.753512,-1.434672 5.871573,-4.744243 4.92595,-7.551307 -0.0214,-0.06355 -0.639478,0.900147 -0.743479,1.017229 -0.0341,0.03843 -0.06581,-0.727205 -0.138982,-0.845215 -0.22349,-0.360458 -0.695372,0.150954 -0.953069,-0.03187 -0.317813,-0.225503 -0.210314,-0.760299 -0.210314,-1.149981 0,-3.115457 -0.280365,-1.304816 -2.646537,-1.180152 -0.233587,0.01228 -0.03354,-0.548574 -0.261019,-0.571115 -1.873488,-0.18567 -3.53335,2.466888 -3.79508,2.098529 -0.395309,-0.556354 2.123062,-2.961711 1.498302,-2.824787 -0.730937,0.160186 -5.841733,10.14284 -8.570601,11.271855 -2.021478,0.836339 -5.57361,-0.174263 -7.672187,-0.324177 -3.459129,-0.247107 -7.051569,0.396955 -10.4981944,0 -5.21256951,-0.600329 1.6648905,-0.84319 -3.3844893,-0.84319 -0.3986578,0 0.1121789,2.006218 -0.093022,2.361756 -0.2413557,0.418174 -1.20003252,0.497625 -1.32981114,0.866096 -0.76542741,2.173265 3.72852864,2.018028 4.48035654,2.431675 0.324402,0.178491 -0.2190173,1.390293 0.6483504,1.784558 2.1833489,0.992458 3.5297045,-0.885273 5.5027299,-1.134601 0.45918,-0.05802 3.554372,2.444544 5.121089,2.180623 2.053568,-0.34594 3.385095,-3.484201 5.477432,-3.716977 4.448655,-0.494917 4.420035,3.140978 7.323463,4.114766 0.155053,0.05202 3.165754,-2.229004 3.190535,-2.311604 0.232311,-0.774349 -0.366812,-2.056549 0.150627,-2.764372 0.172079,-0.235391 1.94055,-0.162088 1.995093,-0.162088 5.540232,0 3.937798,7.313095 8.817586,-1.785495 0.767852,-1.431711 -1.512293,0.45901 -2.278226,-0.436404 -0.543159,-0.634989 -0.382839,-2.043174 -1.068555,-2.33646 -0.187172,-0.08004 -4.75146,0.04386 -5.082015,0.197376 -0.564086,0.261897 -0.918394,1.028889 -1.539824,1.053567 -0.740865,0.02943 1.519271,-2.297779 0.813608,-2.070214 -1.014795,0.32726 -3.436372,1.649724 -3.334837,0.795549 0.160013,-1.34612 2.803933,-3.964215 1.45879,-3.796156 -0.970833,0.12129 -2.857564,1.718922 -1.985224,2.161924 0.574516,0.291767 1.389775,-1.570489 1.741242,-1.974529 0.330269,-0.379663 0.93745,0.624988 1.424701,0.499246 0.776351,-0.200347 3.993477,-3.398611 4.590853,-2.998179 1.151611,0.77196 -3.807838,2.747277 -6.146647,4.161985 -1.451208,0.877803 -2.834218,2.82071 -3.201234,0.167047 -0.539875,-3.9035 1.651024,-10.712934 0.826917,-13.598971 -0.139147,-0.487296 -1.376315,1.366759 -1.240902,0.878403 0.297472,-1.072808 0.8578,-2.054871 1.266563,-3.090404 0.111858,-0.283369 0.326149,-1.174144 0.243139,-0.881018 -1.506751,5.320711 1.689133,0.840866 2.520373,2.558757 0.05934,0.122639 0.40846,3.403831 1.458788,3.403831 0.991849,0 4.916056,-4.211443 4.444466,-1.531565 -0.288804,1.641168 -0.848931,3.230796 -1.458788,4.781575 -0.496571,1.262705 -2.582177,4.753963 -2.105772,3.483507 1.304656,-3.479187 4.042109,-8.011611 -2.751192,-2.417176 -2.031995,1.6734 0.107478,-2.951597 -0.125205,-3.905018 -0.04399,-0.180243 -2.049213,1.403031 -2.06967,1.295612 -0.503831,-2.645209 0.825519,-5.024061 0.668241,-7.564401 -0.0037,-0.06008 -1.049597,0.860314 -1.049597,-0.415559 0,-0.768754 -0.980895,1.572279 -0.885162,-3.831322 0.01594,-0.899707 0.968849,-3.154325 0.196624,-2.692372 -5.224174,3.125149 -2.837558,4.853528 -2.714127,-0.585033 0.02286,-1.006994 -2.669604,3.014393 -1.957371,2.302146 2.074715,-2.074769 6.436172,-7.7652165 1.423679,-9.018286 -0.98936,-0.2473224 -2.661888,5.430519 -2.664206,5.428804 -0.30321,-0.224238 -2.174234,-3.372584 -2.574188,-3.462269 -0.219318,-0.04921 0.886004,3.272138 0.325421,1.74838 -1.281569,-3.483526 0.289725,1.387031 0.647391,2.438976 0.318418,0.936522 1.444403,2.30866 0.64835,2.895821 -0.514842,0.379747 -1.304383,-0.508459 -1.827584,0.162089 -0.355465,0.45558 -0.780691,5.040547 -0.891474,5.024698 -0.810843,-0.115994 -1.422422,-3.227 -1.494035,-3.022266 -0.2365,0.676125 0.450858,3.086149 -0.603458,0.951668 -0.257826,-0.521975 -0.862718,-4.115179 -1.044052,-3.967964 -0.413442,0.335621 -0.224703,2.627814 -0.359855,3.033288 -0.201006,0.603029 -1.798216,-0.06795 -1.820629,0.567291 -0.05701,1.615937 0.982737,3.173202 1.564689,4.650472 0.01607,0.04077 -1.057599,-3.454959 -1.247635,-2.915082 -0.182387,0.518151 -0.756681,5.354611 -1.372148,5.825337 -0.801564,0.613067 -1.632535,-1.476801 -2.150586,-1.286511 -0.254083,0.09335 -0.2362583,2.072042 -0.2362583,2.648584 0,2.776471 -1.1185389,-6.098041 -1.1185389,1.740928 0,0.777161 0.7258449,-3.134258 1.6538982,-3.309018 2.112108,-0.397714 3.851575,4.942116 5.321637,1.620876 0.656057,-1.482191 1.15919,-3.145375 1.377753,-4.781575 0.02782,-0.20822 -0.100145,-0.814885 0,-0.630218 1.326793,2.446586 0.721063,2.190491 1.052706,6.880909 0.07173,1.014398 -0.17774,4.052082 0,3.050796 0.383246,-2.158972 0.746839,-6.799274 0.805871,-7.426278 0.0214,-0.227312 -0.116507,-0.881299 0,-0.684944 1.504293,2.535269 1.20492,5.862199 2.578093,8.31693 0.278466,0.497794 1.768637,-3.070647 1.814107,-3.188872 0.149314,-0.38822 -0.114563,-1.436209 0.243123,-1.223912 0.669597,0.397423 4.095792,7.29256 2.649333,2.47119 -0.990435,-3.301362 -5.817637,7.388506 -6.637194,7.306543 -2.489345,-0.248962 -3.522847,-5.480259 -3.808103,-4.942707 -0.163169,0.307494 1.390442,3.969464 -0.680486,2.776013 C 13.386334,36.252519 11.680255,35.137778 9.9341829,34.090023 9.410444,33.775743 8.2315882,32.671659 8.290757,33.27958 c 0.1263858,1.298565 2.929602,8.606083 -0.5602702,5.835357 -0.1833989,-0.145612 0.9010413,3.555207 0.6759506,3.972257 -0.012943,0.02399 -0.6255086,-0.740449 -0.8005537,-0.73446 -1.034854,0.03543 -0.8315516,3.019426 -1.4262012,3.075849 -1.0041242,0.09527 -0.4742125,-1.903908 -1.0761137,-2.304799 -0.1044887,-0.06964 2.099491,4.308684 3.325433,4.104362 2.2572342,-0.376194 1.8979362,-3.245295 3.3589202,-4.14293 0.457387,-0.281017 0.747252,0.866509 1.269432,0.991023 0.54309,0.129491 0.965459,-0.85215 1.56798,-0.307063 0.499961,0.4523 0.131802,1.259134 0.486262,1.539823 0.687358,0.54431 1.586397,-2.97486 1.586397,-2.098079 0,0.187563 -0.126111,0.950937 0.143669,1.053735 0.06807,0.02596 1.034331,-0.724974 1.231513,-0.788886 1.145278,-0.371236 -0.418724,1.370067 1.837964,0.263931 0.599409,-0.29381 4.704327,-3.848596 3.646964,-4.781566 -2.903785,-2.562159 -11.981142,5.532783 -13.372204,1.782946 -1.0391516,-2.801196 -0.8565063,-6.798524 2.107139,-8.42852 1.403414,-0.771875 2.752119,1.619761 3.1607,2.350265 4.112368,7.352423 2.971157,2.343433 0.891474,9.391239 -0.104303,0.353475 -0.218104,1.104374 -0.64835,1.377734 -0.948696,0.602757 -2.464197,-10.062781 -1.006433,-10.012441 1.294454,0.04471 1.792969,6.069023 1.792969,5.815562 0,-12.013794 -5.128752,3.942433 -5.174649,6.719683 -0.02351,1.423191 1.462307,-2.44281 2.223254,-3.645708 1.428165,-2.257637 1.966643,0.174038 4.01313,-1.872445 0.188898,-0.188903 1.629713,-2.764624 2.350262,-2.188176 0.795002,0.636001 0.899516,4.337485 1.332143,4.553597 0.898972,0.449057 1.556879,-1.016863 2.076713,-0.727861 0.608341,0.338217 -0.528957,1.72074 0.920907,0.504757 0.569128,-0.477315 1.898787,-3.094266 2.512351,-3.322787 0.370574,-0.13802 -0.186807,2.224655 0.379702,2.402348 1.032185,0.323756 1.986702,-2.313684 2.416394,-2.992208 0.95282,-1.504601 -2.227644,7.259166 -1.040447,7.294313 1.019264,0.03018 1.757924,-3.365639 1.935811,-4.256601 0.226397,-1.133898 -0.122788,2.406922 -0.7294,3.39131 -2.682578,4.353194 0.926662,-3.35367 1.426216,-4.329172 0.503405,-0.983019 0.08039,3.818331 0.972527,3.167306 1.384947,-1.010631 2.838791,-2.962863 4.295312,-3.890078 0.975831,-0.621221 0.853811,6.018036 0.853811,6.81113 0,0.251812 3.256134,-8.538385 1.283362,-2.424195 -0.359318,1.113625 -1.548846,-0.486332 -2.20287,-0.586946 -1.630253,-0.250809 -2.875425,0.939503 -4.295313,0.810434 -1.392084,-0.126539 -2.151113,-2.191279 -3.727998,-1.701911 -1.957403,0.607461 -3.350928,2.230371 -4.457402,3.890087 -0.108057,0.162089 -0.276928,0.675254 -0.324176,0.486266 -0.06534,-0.261353 0.450779,-4.13173 0.175789,-4.023937 -0.74572,0.29232 -1.511829,2.012179 -1.97962,1.362016 -0.364274,-0.506304 0.331213,-2.815161 -0.06591,-3.090442 -0.367605,-0.25482 -1.679174,2.695484 -2.065296,3.596775 -0.304669,0.71115 0.614939,-1.093662 0.630681,-1.578916 0.06049,-1.864712 -1.380954,3.468605 -1.970935,5.238551 -0.0616,0.184789 1.958573,-6.821759 1.053559,-7.778047 -0.899342,-0.950309 -1.030623,2.407203 -1.468162,3.640272 -1.279761,3.606625 2.219128,-3.375339 -4.23884,2.055237 -0.630191,0.529932 -1.231454,2.147996 -1.864001,1.620876 -1.708327,-1.423613 0.524365,-4.468579 1.350785,-6.533057 0.534703,-1.335736 2.603931,-5.127281 1.865774,-3.892281 -5.7838741,9.676932 1.899955,-2.098585 0.6354,-2.160725 -1.401754,-0.06889 -3.865173,3.028312 -3.880246,2.802209 C 11.496564,37.50509 16.514981,32.310299 15.755861,27.376009 15.261073,24.1599 12.052117,26.076657 10.278595,27.061945 9.3440613,27.581136 8.2939489,30.252935 7.9311719,29.2473 7.2393376,27.329502 10.296011,21.259101 7.3483383,25.106582 c -0.07887,0.102938 3.6340407,-4.893071 4.5732167,-4.000862 1.49309,1.418429 1.280936,3.227234 2.269227,4.688074 0.590392,0.872686 1.767525,-0.877793 2.526697,0.406431 1.006955,1.703373 1.053576,3.850292 1.053576,5.754096 0,3.06926 3.622718,-10.343468 3.800533,-6.964643 0.22479,4.2714 -0.706901,8.525535 -1.105482,12.784235 -0.03007,0.321291 -0.308621,1.19347 -0.08105,0.964687 1.439645,-1.447353 5.083937,-10.999293 7.237093,-12.467875 0.555809,-0.379091 -0.381564,9.121394 -0.427445,9.58674 -0.0693,0.70293 -0.882482,2.405216 -0.243124,2.105005 1.768156,-0.830247 2.136394,-5.800453 3.15011,-7.439053 0.465972,-0.753205 -0.153024,1.767922 -0.319745,2.637786 -0.462769,2.414514 -1.539824,4.754404 -1.539824,7.212875 0,1.64292 1.7522,-2.892288 1.960931,-4.521899 0.214723,-1.67639 1.691785,0.04414 2.153276,-0.489434 0.631666,-0.730373 -0.267874,-2.176451 0.292189,-3.0237 1.394472,-2.109522 4.869165,5.667588 4.769829,5.169626 -1.945795,-9.753975 -4.705934,-6.784682 -6.585542,-13.218709 -0.456658,-1.56316 -2.110871,-6.007764 -1.05137,-4.77104 1.130389,1.319465 1.496856,4.083912 1.880137,5.78736 0.119929,0.533016 -0.0012,2.109541 0.243123,1.620876 0.864231,-1.728622 -0.82896,-4.27617 -0.889851,-6.154463 -0.03198,-0.986449 1.367503,0.879228 1.576091,0.816001 0.308717,-0.09354 -0.197238,-1.549757 -0.247903,-1.67325 -0.08084,-0.197048 -0.536672,-0.677053 -0.178869,-0.772156 0.262211,-0.06973 1.05723,0.03046 0.809898,-0.08107 -0.672317,-0.303164 -3.313391,-1.532044 -4.085121,-1.431945 -0.30607,0.03974 -0.09114,0.750243 -0.18991,0.785587 -2.06735,0.739811 -4.333011,-6.969236 -4.529935,-4.782353 -0.673421,7.478474 -0.328782,4.534768 -0.324836,11.037599 7.44e-4,1.154705 -0.243139,4.610301 -0.243139,3.455586 0,-0.871411 0.0084,-0.345481 -0.324174,-2.307189 -0.583062,-3.439044 2.28639,2.366358 2.515295,1.078769 0.514062,-2.891594 -0.144187,-7.495372 -2.115673,-9.679012 -0.562296,-0.622796 0.982959,1.360591 1.498104,2.02292 0.463978,0.596543 1.058802,1.759036 1.577653,2.239613 0.06575,0.06092 1.56587,1.09861 1.502628,1.240904 -0.946492,2.129589 -5.402105,0.909876 -7.131841,0.486266 -0.824893,-0.202016 -3.236608,-0.889913 -2.387337,-0.889913 0.749122,0 2.555157,0.763346 2.245908,0.08107 -0.250711,-0.553158 -3.908913,-4.013421 -3.290593,-2.632988 0.323775,0.722847 -0.872453,-1.335698 -1.432513,-1.895763 -0.240274,-0.240274 0.517863,-0.238118 -0.782404,-1.844327 -0.466837,-0.576682 -2.254291,-1.158126 -1.613935,-1.532886 0.609156,-0.356503 2.585983,0.547759 3.125562,-0.223067 1.327251,-1.896072 0.198645,-4.7248516 0.41086,-4.729641 0.336747,-0.0075 1.809055,1.910656 2.25174,1.810426 0.500325,-0.113276 -0.410631,-1.875537 -0.02366,-1.5387913 0.634702,0.5523233 1.003224,2.9610543 1.289489,2.1698813 0.255917,-0.707298 0.268041,-2.9438177 0.295601,-2.9059152 0.630612,0.8671837 1.082445,1.8588162 1.742083,2.7041342 0.244979,0.313933 0.02219,-0.797593 0.0752,-1.192252 C 23.495104,7.119177 24.703759,9.931845 23.197249,7.3348577 22.68752,6.4561642 22.199874,5.5645553 21.677256,4.6934723 21.596287,4.5585172 21.385362,4.1390496 21.434358,4.2886071 c 2.602159,7.9431259 9.7349,13.3834579 9.7349,22.7878279 0,1.787978 0.249204,-3.575649 0.162088,-5.36151 -0.02096,-0.429524 -0.38673,-1.646547 -0.162088,-1.279866 1.316104,2.148315 1.753296,3.61312 2.013827,6.771851 0.184266,2.234064 -0.06681,4.495712 -0.393524,6.713422 -0.758354,5.1476 -6.571377,-2.807439 -8.015259,-1.373639 -1.108334,1.100598 -0.549053,4.804903 -3.034428,3.148009"
       id="path1788" />
  </g>
</svg>
