<?xml version="1.0" encoding="UTF-8" standalone="no"?>
<!-- Created with Inkscape (http://www.inkscape.org/) -->

<svg
   width="137"
   height="200"
   viewBox="0 0 36.247916 52.916668"
   version="1.1"
   id="svg5"
   inkscape:version="1.1.1 (c3084ef, 2021-09-22)"
   sodipodi:docname="4.svg"
   inkscape:export-filename="/home/irina/Documents/Kvissentali tänavaraamatukogu/Logo/4.png"
   inkscape:export-xdpi="300"
   inkscape:export-ydpi="300"
   xmlns:inkscape="http://www.inkscape.org/namespaces/inkscape"
   xmlns:sodipodi="http://sodipodi.sourceforge.net/DTD/sodipodi-0.dtd"
   xmlns="http://www.w3.org/2000/svg"
   xmlns:svg="http://www.w3.org/2000/svg">
  <sodipodi:namedview
     id="namedview7"
     pagecolor="#ffffff"
     bordercolor="#666666"
     borderopacity="1.0"
     inkscape:pageshadow="2"
     inkscape:pageopacity="0.0"
     inkscape:pagecheckerboard="true"
     inkscape:document-units="mm"
     showgrid="false"
     inkscape:zoom="0.66245342"
     inkscape:cx="87.553326"
     inkscape:cy="560.79415"
     inkscape:window-width="1312"
     inkscape:window-height="783"
     inkscape:window-x="0"
     inkscape:window-y="25"
     inkscape:window-maximized="0"
     inkscape:current-layer="layer1"
     units="px"
     inkscape:showpageshadow="false"
     width="137px" />
  <defs
     id="defs2">
    <inkscape:path-effect
       effect="powerstroke"
       id="path-effect405"
       is_visible="true"
       lpeversion="1"
       offset_points="0,4.99214"
       not_jump="false"
       sort_points="true"
       interpolator_type="CubicBezierJohan"
       interpolator_beta="0.2"
       start_linecap_type="zerowidth"
       linejoin_type="extrp_arc"
       miter_limit="4"
       scale_width="1"
       end_linecap_type="zerowidth" />
    <inkscape:path-effect
       effect="skeletal"
       id="path-effect401"
       is_visible="true"
       lpeversion="1"
       pattern="m 58.231126,93.290476 c 5.441159,18.594674 14.157593,29.487064 26.482008,45.353524 1.72052,2.215 4.209585,3.71769 6.146186,5.74647 8.196022,8.58616 0.990844,2.41329 8.296728,9.33465 0.926332,0.87758 1.132362,0.4913 1.796942,1.15588"
       copytype="single_stretched"
       prop_scale="1"
       scale_y_rel="false"
       spacing="0"
       normal_offset="0"
       tang_offset="0"
       prop_units="false"
       vertical_pattern="false"
       hide_knot="false"
       fuse_tolerance="0" />
    <inkscape:path-effect
       effect="skeletal"
       id="path-effect305"
       is_visible="true"
       lpeversion="1"
       pattern="M 0,4.9921382 C 0,2.2364779 2.2364779,0 4.9921382,0 c 2.7556604,0 4.9921383,2.2364779 4.9921383,4.9921382 0,2.7556604 -2.2364779,4.9921383 -4.9921383,4.9921383 C 2.2364779,9.9842765 0,7.7477986 0,4.9921382 Z"
       copytype="single_stretched"
       prop_scale="1"
       scale_y_rel="false"
       spacing="0"
       normal_offset="0"
       tang_offset="0"
       prop_units="false"
       vertical_pattern="false"
       hide_knot="false"
       fuse_tolerance="0" />
    <inkscape:path-effect
       effect="skeletal"
       id="path-effect301"
       is_visible="true"
       lpeversion="1"
       pattern="M 0,4.9921382 C 0,2.2364779 2.2364779,0 4.9921382,0 c 2.7556604,0 4.9921383,2.2364779 4.9921383,4.9921382 0,2.7556604 -2.2364779,4.9921383 -4.9921383,4.9921383 C 2.2364779,9.9842765 0,7.7477986 0,4.9921382 Z"
       copytype="single_stretched"
       prop_scale="1"
       scale_y_rel="false"
       spacing="0"
       normal_offset="0"
       tang_offset="0"
       prop_units="false"
       vertical_pattern="false"
       hide_knot="false"
       fuse_tolerance="0" />
    <inkscape:path-effect
       effect="skeletal"
       id="path-effect297"
       is_visible="true"
       lpeversion="1"
       pattern="M 0,4.9921382 C 0,2.2364779 2.2364779,0 4.9921382,0 c 2.7556604,0 4.9921383,2.2364779 4.9921383,4.9921382 0,2.7556604 -2.2364779,4.9921383 -4.9921383,4.9921383 C 2.2364779,9.9842765 0,7.7477986 0,4.9921382 Z"
       copytype="single_stretched"
       prop_scale="1"
       scale_y_rel="false"
       spacing="0"
       normal_offset="0"
       tang_offset="0"
       prop_units="false"
       vertical_pattern="false"
       hide_knot="false"
       fuse_tolerance="0" />
  </defs>
  <g
     inkscape:label="Layer 1"
     inkscape:groupmode="layer"
     id="layer1"
     style="display:inline">
    <path
       style="fill:none;stroke:#000000;stroke-width:0.238246px;stroke-linecap:butt;stroke-linejoin:miter;stroke-opacity:1"
       d="M 20.153213,52.542915 C 19.939968,35.054377 19.610178,17.62381 19.610178,0.11952311 c 0,-0.04529298 -0.92232,1.92571709 -0.92232,3.81175099 0,0.3573823 0.142419,-0.7025725 0.259025,-1.0404059 0.04074,-0.1180048 2.057487,0 2.382769,0 0.34336,0 -2.635895,-1.4316183 -4.513211,-0.2350462 -0.259733,0.165549 2.649711,1.9412859 3.43026,1.9412859 1.221096,0 -4.884389,0 -3.66329,0 0.460202,0 5.696635,0.1380851 5.568004,0.3118102 -2.029257,2.7406666 -5.551549,-0.3094149 -6.43724,0.9257778 -0.281387,0.3924281 2.578881,3.3258013 2.431283,2.7631419 -0.194731,-0.7423276 -2.717092,-2.4473427 -1.681285,-1.779699 0.06855,0.044213 2.102396,1.1872164 2.216483,1.0079174 0.299722,-0.471047 -1.695787,-0.9620661 -1.183859,-1.1848932 0.448782,-0.1953361 2.684324,1.0251972 3.030607,0.518231 0.429617,-0.6289691 -5.06729,-2.6531061 -5.094323,-2.3034677 -0.01265,0.1635679 3.627536,2.1612225 4.271408,1.8748772 0.872339,-0.3879528 -1.719571,-1.0254493 -2.674287,-1.0254493 -0.920941,0 1.140122,2.0052184 1.366053,2.501019 0.263394,0.5779942 -2.385611,-0.7993716 -1.849534,-0.4586567 1.235531,0.7852524 2.812442,1.0854107 4.225449,1.4044785 0.414525,0.093602 1.614712,0.2120756 1.220086,0.3697636 -1.412611,0.5644334 -3.53573,-0.5450375 -5.149329,-0.5450375 -1.416313,0 1.17018,1.0505449 1.836199,0.7778776 2.374651,-0.9721781 -4.396018,-1.8182654 -4.709902,-1.8182654 -0.471934,0 1.790191,0.1366893 1.40875,-0.1412097 -0.29445,-0.2145158 0.659131,2.0074335 0.692624,2.3054394 0.03645,0.324354 -2.344201,-1.0851853 -2.680405,-2.5323455 -0.233814,-1.0064316 2.050668,0.5642263 2.849943,1.2189935 0.408485,0.3346367 -1.265123,-0.2053582 -1.567762,0.2273653 -0.519844,0.7432821 0.341622,2.2652167 0.09129,2.6001687 -0.149564,0.200117 -0.419694,-0.290155 -0.562897,-0.494883 -0.167861,-0.239971 1.984674,1.072084 2.744362,0.926985 0.638732,-0.121994 -1.783376,-1.875004 -1.424842,-1.332505 0.481628,0.728766 2.794234,1.586866 1.938693,1.763238 -0.985883,0.203233 -3.740082,-2.261965 -3.655149,-2.205354 0.351941,0.234632 0.696857,0.482222 1.067408,0.686203 2.429433,1.33734 3.987018,1.977916 6.618265,3.192335 0.650054,0.300023 2.507822,1.382643 1.885373,1.028889 -0.03113,-0.01774 -9.832076,-5.4239467 -11.585818,-5.8713027 -0.958956,-0.2446091 1.475978,1.3203307 2.175807,2.0200937 1.369585,1.369469 0.441722,1.626955 3.330091,1.897821 0.37675,0.0353 -0.05961,-2.074571 -0.243697,-2.442741 -0.149585,-0.299168 -0.868232,-0.76492 -0.543165,-0.8437463 0.488952,-0.1185542 3.309769,0.7880353 3.673494,1.3835343 0.01291,0.02116 -2.123747,0.235109 -1.326274,-1.3284174 1.814816,-3.5581372 2.639319,-1.4724359 3.331721,-3.5335637 0.22219,-0.6614126 -1.691048,2.6903309 -1.307322,3.6461841 0.198214,0.493747 1.213975,-1.1840469 1.43454,-0.6998623 0.245479,0.5388694 -3.35753,3.8999053 -0.513012,1.0553803 0.157664,-0.15767 1.222347,-1.4375612 1.479254,-1.4792613 0.353839,-0.057449 -2.808537,3.3974863 -2.74439,3.5695913 0.317367,0.851454 3.271962,-1.523888 2.876603,-1.811179 -0.559776,-0.406773 -5.062178,2.286044 -4.537779,2.467612 1.874321,0.648986 4.388615,-1.656256 4.138719,-1.196455 -0.725628,1.335125 -3.699598,2.079632 -3.092572,2.496859 1.565914,1.076298 5.604741,-3.519796 4.180982,-1.305078 -0.319534,0.497044 -1.206032,1.170522 -1.321167,1.784076 -0.0425,0.226483 1.819138,-2.171497 1.733979,-2.148337 -1.099316,0.299068 -2.36636,2.004687 -3.279889,2.781187 -0.0866,0.07357 -1.146147,0.809033 -1.087471,0.931747 0.491375,1.027683 3.193248,-2.584689 3.137114,-1.711264 -0.06153,0.957312 -1.647902,1.949922 -2.289876,2.563034 -0.05242,0.05007 1.546096,0.06573 1.561442,0.0624 0.174291,-0.03737 1.093434,-0.627744 1.148106,-0.544002 0.191453,0.293243 -1.351418,2.035303 -1.419371,2.07007 -2.247087,1.149613 -14.7447106,-7.909974 -5.389491,-2.05189 0.958682,0.600308 2.604549,1.435887 3.565083,2.397152 1.274189,1.275173 -2.383831,-2.721919 -3.756633,-3.890253 -0.331983,-0.282545 -4.928751,-3.794687 -5.251115,-3.337606 -0.199781,0.283265 1.130275,1.340969 1.431294,1.591818 1.267508,1.056254 -3.4213024,-2.07567 0.976865,-0.624007 0.01313,0.0045 3.315989,1.941628 2.839912,0.997922 -0.0294,-0.05826 -1.10241,-1.932642 -1.475721,-1.865026 -0.875358,0.158561 1.831746,2.791956 1.000899,2.474014 -1.104008,-0.422467 -2.492745,-2.291186 -2.467872,-2.239968 1.046726,2.155298 4.296534,2.197115 5.784222,3.684805 0.02239,0.02242 -0.746809,-1.58095 -2.269871,-2.566608 -0.6206,-0.401622 -2.291547,-1.23269 -1.611801,-1.523186 1.398945,-0.597867 4.776509,2.970661 4.196123,0.981876 -0.278457,-0.954178 0.810719,4.598975 -0.546125,5.820139 -1.440894,1.296802 -4.307871,-2.750617 -4.270974,-2.713734 3.730428,3.729314 -1.156546,-0.814553 -1.971299,-0.369394 -0.199783,0.109153 3.061153,2.919623 2.60222,2.646821 -0.180879,-0.107515 -4.185282,-2.978811 -4.387308,-2.653854 -0.648271,1.042729 7.2815,2.961999 7.117756,3.176011 -0.297777,0.389186 -5.858417,-2.150724 -5.849258,-1.245008 0.02439,2.413026 3.891069,4.484248 3.266336,4.503644 -1.504675,0.04673 -2.749636,-1.535288 -4.154481,-1.535288 -0.07341,0 2.944464,1.344688 2.948021,1.308427 0.09009,-0.918295 -1.451639,-1.139438 -2.18011,-1.705754 -0.857151,-0.666365 -1.835546,-1.165785 -2.8808879,-1.479387 -0.2110977,-0.0633 -0.7866703,-0.08843 -0.6192294,-0.231751 0.7819419,-0.669219 4.2076243,0.764236 4.6162543,0.09602 0.521541,-0.852868 -5.3007006,-6.036555 -0.658418,-1.394267 0.170567,0.170564 -0.341133,-0.34113 -0.5117,-0.511694 -0.345947,-0.243583 -1.469446,-0.902888 0.0075,-0.07213 1.639164,0.922041 3.386643,1.701233 5.061026,2.569436 0.80483,0.417326 3.225246,1.64617 2.382727,1.311407 -1.125566,-0.447239 -2.131063,-1.730552 -3.455563,-1.592989 -1.212993,0.125983 -0.493428,5.469294 -2.577882,1.654671 -0.295094,-0.540031 1.231636,-0.08518 1.845667,-0.04421 1.807176,0.120652 0.936714,-1.578879 0.941186,-1.575952 0.981551,0.640648 1.48461,1.875282 2.93031,1.121005 2.430606,-1.26814 3.291402,-2.134091 4.671708,-4.204539 0.321198,-0.481798 0.845706,-2.096435 0.845706,-1.517387 0,2.828317 -1.672231,2.188137 -3.817788,3.839233 -0.52042,0.400487 1.365542,0.10973 1.963361,-0.16201 0.172254,-0.07834 1.490159,-1.155259 1.658118,-1.006108 0.446617,0.396625 -5.309289,7.544721 -0.853028,2.278724 0.253679,-0.29978 -4.308443,0.03926 -3.883922,-0.06862 1.179243,-0.299645 2.209859,-0.476324 3.256494,-1.057794 0.215141,-0.119527 0.917969,-0.3062 0.671856,-0.3062 -0.516034,0 -3.830782,0.337815 -3.013823,0.831959 0.210462,0.127297 4.221975,-0.247842 4.227023,-0.233588 0.60104,1.697199 -5.359648,3.855 -5.203151,3.90874 2.475353,0.849905 7.742087,-2.756299 2.746901,-1.634204 -0.352044,0.07906 2.830684,0.364974 2.988446,-0.378768 0.146064,-0.688579 -2.792516,-0.31145 -2.088613,-0.31145 4.301264,0 -0.76836,-1.800914 -2.490618,-0.224943 -0.175932,0.160984 2.25088,0.439531 4.606813,0.439531 1.133729,0 -3.567079,-1.078702 -3.400915,0.04277 0.09051,0.610879 1.504502,1.094226 2.014165,1.349523 1.11844,0.560256 -4.99603,-0.23926 -3.745114,-0.23926 1.263823,0 2.567149,-0.471416 3.685662,-0.846781 0.03681,-0.01234 0.841439,0.0045 0.802638,-0.05007 -0.808201,-1.140627 -7.207238,1.212969 -6.849175,0.708056 0.4499,-0.634426 3.162151,-1.139384 3.197735,-1.743185 0.06806,-1.154845 -3.053227,-0.327001 -3.381216,0.78238 -0.520758,1.761411 3.850127,2.317569 3.428442,2.247279 -0.18461,-0.0308 -5.005318,-1.987993 -5.676316,-1.261468 -0.746605,0.808403 2.577787,2.888864 2.100349,2.162852 -0.158743,-0.241394 -2.0232,-1.638579 -1.373096,-0.508299 0.821848,1.428881 -5.977082,-2.205993 -4.840422,-1.012194 0.496342,0.521292 2.251261,1.645099 1.907067,1.012933 -0.875182,-1.607406 -3.8425842,-2.373848 -3.7901776,-2.372425 0.9155576,0.02485 2.7133946,0.801281 3.4619136,1.386145 0.570601,0.445853 -2.499331,-0.879431 -2.159063,-0.240232 0.517672,0.972475 3.180225,1.811151 2.257847,2.413557 -0.258776,0.169016 -1.929995,-0.855479 -2.574073,-0.508407 -0.549255,0.295971 1.963727,1.851655 1.990003,1.799626 0.378654,-0.749792 -3.2444343,-2.155162 -3.8693294,-2.363456 -2.268322,-0.756096 3.6114164,1.123077 3.5558304,0.908552 -0.284288,-1.097198 -4.9896225,-4.416543 -5.3226907,-3.961794 -0.6286044,0.858252 3.6814397,2.468864 3.7262487,2.400564 0.363434,-0.553916 -1.09174,-1.461225 -0.929075,-1.849205 0.21758,-0.518952 1.023635,0.473433 1.504643,0.765478 1.84248,1.118638 3.698756,1.892679 5.683909,2.725161 0.996382,0.417839 1.977757,0.870877 2.958757,1.323644 0.156792,0.0724 0.630451,0.188079 0.463361,0.231688 -2.181212,0.569323 -4.679572,-2.850901 -6.265118,-2.406714 -0.655164,0.183549 0.897587,1.643937 1.517982,1.364579 0.836461,-0.376643 -0.831515,-1.926554 -1.722058,-2.146689 -0.0093,-0.0027 0.313495,1.420885 0.464429,1.857543 0.06262,0.181154 -0.718474,-0.389564 -0.780137,-0.274378 -0.220785,0.412418 -0.23151,0.59721 -0.0737,1.133783 0.197577,0.671768 1.762772,1.242226 1.233337,1.700495 -0.457739,0.39621 -1.393376,-0.372366 -1.542259,-0.959166 -0.515364,-2.03126 5.000975,1.525779 5.384412,0.622891 0.854125,-2.011234 -2.4892,-3.328161 -2.567955,-4.89003 -0.04677,-0.927525 3.193415,1.8924 2.428021,1.366416 -0.748392,-0.514296 -1.277453,-1.321087 -2.017975,-1.811737 -1.021987,-0.677135 0.924386,2.392478 1.879052,3.161621 0.435146,0.350593 0.756388,-0.684636 1.117838,-0.721464 0.762534,-0.07771 1.317497,0.430157 2.013878,0.62027 1.869997,0.510523 3.432215,-1.308462 4.679675,-2.358377 1.217048,-1.024315 -6.064172,1.91619 -4.576086,1.354017 2.963133,-1.119412 5.742914,-0.351836 1.332278,-0.145334 -0.514771,0.02413 3.251004,-1.372638 3.090277,-1.268086 -1.414396,0.920078 -3.448258,1.896578 -3.417052,1.913399 0.842303,0.454109 1.943312,-0.441765 2.758403,-0.622892 0.869916,-0.193319 -1.47631,0.844287 0.893613,0.844287 0.218841,0 1.441745,-0.145946 1.694116,0 2.582042,1.493272 -3.821018,2.316686 0.940897,2.316686 0.162523,0 -0.322756,0.04025 -0.482471,0.07033 -1.062282,0.200018 -1.902405,0.421783 -2.843031,0.391825 -1.066401,-0.03395 -4.231895,0.856253 -5.204265,0.311927 -0.619493,-0.346793 2.426818,-0.974898 1.755529,-1.206 -0.741409,-0.255243 -3.136457,0 -2.352342,0 4.837871,0 2.828034,-0.634642 -0.400474,-0.634642 -1.200479,0 2.601623,-0.161362 3.459487,-1.001128 0.504705,-0.494063 -8.12277,-0.02971 0.26269,-0.02971 1.007329,0 1.415648,0.848771 1.732466,0.87691 0.89069,0.07915 3.064755,-0.451633 3.627004,0.545038 1.329428,2.356621 -5.705672,0.534484 -4.818785,0.534484 2.61101,0 -4.937149,2.136424 -4.832284,1.767083 0.01406,-0.04943 2.690553,-0.818641 2.560881,-0.901303 -0.717097,-0.457135 -3.638905,-2.052817 -4.879797,-1.316288 -0.912439,0.54158 3.367317,1.930256 2.332743,2.165878 -2.046489,0.466077 -4.948143,-3.477285 -4.943492,-2.625093 0.0121,2.219149 2.34597,3.477168 1.635096,3.541785 -0.941674,0.08563 -4.82384,-2.421337 -6.1697722,-2.767437 -0.7367274,-0.189447 -2.9497559,-0.684437 -2.2486386,-0.389321 0.4631933,0.194966 2.4225771,0.816246 2.6582951,0.497574 0.3691337,-0.499042 -3.680446,-2.118901 -3.5786106,-1.949075 0.2532436,0.422341 4.6792943,2.449108 5.0840763,1.866854 0.503309,-0.723967 -2.7217205,-1.553261 -2.7450685,-1.695479 -0.07644,-0.465635 0.9425358,-0.09077 1.4139005,-0.06916 0.413666,0.019 0.98336,0.217181 2.568806,3.081093 0.100537,0.181613 -4.8190139,-0.926966 -5.2520256,-0.788476 -0.9489834,0.303517 1.8955073,0.616417 2.8298226,0.962462 0.403569,0.149467 1.359614,0.977699 1.138781,0.608313 -0.28654,-0.479286 -1.055395,-0.598371 -1.463089,-1.006233 -0.036333,-0.03638 3.709395,1.527742 0.379417,0.859837 -0.5459511,-0.109496 -1.9808864,-0.551485 -1.6679911,-0.09089 0.5652452,0.832067 2.6946801,1.497144 2.0192601,2.242552 -0.550675,0.607736 -4.4837205,-0.5528 -4.4624211,-0.541373 0.6183932,0.331701 3.112382,1.199228 3.7274471,0.757284 0.433963,-0.31181 -3.478125,-2.483118 -3.1519931,-2.493203 0.7599946,-0.0235 2.9129705,0.868059 2.1988428,0.606962 -0.1329363,-0.04863 -2.7399534,-0.638973 -2.8085043,-0.364802 -0.2157648,0.862971 2.2451028,2.205048 2.1765573,2.224272 -1.5927308,0.446681 -3.3243994,-0.322021 -3.1803704,-0.233596 1.7859743,1.096477 3.4235595,1.153332 3.2417996,1.153332 -0.2371551,0 -1.9318122,-0.24614 -1.1486237,-0.0045 0.9686053,0.298825 1.9598359,0.523516 2.9214748,0.844061 0.348862,0.116294 0.997373,0.832022 1.000738,0.464303 0.01789,-1.955189 -6.4239539,-5.101548 3.337553,-1.377618 1.226659,0.467967 -4.364254,-2.893222 -3.183618,-2.318974 1.253993,0.609943 2.294203,1.793746 3.517165,2.518461 0.474997,0.281483 1.961588,1.0145 1.466279,0.77053 -0.792417,-0.390321 -3.264035,-2.598331 -4.634006,-2.313229 -0.579785,0.120652 7.096079,4.129387 8.142093,4.565226 0.297269,0.123867 1.225642,0.395049 0.915003,0.310109 -2.063324,-0.564181 -2.075779,-0.830149 -4.671709,-2.647298 -0.754248,-0.527974 -2.395462,-2.741099 -1.99159,-1.913732 0.480773,0.984901 1.803502,1.671275 2.644987,2.301243 0.116631,0.08734 0.355245,0.447257 0.309066,0.309073 -1.060054,-3.171985 -6.446981,-7.950593 0.500888,-1.002722 1.35353,1.353531 -5.587208,-5.815744 -4.039473,-4.268012 1.72837,1.728373 4.22532,3.156659 6.541799,4.128081 0.24408,0.102355 0.778603,0.420397 0.778603,0.155725 0,-1.81433 -3.342513,-4.432598 -4.671708,-5.761789 -0.511671,-0.511676 -0.09935,0.242313 0.05266,0.543606 0.156966,0.311135 -0.669102,-1.033437 -0.775171,-0.701483 -0.159618,0.499537 1.966806,2.33755 2.265383,3.008985 0.422862,0.950927 -2.418966,-1.079198 -2.459529,-1.021101 -0.401357,0.574771 0.730914,1.169163 0.575021,1.6554 -0.0895,0.279133 -4.742971,1.557791 -0.05846,1.16738 0.131885,-0.01099 0.262065,-0.04151 0.389317,-0.07789 0.515488,-0.147279 -2.485059,-0.314863 -3.020665,-0.448616 -0.216908,-0.05412 1.114141,0.451363 1.095455,0.360497 -0.09079,-0.441422 -5.3982865,-0.272325 -5.5670528,0.497197 -0.151546,0.690992 3.0519508,1.290913 3.6670558,1.390467 0.383952,0.06213 -1.226651,0.116348 -1.137021,-0.262141 0.245858,-1.038182 3.03972,-0.345991 3.189813,-1.865764 0.0279,-0.282582 -0.65678,-1.485151 -0.444615,-1.385398 3.016069,1.418039 8.199065,4.065634 8.297398,3.91931 0.603053,-0.897314 -2.975474,1.908492 -3.133028,0.838893 -0.03466,-0.235281 3.361569,-2.711645 4.258576,-3.239304 0.771717,-0.453947 1.833978,-2.140134 2.305103,-1.378779 0.474237,0.766379 -1.948801,2.308627 -1.065012,2.485144 0.386247,0.07717 2.712734,0.106497 2.197573,0.482789 -1.67685,1.224837 -2.942789,1.546156 -2.85856,1.55453 1.144631,0.113863 4.56016,-0.53009 3.40988,-0.53009 -1.553491,0 -3.106986,0 -4.660477,0 -0.469602,0 -1.86965,0.09028 -1.408808,0 4.551418,-0.891632 5.993938,-2.360439 9.911581,-2.360439 2.827076,0 -3.789629,1.152485 -5.277441,1.204973 -0.622299,0.02197 0.173005,-4.441332 0.08422,-4.523706 -0.489893,-0.454488 -0.09959,2.201455 -0.997145,3.099282 -0.675477,0.675685 1.368182,-0.973835 1.381164,-2.204165 0.01442,-1.365408 -9.265177,-0.185242 -7.433043,-0.0172 1.725682,0.158256 6.58848,-1.814771 6.65923,-1.710661 0.485664,0.714675 -6.071105,2.015547 -5.331035,3.469434 0.528392,1.038046 4.851711,-0.933567 4.833061,-0.889886 -0.458061,1.073012 -2.400889,1.696452 -3.381314,2.05767 -0.231039,0.08509 -0.757598,0.473145 -0.700752,0.233579 0.317343,-1.337377 3.439069,-2.740424 4.913513,-2.740424 0.404659,0 2.864918,-0.0561 2.764382,0.188862 -0.480559,1.170972 -1.18739,2.412297 -2.097968,3.326513 -0.147779,0.148368 -0.7092,0.380632 -0.499792,0.380632 0.558015,0 0.922829,-0.6039 0.585875,-0.993861 -0.129684,-0.150079 -0.964316,-0.49237 -0.883091,-0.592969 0.793156,-0.982363 2.409701,-1.309679 3.096093,-2.233484 0.712822,-0.959383 -2.123481,1.893462 -4.430306,0.536339 -0.658217,-0.387242 1.21753,-2.815981 1.975065,-2.571129 0.718088,0.232102 -2.191671,2.516417 -2.19463,2.51811 -0.348739,0.19928 -2.086336,0.566693 -2.253618,1.099521 -0.264753,0.843305 1.506046,0.520383 0.08243,1.20247 -0.09225,0.04421 -4.977087,1.631799 -4.825353,2.32959 0.485669,2.233493 4.130586,0.83439 4.495402,2.346194 0.249176,1.03259 -8.069186,-1.521808 -9.456648,-1.868673 -3.5754945,-0.893865 1.319829,1.096748 1.859146,0.821388 0.192136,-0.0981 -2.566639,-1.558871 -5.3200772,-2.309798 -1.524867,-0.415858 -6.1675119,-2.522999 -2.8427261,-0.667221 0.554377,0.309442 -2.0686511,-0.157967 -1.8533168,0.439288 0.3485012,0.966632 1.6852672,0.828619 1.9342444,1.54495 0.2145636,0.617317 -3.1450077,0.154248 -1.8535913,1.160851 0.5646738,0.440134 2.6382251,1.378924 2.2664499,1.818779 -1.1001224,1.301547 -4.0722252,1.233392 -3.8894361,1.431204 1.7985996,1.946446 9.0371712,-0.304895 11.4121702,1.323645 0.934713,0.640936 -1.390541,-0.4466 -2.87917,-0.4466 -0.01332,0 0.02664,0 0.03996,0 1.297024,0.05961 2.572879,0.322985 3.848588,0.545038 2.578004,0.448742 -4.690113,-1.307932 4.692334,-1.307932 0.934829,0 3.729694,-0.05637 2.80016,-0.155725 -2.449622,-0.261907 -4.941395,0.07537 -7.215383,-1.012213 -0.761491,-0.364189 -3.166564,-1.007836 -2.322466,-1.009295 0.808095,-0.0018 3.544317,0.697719 4.103009,0.154132 0.308742,-0.300393 -0.483177,-0.738204 -0.835805,-0.985614 -4.577033,-3.211272 -2.410071,0.436326 -0.313498,-0.124164 0.877147,-0.234496 -4.722596,-3.361 -4.322371,-2.922243 1.302306,1.427683 3.72297,1.04887 5.614581,1.443963 0.533079,0.111342 1.958631,0.513549 1.631891,0.07789 -0.295987,-0.39467 -4.723579,-3.876755 -5.02787,-3.568808 -0.775152,0.784469 1.835616,3.497744 1.487007,3.556409 -0.707369,0.119049 -1.335971,-1.786894 -1.929124,-1.658435 -0.280606,0.06078 0.838821,2.664551 1.007277,3.05761 0.532177,1.241721 -0.879653,0.298456 -0.87036,0.314439 0.192243,0.330585 1.42219,1.600013 1.4681,2.155163 0.07811,0.944462 -1.646315,-1.005171 -2.570594,-1.214456 -0.591965,-0.134033 1.305294,1.416347 1.295385,1.456255 -0.299768,1.207225 -6.1477315,-2.130814 -6.1786604,-1.159599 -0.015173,0.476783 2.4233938,0.806539 3.1137014,1.098467 4.285319,1.812287 -5.8018749,-0.379686 -5.7258079,-0.30439 0.8997374,0.890606 3.0346233,1.233022 4.3067677,1.473354 0.5298253,0.100095 -1.0541681,-0.278898 -1.5933661,-0.278898 -0.4194374,0 1.419976,0.387025 1.2583047,0 C 8.5215136,38.156982 7.4514061,37.780789 6.6705218,37.461343 6.1436483,37.245801 4.6074193,37.174053 5.0757533,36.850455 c 1.0160188,-0.702032 3.8278232,-0.637406 5.1569937,-0.700753 0.617882,-0.02944 2.440269,0.11977 1.854111,-0.07789 -1.101818,-0.37151 -5.4106399,-1.471184 -6.4839755,-0.663799 -0.075467,0.05673 5.4813105,1.21252 5.1860785,0.893074 C 10.356388,35.833056 8.8103009,35.668047 8.7717217,35.659475 3.1036014,34.400312 8.1557795,36.292685 9.597307,35.49959 9.8078599,35.383755 6.9020059,33.717037 6.4645675,33.45793 5.7303629,33.023036 8.4464803,33.43443 8.4527249,33.39553 8.5770294,32.621579 5.4434863,32.558295 6.2217233,32.652095 c 1.4032044,0.169133 -0.2117001,-0.05205 1.8202628,0.228212 3.8533249,0.531495 -2.491494,-0.615399 1.4789109,1.689986 0.591517,0.343462 2.528884,0.688373 1.865456,0.854858 -3.2788776,0.822838 -5.7179821,-0.750909 -5.6837773,-0.155725 0.087317,1.519395 3.0565351,0.865348 3.01971,0.760337 C 8.3328985,34.91939 5.620129,34.99682 4.5454778,34.99682 c -0.7959102,0 -2.7651436,-1.485403 -2.2022356,-0.922725 1.1147286,1.114279 4.7325545,3.397946 6.7608126,3.476168 0.543794,0.02098 3.2098672,-0.03836 3.8048392,-0.544101 0.210727,-0.179128 -1.310378,-1.128263 -1.519165,-0.801902 -0.26913,0.420694 2.319069,2.385032 2.787374,2.853341 0.43522,0.435218 -1.446148,-0.490082 -1.479602,-1.104662 -0.02325,-0.427015 5.926669,0.610482 5.848955,0.397605 -0.203066,-0.556266 -1.735206,-2.04256 -2.425479,-2.253411 -1.174221,-0.35867 3.431329,3.252486 3.03195,2.091473 -0.03172,-0.09221 -2.313886,-2.265981 -2.746655,-2.204885 -0.03744,0.0054 3.413842,2.697633 3.889969,2.884685 0.784484,0.308182 3.015309,0.527452 2.32046,1.004505 -0.277285,0.190374 -5.397994,-2.024767 -4.77495,-1.681891 5.382106,2.96189 6.225858,1.140401 12.656908,-1.517766 0.827683,-0.34211 3.4171,-1.073686 2.571504,-0.778625 -1.848754,0.645115 -3.234025,1.373449 -4.89084,2.134299 -0.214554,0.09853 -0.800687,0.293261 -0.703998,0.07789 0.75966,-1.692274 3.608883,-1.87829 4.948818,-2.770733 0.647978,-0.431571 2.992463,-0.744111 2.213928,-0.744111 -4.419742,0 -5.553284,1.274102 -7.377026,0.259314 -0.833348,-0.463699 2.187461,-2.399627 1.534406,-2.399627 -3.09064,0 -6.589631,-0.184963 -9.264017,1.540744 -1.268933,0.818804 2.868925,-0.956294 4.337469,-1.308445 1.496405,-0.358841 -5.628988,1.988975 -4.0965,2.128518 0.469771,0.04277 4.213294,-0.613958 4.352164,-0.397011 1.07117,1.673427 -3.99049,0.62733 1.497976,0.62733 0.58476,0 -1.694637,1.259433 -1.117322,1.352441 0.607332,0.09784 1.965424,-0.905958 1.819544,-0.308343 -0.457716,1.875075 -4.615152,3.203411 -6.15108,3.970952 -1.410927,0.705084 5.50302,-1.645198 4.099042,-2.364015 -0.820757,-0.420225 -2.11604,-0.260448 -2.989083,-0.146576 -0.295775,0.03854 -1.179465,0.155725 -0.881186,0.155725 0.827218,0 1.3016,-0.142596 2.072926,-0.545029 2.472086,-1.289787 -1.167963,-0.979102 -2.012506,-1.265223 -0.317921,-0.107703 2.43538,-0.409554 2.47096,-0.967495 0.01941,-0.304319 -0.755972,-0.13126 -0.904815,0.134879 -0.152945,0.273487 4.100194,-0.160551 4.620023,0 0.891578,0.275387 -1.978275,3.631894 -1.878159,3.611012 0.974256,-0.203152 2.095367,-0.81512 2.741389,-1.610026 0.48245,-0.593635 -2.852957,1.032968 -2.209914,0.618659 1.104338,-0.711532 2.764426,-0.950801 3.303936,-2.148616 0.301069,-0.668436 -2.780017,0.466626 -2.199233,0.01927 0.759001,-0.584631 5.001233,-4.553602 5.807388,-3.943245 0.245391,0.185791 -0.178117,0.591852 -0.311449,0.869265 -1.060287,2.206056 -4.209691,1.766471 -6.042871,1.966049 -0.493777,0.05376 -1.968359,0.233578 -1.471664,0.233578 1.46642,0 0.81969,-0.295368 -0.183335,-0.295368 -0.203071,0 0.418198,-0.06889 0.609214,0 0.667124,0.240728 -1.056756,0.972998 -1.428003,1.577304 -0.193594,0.315114 2.274307,-0.169845 2.442194,-0.169845 1.610002,0 -2.047964,2.064154 -3.832149,3.848346 -1.152195,1.152188 -6.967837,1.356961 -7.127297,1.800157 -0.11416,0.317285 0.394244,0.617741 0.37995,0.687814 -0.626677,3.072242 -12.19481,-4.740374 -13.9225769,-3.642573 -0.87545303,0.556248 0.4933549,1.677857 0.5723069,2.210352 0.094525,0.637487 -0.6713887,1.030293 -0.5313884,1.580328 0.04034,0.15849 0.9652349,0.847015 0.8950713,0.934855 -0.2654511,0.332304 -1.897712,-0.06492 -1.99903771,0.167701 -1.29061129,2.962404 6.40391781,0.888499 9.62251951,1.175069 5.9684873,0.531405 -1.4747202,-0.15776 1.5639793,2.018104 1.998966,1.431357 1.10913,1.777232 3.216369,0.33425 0.273018,-0.186953 -0.104406,-1.223172 0.148608,-1.508356 0.799892,-0.901582 3.17182,-0.06798 4.251346,-0.467166 0.361609,-0.133709 -0.303497,-0.703932 0.137177,-0.836515 0.720184,-0.216686 3.007122,0.07312 2.255047,0.07312 -5.735209,0 -2.451131,0.119355 -6.715117,-0.786234 -1.747764,-0.371186 -6.4658645,-1.926275 -5.3324643,-0.54502 0.9941163,1.211511 3.0338493,0.789656 4.5628943,1.133234 0.685517,0.154042 1.477543,0.764551 2.071567,0.389322 0.858934,-0.54257 -2.626406,-1.317666 -2.741186,-1.725456 -0.04012,-0.142569 2.295195,0.0624 3.009277,-0.06654 0.431968,-0.07807 -0.708677,-0.905185 -0.430311,-1.244594 0.33857,-0.412814 4.05922,0.787738 0.292874,-2.978603 -0.55127,-0.551278 2.047309,2.206407 1.828723,1.458065 -0.22788,-0.780156 -1.512068,-2.206885 -2.334938,-2.453313 -3.303184,-0.989188 4.029014,4.677729 3.739109,5.752371 -0.201351,0.746379 -2.709402,-2.127834 -3.274435,-2.070115 -1.651127,0.168692 -3.815009,-0.762065 -5.839978,-0.762065 -1.1755721,0 0.966562,1.506635 0.926147,1.85621 -0.122012,1.055372 -1.930925,-1.094658 -2.993325,-1.094658 -1.0196594,0 0.8615658,1.080395 1.1542394,1.35752 0.9420756,0.892028 -2.8018261,0.626448 -3.8913987,-0.07789 -0.934839,-0.604287 4.0384632,0.661422 3.3334391,-0.199991 -1.1535321,-1.409404 -5.8737306,-2.100496 -3.1804569,-0.910731 0.7299788,0.322471 -2.0406856,-2.199735 -2.6554068,-0.660134 -0.5789784,1.450078 1.9576275,1.650294 2.6041537,1.650294 0.3191823,0 -1.5135959,0.01 -1.6053912,0.150196 -0.2756127,0.42082 1.1076592,0.886158 1.308679,1.122906 0.7321272,0.862251 -4.45912368,0.663196 -3.327985,0.663196 4.5043652,0 2.2574156,-0.629132 6.4016189,-0.706598 0.9336455,-0.01747 3.5670315,0.753989 2.7916745,0.233579 C 9.9174077,42.814262 8.3189522,42.704379 6.8916443,42.252638 6.4378789,42.109015 5.1077213,41.621904 5.5178974,41.863317 c 1.9772952,1.163777 4.6761586,1.498477 6.8854326,2.274707 0.475852,0.167188 1.856942,0.786342 1.38294,0.613976 -3.316633,-1.206054 3.146523,0.289966 -6.3068183,-1.557241 -0.6773326,-0.132349 -2.6653325,-0.495395 -2.0645666,-0.155725 0.7153545,0.404467 4.0324175,0.479503 3.7005442,0.249157 -0.8460734,-0.587242 -2.3737156,-1.855365 -3.692015,-1.855365 -0.1808622,0 -0.6635773,-0.134438 -0.5425865,0 0.224166,0.249067 0.7789429,0.158238 1.0501452,0.429437 1.0976848,1.097684 -5.57812234,-0.87989 -4.6432023,0.359373 0.8738214,1.158266 5.0891553,0.592536 4.9773681,-0.32792 -0.3217458,-2.649288 -7.9075114,-1.903773 1.0051998,-1.903773 1.4793759,0 2.9587514,0 4.4381274,0 0.596008,0 1.362499,0.417317 1.788021,0 0.437717,-0.429284 -6.2784361,-1.68163 -6.0396376,-1.206018 0.8436839,1.680343 5.0256826,2.869909 7.0874286,3.213065 0.627823,0.104498 -1.670125,-1.623263 -1.03392,-1.605218 0.902435,0.02557 2.090605,1.15742 2.668396,0.463735 0.05378,-0.06456 -0.35337,-0.984136 -0.593813,-1.054993 -0.928025,-0.273478 0.902687,1.711535 1.362547,2.562736 0.430005,0.79595 0.369958,1.31537 0.993044,1.702908 4.3188,2.686144 9.170568,0.273739 13.379615,-1.177662 1.538695,-0.530585 3.086506,-1.165011 4.252868,-2.16288 0.205106,-0.175472 0.809898,-0.711613 0.624584,-0.515367 -0.559472,0.592519 -1.309075,0.972574 -1.991439,1.418067 -1.220989,0.79712 -2.348825,2.332561 -3.797956,2.170587 -0.493212,-0.05511 0.63883,-0.769837 0.865971,-1.211088 0.03228,-0.06267 -0.760426,-0.0081 -0.9428,-0.212048 -0.340399,-0.381227 -0.04872,-0.718259 0.159677,-1.160014 0.160613,-0.340472 1.137493,-0.737132 0.771404,-0.824863 -0.39314,-0.09421 -2.061484,0.307551 -2.247831,0.09391 -0.938634,-1.076145 3.639959,-3.321074 -1.277374,-1.700729 -2.795382,0.921123 -5.561707,1.369163 -8.362018,2.394558 -0.344876,0.126289 -1.346904,0.582578 -0.99918,0.464366 1.751029,-0.595301 6.387337,-2.567716 6.267689,-2.84322 -0.03234,-0.07447 -2.948419,0.853228 -3.247315,1.391828 -0.314206,0.566198 3.077391,-0.393131 3.087347,-0.386459 0.357946,0.240089 -1.628998,2.090249 -1.493906,2.059697 0.439904,-0.09952 1.634319,-0.730613 1.271485,-0.462718 -0.958168,0.707462 -4.20722,1.60284 -3.046038,1.86788 0.61883,0.141246 3.474974,-1.33616 3.312668,-2.00882 -0.423939,-1.757007 -2.487982,0.876883 -3.236934,1.306977 -0.717087,0.411788 -2.966247,1.3444 -2.145238,1.245791 2.292707,-0.275386 4.174026,-1.734595 6.250223,-2.641652 1.127861,-0.492748 -0.68098,1.114189 -0.420999,1.207873 0.574851,0.207141 2.689818,-0.157157 1.890977,0.887292 -0.51762,0.676757 -2.892877,1.429169 -2.046944,1.530831 2.295061,0.275819 7.308292,-3.91606 8.275315,-5.189342 0.245793,-0.323642 -3.208917,0.434164 -3.870325,-0.303841 -0.434692,-0.485031 0.49019,-2.311518 0.827894,-2.649288 0.698473,-0.698602 -1.3408,1.45304 -2.056309,2.134181 -1.088908,1.036597 -3.546969,2.528069 -3.922779,3.580496 -0.655366,1.835311 6.05734,-4.506697 5.138909,-2.787877 -0.293377,0.549053 -1.52645,0.736988 -1.777411,1.414275 -0.976084,2.634269 5.488813,-4.220288 0.390096,1.683467 -0.887254,1.027341 -2.530879,1.567678 -2.879573,2.879571 -0.09606,0.361408 1.506717,-0.620487 1.105237,-0.686616 -3.220586,-0.53054 -5.506872,0.0097 -5.163734,-0.275225 1.413934,-1.174295 4.067153,-0.81738 5.331743,-2.005155 0.774852,-0.727785 -4.231497,-0.362704 -3.168451,-0.362704 0.773077,0 2.999042,-0.443538 2.31792,-0.07789 -1.388597,0.745516 -3.092033,0.618686 -4.621046,1.000939 -0.693424,0.173356 -2.690072,0.942526 -2.053424,0.617615 3.810335,-1.944609 8.019935,-5.818798 12.199912,-6.463831 3.910758,-0.603477 2.003014,4.438082 1.026431,4.003755 -0.265136,-0.117914 -0.03554,-0.62416 -0.229914,-0.839622 -0.479033,-0.53099 -2.681493,0.60074 -0.520922,-1.739862 0.528617,-0.572664 1.705302,-2.555344 1.481363,-1.808865 -0.505558,1.68525 -2.058352,2.86502 -2.563667,4.484662 -0.246912,0.791412 1.741107,-0.07699 1.878996,0.484104 0.615516,2.504621 -9.279224,5.13608 -13.588959,5.13608 -0.60498,0 1.334975,0.155022 1.800072,-0.231877 0.05159,-0.04295 -1.550276,-0.718267 -1.692311,-0.76157 -1.838438,-0.560544 -3.527831,-0.856479 -5.425516,-0.856479 -0.301715,0 1.20686,0 0.905146,0 -1.857658,0 0.146805,-0.0054 -3.921725,0.07789 -0.358793,0.0072 -1.4354689,0 -1.0766017,0 0.828745,0 3.1727127,0.402423 4.1427447,0 1.156455,-0.479755 -2.428359,-0.61096 -3.6424188,-0.916917 -0.3229255,-0.0814 -1.164267,-0.437559 -0.9868545,-0.155725 0.714894,1.135647 2.6304723,1.189674 3.6783303,2.069357 0.514062,0.431562 -1.439154,0.420172 -4.0599385,0.611771 -1.6310218,0.119229 0.3374039,0.630212 0.228771,0.565226 C 5.9872326,46.02992 7.8388862,47.211751 9.2274191,46.753626 9.5355708,46.651955 6.017506,45.131192 5.8890873,45.807201 c -0.040286,0.212066 2.2278798,0.90224 2.4713624,0.555645 1.1315957,-1.61081 -8.52496464,1.486213 1.8317533,-1.528931 0.608005,-0.177012 2.244209,0.02584 1.842319,-0.463564 -0.365555,-0.445132 -5.1614865,-0.536294 -4.6781879,0.298897 0.8704473,1.504241 3.2006639,1.132802 4.3247239,2.351255 1.246329,1.350992 -7.710222,0.966056 -1.178722,1.925744 1.513784,0.222422 2.795385,-0.161208 4.131692,0.30358 0.448819,0.156113 1.576622,1.038263 1.240611,0.702258 -0.859072,-0.859072 0.740315,-0.07798 0.523866,-1.056209 -0.03268,-0.147666 -0.713232,-1.075929 -0.355441,-1.253778 0.08688,-0.04322 1.217181,-0.196858 1.291028,-0.374149 0.264549,-0.63511 -0.605021,-1.066177 -0.773222,-1.532371 -0.06362,-0.176318 3.727428,1.128381 3.677189,1.277371 -0.06982,0.207069 -1.578846,-0.153465 -2.026533,-0.07789 -0.225991,0.03818 0.303169,0.343993 0.447051,0.522391 0.0338,0.04187 -2.324769,-0.31145 -3.686528,-0.31145 -1.019969,0 0.346571,1.163426 -0.454009,0.936772 -1.475223,-0.41765 -6.0042416,-1.079918 -4.471039,-1.079918 3.473325,0 6.979647,-0.700753 10.488377,-0.700753 0.797364,0 3.817152,1.396536 3.02404,2.071942 -3.284495,2.797026 -8.593917,-0.484455 -7.169904,-0.653741 1.731626,-0.205862 3.481496,-1.174078 4.465697,0.936268 0.252134,0.540626 -2.216613,0.475063 -1.788611,0.05952 1.317668,-1.279279 3.423193,-1.33165 5.13963,-1.98485 1.068935,-0.406782 3.557257,-2.52345 3.097335,-1.476281 -1.72223,3.921273 -1.792474,3.556633 -3.377434,2.890673 -0.859,-0.360921 7.456475,-3.968862 6.679335,-3.683859 -1.385246,0.508029 -2.635916,1.335216 -4.006002,1.882819 -0.450944,0.180245 -1.765337,0.8012 -2.465921,0.93435 -0.185504,0.0353 -0.687219,-0.08761 -0.563777,0.05529 0.849661,0.983479 2.665192,0.735187 3.906439,1.035624 0.694498,0.168097 -2.101679,-0.573078 -2.139043,0.140498 -0.04554,0.869571 2.771919,-0.890876 2.427094,-2.228423 -0.09546,-0.370277 0.762723,-0.05673 1.144528,-0.07789 0.910364,-0.05052 2.535623,-0.03269 2.944683,0.687949 0.3338,0.588053 -1.345686,0.134699 -2.017642,0.210248 -3.054005,0.343371 -1.32462,0.31145 -2.958744,0.31145 -2.840393,0 -7.751082,-0.778229 -10.336029,0.408573 -0.296914,0.13632 -0.516807,1.78295 -0.616689,2.127284 -0.07015,0.241827 0.809807,-0.131331 0.854468,-0.148107 0.322862,-0.121255 -1.259267,0.544867 -0.972419,0.353394 1.888618,-1.260685 3.820701,-2.455366 5.750199,-3.652551 0.165748,-0.102841 0.718471,-0.304039 0.536931,-0.232687 -1.578484,0.620379 -3.138277,1.526482 -4.445852,2.61508 -0.846905,0.705076 -2.134032,3.005194 -2.620016,2.016159 -0.245564,-0.499762 1.371672,-2.427388 0.99947,-2.803644 -1.127898,-1.140168 -2.945,-0.188331 -2.637841,-0.342057 0.255454,-0.127856 3.966977,0.375311 3.729108,1.158888 -0.24815,0.817435 -2.635608,2.493698 -1.682092,2.354146 0.964438,-0.141147 -1.88925,-0.257864 -2.232891,-0.349018 -0.333141,-0.08833 1.033885,-1.612556 -0.180507,-2.133011 -0.03749,-0.01603 -1.040713,-0.01216 -1.039812,-0.23166 0.01022,-2.486207 5.394394,-0.514539 5.671886,-0.303796 0.308033,0.233938 -1.739014,1.84038 -1.907025,2.183004 -0.08647,0.176346 0.789294,-0.555591 0.996292,-0.351214 0.318678,0.314647 -0.07021,1.724888 -0.315793,1.989586 -0.14892,0.160516 0.191083,-0.394193 0.295414,-0.586692 1.870654,-3.451641 3.71942,-5.819833 3.705018,-5.713453 -0.334585,2.471286 -1.704911,4.175076 -1.704911,6.766483 0,1.542528 -0.843316,-4.287949 0.671579,-4.57858 1.153244,-0.221251 2.590202,0.970548 3.492873,1.87322 0.345749,0.345749 -1.610426,-0.919078 -1.122138,-0.94475 0.426196,-0.02242 1.566378,-0.238351 1.278079,0.07636 -0.495072,0.540391 -1.937994,0.05808 -2.683277,-0.0045 -1.10463,-0.09294 0.885986,2.143322 -0.910154,0.558995 -0.074,-0.06528 2.218936,0.191644 2.542984,-0.07789 0.401995,-0.334331 -0.639254,-1.391738 -0.557036,-1.465935 1.142525,-1.031068 6.014489,0.947686 6.91264,1.541987"
       id="path1648" />
  </g>
</svg>
