<?xml version="1.0" encoding="UTF-8" standalone="no"?>
<!-- Created with Inkscape (http://www.inkscape.org/) -->

<svg
   width="139.80299"
   height="200"
   viewBox="0 0 36.989541 52.916668"
   version="1.1"
   id="svg5"
   inkscape:version="1.1.1 (c3084ef, 2021-09-22)"
   sodipodi:docname="5.svg"
   inkscape:export-filename="/home/irina/Documents/Kvissentali tänavaraamatukogu/Logo/5.png"
   inkscape:export-xdpi="300"
   inkscape:export-ydpi="300"
   xmlns:inkscape="http://www.inkscape.org/namespaces/inkscape"
   xmlns:sodipodi="http://sodipodi.sourceforge.net/DTD/sodipodi-0.dtd"
   xmlns="http://www.w3.org/2000/svg"
   xmlns:svg="http://www.w3.org/2000/svg">
  <sodipodi:namedview
     id="namedview7"
     pagecolor="#ffffff"
     bordercolor="#666666"
     borderopacity="1.0"
     inkscape:pageshadow="2"
     inkscape:pageopacity="0.0"
     inkscape:pagecheckerboard="true"
     inkscape:document-units="mm"
     showgrid="false"
     inkscape:zoom="0.44"
     inkscape:cx="88.636364"
     inkscape:cy="562.5"
     inkscape:window-width="1312"
     inkscape:window-height="783"
     inkscape:window-x="0"
     inkscape:window-y="25"
     inkscape:window-maximized="0"
     inkscape:current-layer="layer1"
     inkscape:showpageshadow="false"
     units="px"
     width="139.80299px" />
  <defs
     id="defs2">
    <inkscape:path-effect
       effect="powerstroke"
       id="path-effect405"
       is_visible="true"
       lpeversion="1"
       offset_points="0,4.99214"
       not_jump="false"
       sort_points="true"
       interpolator_type="CubicBezierJohan"
       interpolator_beta="0.2"
       start_linecap_type="zerowidth"
       linejoin_type="extrp_arc"
       miter_limit="4"
       scale_width="1"
       end_linecap_type="zerowidth" />
    <inkscape:path-effect
       effect="skeletal"
       id="path-effect401"
       is_visible="true"
       lpeversion="1"
       pattern="m 58.231126,93.290476 c 5.441159,18.594674 14.157593,29.487064 26.482008,45.353524 1.72052,2.215 4.209585,3.71769 6.146186,5.74647 8.196022,8.58616 0.990844,2.41329 8.296728,9.33465 0.926332,0.87758 1.132362,0.4913 1.796942,1.15588"
       copytype="single_stretched"
       prop_scale="1"
       scale_y_rel="false"
       spacing="0"
       normal_offset="0"
       tang_offset="0"
       prop_units="false"
       vertical_pattern="false"
       hide_knot="false"
       fuse_tolerance="0" />
    <inkscape:path-effect
       effect="skeletal"
       id="path-effect305"
       is_visible="true"
       lpeversion="1"
       pattern="M 0,4.9921382 C 0,2.2364779 2.2364779,0 4.9921382,0 c 2.7556604,0 4.9921383,2.2364779 4.9921383,4.9921382 0,2.7556604 -2.2364779,4.9921383 -4.9921383,4.9921383 C 2.2364779,9.9842765 0,7.7477986 0,4.9921382 Z"
       copytype="single_stretched"
       prop_scale="1"
       scale_y_rel="false"
       spacing="0"
       normal_offset="0"
       tang_offset="0"
       prop_units="false"
       vertical_pattern="false"
       hide_knot="false"
       fuse_tolerance="0" />
    <inkscape:path-effect
       effect="skeletal"
       id="path-effect301"
       is_visible="true"
       lpeversion="1"
       pattern="M 0,4.9921382 C 0,2.2364779 2.2364779,0 4.9921382,0 c 2.7556604,0 4.9921383,2.2364779 4.9921383,4.9921382 0,2.7556604 -2.2364779,4.9921383 -4.9921383,4.9921383 C 2.2364779,9.9842765 0,7.7477986 0,4.9921382 Z"
       copytype="single_stretched"
       prop_scale="1"
       scale_y_rel="false"
       spacing="0"
       normal_offset="0"
       tang_offset="0"
       prop_units="false"
       vertical_pattern="false"
       hide_knot="false"
       fuse_tolerance="0" />
    <inkscape:path-effect
       effect="skeletal"
       id="path-effect297"
       is_visible="true"
       lpeversion="1"
       pattern="M 0,4.9921382 C 0,2.2364779 2.2364779,0 4.9921382,0 c 2.7556604,0 4.9921383,2.2364779 4.9921383,4.9921382 0,2.7556604 -2.2364779,4.9921383 -4.9921383,4.9921383 C 2.2364779,9.9842765 0,7.7477986 0,4.9921382 Z"
       copytype="single_stretched"
       prop_scale="1"
       scale_y_rel="false"
       spacing="0"
       normal_offset="0"
       tang_offset="0"
       prop_units="false"
       vertical_pattern="false"
       hide_knot="false"
       fuse_tolerance="0" />
  </defs>
  <g
     inkscape:label="Layer 1"
     inkscape:groupmode="layer"
     id="layer1"
     style="display:inline">
    <path
       style="fill:none;stroke:#000000;stroke-width:0.252894px;stroke-linecap:butt;stroke-linejoin:miter;stroke-opacity:1"
       d="M 19.599633,52.90113 C 17.866688,38.904637 22.008703,24.10232 19.348691,10.137188 18.908561,7.8264976 18.689716,5.5756421 18.689716,3.2283728 c 0,-1.3203724 -0.03761,-3.13130136 -0.08861,-3.10159441 -1.044227,0.60813215 1.335574,1.75953441 1.272795,1.84808171 -0.08245,0.1163044 -2.358487,0.2749518 -2.35293,0.3360097 0.05291,0.5813596 1.129689,0.3893827 1.564203,0.5824396 0.483868,0.2149931 -1.151128,-0.2414884 -1.587354,0.058592 -0.328605,0.2260615 1.138926,2.0708074 1.326207,2.6658065 0.212561,0.6753073 -2.831885,-0.00573 -2.123912,-0.00573 0.544057,0 1.94697,0.4437308 1.632167,0 -0.378096,-0.5329472 -2.412777,-0.4610981 -1.818347,-0.7324846 0.723902,-0.330485 3.232722,-0.1851618 3.664626,-0.6450269 0.526218,-0.5602932 -1.561596,0.083826 -2.30286,-0.1194873 -0.260477,-0.071495 0.317913,0.9916844 0.353916,1.072394 0.271267,0.6081704 -1.415085,0.6582268 0.262542,2.3358472 0.318326,0.318327 -4.722014,-1.5058688 -4.61072,-1.234033 0.355845,0.8691385 8.70268,1.3041426 8.703095,1.3069145 0.06798,0.4555925 -3.417394,2.9427172 -3.712704,2.6867962 -0.370572,-0.3211466 1.244129,-5.1276787 1.720277,-4.5866931 1.173546,1.333343 -0.597213,3.0144139 -0.597213,4.3376351 0,1.562912 1.812887,-3.9392103 2.446833,-1.2563041 0.515641,2.1822371 -1.503742,1.6543751 -1.837087,2.3868591 -0.144789,0.318155 -0.636108,1.167814 -0.655189,0.818786 C 19.919071,11.427509 20.78295,9.4863207 21.044748,9.4521978 22.13045,9.3106884 19.286102,11.42425 18.228189,11.142139 16.204107,10.602386 15.693924,9.7710886 14.217734,9.1380861 13.226892,8.7132137 10.273216,7.7967047 11.342277,7.6574414 c 1.296662,-0.1689033 2.460664,0.3290895 3.678432,0.6611994 3.194906,0.8712986 0.216258,0.034887 0.889142,-1.0002677 0.899998,-1.3845176 0.947017,0.8818318 1.137113,1.7750665 0.0037,0.017492 -1.451808,-1.3024699 -1.472737,-1.3219017 -0.271068,-0.2516966 -1.065725,-0.46149 -0.824914,-0.7422722 0.460842,-0.537344 1.362836,0.4089484 1.995659,0.7262048 0.518917,0.2601461 4.069137,2.2163598 3.978173,2.3858845 -0.147091,0.27413 0.255879,1.138422 0.02223,0.933025 -1.012069,-0.889717 1.029951,-2.9738769 0.908603,-3.2914583 -0.111391,-0.2915066 -2.643644,-0.049225 -2.50723,-0.339269 0.390494,-0.830246 0.736096,-1.1491082 1.652021,-1.3016287 1.454392,-0.2421766 0.758291,0.3477853 0.772229,1.2759267 0.0033,0.2261857 1.559299,-0.2734225 1.558288,0.5043968 -0.0025,1.9525147 -1.173221,4.6559045 -3.171763,5.3653535 -0.226063,0.08029 2.806176,-1.795406 2.811535,-1.770163 0.07637,0.359628 -1.04886,0.912561 -0.929053,1.151287 0.244192,0.486561 2.253285,-0.431181 2.600334,-0.606746 0.379284,-0.191872 -0.809315,1.44332 -0.764412,1.020646 0.143117,-1.347164 2.272786,-2.30376 2.550004,-3.7864504 0.415524,-2.2223912 -1.660576,3.0679684 -3.41097,3.8988554 -3.17609,1.507656 1.966716,-2.258254 0.714053,-2.307488 -1.025407,-0.04034 -3.619392,2.593575 -4.164403,3.631951 -0.0282,0.05372 6.050199,-1.886946 6.275184,-1.457342 0.462074,0.882329 -2.898495,3.221025 -3.880778,3.562071 -1.181148,0.410096 3.996247,-1.624123 2.952858,-2.31305 -0.543417,-0.358806 -4.41672,0.985911 -2.91244,0.985911 1.467939,0 3.342072,-0.327474 1.48225,1.630202 -0.476807,0.501902 -2.17794,0.627382 -1.727388,1.15297 0.363133,0.42362 2.126226,-0.957151 2.667365,-1.144205 0.436427,-0.150858 -0.605018,0.616887 -0.683777,0.616887 -0.515872,0 1.763282,-0.06719 1.500987,0.377005 -0.703218,1.190935 -2.13885,1.537373 -3.305976,2.066229 -5.711495,2.588012 -5.256702,2.904791 -10.081073,-1.230372 -0.820989,-0.703705 -2.6516848,-1.907467 -3.2199945,-2.972052 -0.2755616,-0.516201 5.8033755,1.028015 5.7080755,0.839565 -1.111507,-2.197903 -5.6552807,-3.294058 3.350774,-0.715882 1.33743,0.382874 -2.305642,-1.55732 -3.457088,-2.338007 -0.64781,-0.439219 -1.738762,-1.260978 -2.556256,-1.735629 -0.183361,-0.10646 -0.592082,-0.524756 -0.551682,-0.316607 0.116885,0.602206 1.612223,1.45132 2.143124,1.982232 0.17529,0.175297 0.610597,0.735342 0.556431,0.493433 -0.412488,-1.842223 -1.861946,-2.779578 -1.843734,-2.779865 1.451058,-0.02275 2.918218,2.139589 4.093386,2.789223 1.601402,0.885263 -1.481251,-2.683413 1.477425,-1.578837 2.733785,1.020617 5.229809,2.637706 6.232314,5.358835 0.323366,0.877722 0.08121,2.133175 0.49084,2.897307 0.723541,1.349687 1.892812,0.598698 2.532769,1.108791 0.285169,0.227304 -0.410883,1.608027 -0.498961,1.561393 -0.523077,-0.277007 0.723061,-2.070932 0.926221,-1.514997 0.357265,0.977643 -0.252173,2.553727 0.164824,3.339613 0.248996,0.469261 1.146751,-1.637954 1.146751,-1.106717 0,1.445222 -0.391306,3.11099 0.102819,3.285876 0.432308,0.152999 2.619434,-2.722611 3.135392,-3.409445 0.103985,-0.138422 0.46698,-0.486351 0.405549,-0.324482 -1.503936,3.962723 -4.224659,1.03678 -4.224659,5.169276 0,0.229684 2.397612,-2.003986 -0.538613,-1.578789 -1.484154,0.214926 -3.51864,0.776395 -3.50921,0.74384 0.227889,-0.786804 2.631634,-1.541339 1.819911,-1.651307 -1.57214,-0.212985 -3.157665,0.90914 -4.710993,0.90914 -0.236227,0 -0.928386,0.154566 -0.704094,0.08039 2.02005,-0.66769 3.855372,-1.104567 3.852724,-1.097628 -0.564278,1.479211 -4.382154,5.516469 -6.309244,5.49309 -2.347832,-0.02848 -12.000905,-4.410325 -12.1817523,-8.18954 -0.021974,-0.459397 3.8084706,-0.03269 3.7982558,-0.715213 -0.039284,-2.624993 -2.6197522,-5.457782 1.7649415,-3.045 0.726105,0.399552 -2.3808331,-2.299584 -1.8425419,-1.66941 1.3806919,1.616371 2.0198349,2.054338 4.1132579,4.263912 0.508119,0.536302 1.204163,2.436218 1.3948,1.722448 0.314057,-1.17588 -4.397814,-5.191011 -2.347324,-3.140525 0.927032,0.927033 1.707964,1.772496 2.40988,2.817677 0.141533,0.210759 0.659317,0.666428 0.406437,0.644081 C 12.200233,24.122598 12.239819,24.03406 9.5158711,23.056225 9.4349701,23.027165 7.7141113,22.574424 7.746075,22.61887 c 0.6069622,0.844029 3.905354,5.548766 5.604932,5.747405 0.602827,0.07044 -1.72577,-1.309046 -1.130479,-1.427339 2.175059,-0.432232 4.437493,-0.02925 6.652262,0.08268 0.137587,0.0067 3.853202,1.285064 3.60523,-0.321022 -0.275818,-1.786422 -1.612915,-3.905451 -3.303082,-4.79079 -6.261631,-3.279941 1.633464,6.278957 -1.969171,1.567166 -5.829323,-7.624038 -5.507606,-7.771932 0.428332,-0.466203 4.248068,5.228356 3.426082,3.080404 3.379473,7.767803 -0.0076,0.768146 8.736436,-5.010906 8.81224,-4.938656 1.103961,1.052169 -1.740185,5.293524 -0.761134,5.839145 0.331042,0.184493 0.869107,-0.521525 1.227968,-0.407218 0.896498,0.285561 -0.623138,2.392107 -0.443178,2.832196 0.43658,1.067634 0.982645,-1.949562 0.802228,1.02271 -0.02836,0.467235 -0.921728,1.11944 -0.495897,1.313825 0.398732,0.182017 1.502983,-0.86283 1.19305,-0.552895 -2.732209,2.732217 -2.772824,0.972147 -6.343622,2.40048 -2.200334,0.88013 -4.327226,2.22912 -6.611955,2.892719 -1.270368,0.368976 1.016871,-2.478695 1.832506,-3.520197 1.867144,-2.384193 4.361847,-4.285686 6.198701,-6.694577 0.456426,-0.598574 -2.01428,2.13718 -1.743905,1.43467 1.715424,-4.457094 -9.473,3.824865 -10.526561,3.675508 -1.437055,-0.203724 0.814982,-3.361406 2.21351,-3.749671 0.491546,-0.136462 0.264694,1.059233 0.661195,1.380207 0.253793,0.205454 2.7536,2.05324 2.892722,2.148889 0.01796,0.01233 2.693536,1.704947 2.477094,1.935128 -0.276583,0.294135 -1.596543,-0.166953 -1.972173,0 C 16.395551,39.582321 11.869024,38.799636 8.359944,36.04273 6.8111894,34.82595 5.4632787,33.671231 4.2616529,32.126212 3.9720942,31.7539 2.5117675,30.249083 2.5151129,30.249838 c 0.4037717,0.0909 6.240246,2.271329 7.3807496,1.908098 0.072289,-0.02304 -0.4098905,-0.624668 -2.802266,-2.954083 -0.3492143,-0.340024 -0.7163006,-0.66119 -1.0744499,-0.991789 -1.0295493,1.096041 -0.8409274,-1.473237 -1.4831862,-1.400547 -0.450476,0.05095 0.3067156,1.656181 -0.03614,1.35958 -0.00832,-0.0067 -0.7974546,-1.556824 -0.5698065,-1.72718 2.8610341,-2.141003 9.6026721,1.829042 9.3903971,1.801285 C 12.303833,28.112276 11.290067,27.952749 10.283749,27.75672 9.9684196,27.69526 9.2999439,27.116099 9.3778606,27.427764 9.5656419,28.178887 15.7212,33.30128 14.817539,34.157458 13.240655,35.651484 3.9899066,30.745995 7.7615179,32.958628 c 2.1009087,1.232513 4.1918131,2.483397 6.3234921,3.661887 3.549289,1.962217 2.520481,1.046769 4.769505,2.812822 1.014517,0.796658 12.104181,-4.089915 13.592764,-2.640793 0.64116,0.624161 -1.301517,4.517884 -2.090098,4.737465 -0.228435,0.06366 0.273518,-0.402765 0.472425,-0.531848 0.293239,-0.190324 -0.202521,1.101345 0.141489,1.03916 1.405689,-0.254106 2.527995,-1.12701 3.871891,-1.321835 1.563635,-0.226683 -0.433474,3.857143 -0.756432,4.456921 -2.178578,4.045956 2.33057,-0.669047 2.508671,-0.308042 0.569847,1.155044 0.244389,3.453222 -1.151836,3.948663 -1.723024,0.611401 -3.436815,0.661199 -5.22131,0.661199 -0.08901,0 5.044448,-1.486819 5.785568,-0.813414 0.03693,0.03355 -2.593161,1.563515 -7.004221,1.563515 -3.553704,0 -6.506337,-0.479135 -10.183767,-1.172641 -1.839796,-0.346963 -5.380911,-1.405355 -7.951979,-1.405355 -5.4794479,0 5.619315,0.492956 7.574546,0.492956 7.016777,0 -5.395518,-0.789299 -6.866623,-1.15708 C 6.9992786,45.838108 4.7847854,44.497673 2.5059673,40.666223 1.9147484,39.672187 1.1759343,38.872413 0.48236318,37.946881 0.37324942,37.801271 -0.00366176,37.545388 0.17197339,37.497845 1.1906043,37.222148 1.727803,38.023127 2.6108706,38.085819 c 0.9278575,0.06586 -1.80776416,-2.878582 -0.9091357,-2.638327 2.7403778,0.732657 7.7188395,5.01235 9.8184681,6.56601 1.024406,0.758024 1.916954,1.691403 2.977296,2.398291 0.133659,0.08908 0.573701,0.240456 0.413239,0.24794 -3.548161,0.165644 -6.4842968,-5.895634 -9.9408061,-5.895634 -0.073531,0 1.1001539,0.287798 1.0921757,0.237493 C 5.8945013,37.944797 5.2059224,36.962441 4.7511175,36.071778 2.006774,30.697449 4.108181,34.016895 8.1832476,36.616501 c 6.8424794,4.365038 8.4001334,3.827292 17.1974844,7.783822 4.013217,1.804898 -2.098658,1.21874 -2.321951,1.050286 -0.82191,-0.620042 1.889304,-4.798618 1.758857,-4.66661 -1.558612,1.577259 -2.631536,4.160311 -4.290018,5.519451 -4.572256,3.747004 -10.193299,1.879529 -15.336054,1.879529 -0.8219983,0 -4.48969257,0.56013 -4.73384008,0.08268 -0.53156413,-1.03959 4.78241108,-3.506404 5.42889558,-3.721894 3.9144078,-1.304783 0.9508326,0.615215 1.8840283,2.48161 0.2456721,0.49134 2.5343732,1.676149 2.5488262,1.897288 0.05146,0.787367 -5.8829396,1.717229 -4.4648305,1.286641 0.6781595,-0.205913 9.2435205,-4.230984 11.6895065,-3.631865 0.16929,0.04148 1.086433,0.63694 0.992067,0.775362 -0.335214,0.491733 -1.951875,0.905718 -1.394645,1.11467 0.482922,0.18109 10.510088,-1.11747 11.331085,-2.080862 0.103439,-0.12137 0.412468,-1.51126 0.07013,-1.478982 -0.467097,0.04406 -1.355833,0.760357 -1.37695,0.29166 -0.0058,-0.128912 0.226024,-1.560332 0.159601,-1.675183 -0.07888,-0.136387 -2.091357,0.984678 -2.420651,1.278727 -1.286687,1.148955 4.252698,-2.721521 3.226538,-2.794928 -1.295065,-0.09262 -1.921781,0.06863 -3.110007,0.342872 -0.280262,0.06471 -0.781076,0.531953 -0.826494,0.24794 -0.114956,-0.718902 2.003979,-2.214028 2.421523,-3.232054 0.285918,-0.6971 -1.536948,-0.151622 -1.976322,-0.857659 -0.142271,-0.228623 -1.030032,-4.242158 -0.950671,-4.665415 0.192685,-1.027662 2.441165,-6.152358 2.141467,-6.921871 -1.010829,-2.595449 -3.048762,2.995173 -4.251562,2.764179 -0.148817,-0.02858 2.518143,-9.209229 2.14377,-9.416241 -0.422033,-0.233364 -7.598245,5.536541 -7.633855,3.380254 -0.0904,-5.474412 9.546613,-3.572728 12.07771,-6.367217 0.445775,-0.492162 -1.199858,1.550286 -0.629343,1.890061 0.305782,0.182113 0.676966,-0.778211 0.928763,-0.526686 1.093961,1.092781 -0.963137,3.900604 -1.397496,5.235581 -0.332305,1.021334 0.786126,-0.976821 0.786126,2.510142 0,1.369482 -0.41324,2.509778 -0.41324,3.801877 0,0.467282 1.524474,0.954847 1.763009,2.317897 0.228096,1.303387 -0.455182,3.166801 0.07079,4.433857 0.19975,0.481209 2.418081,-0.577335 2.447417,-0.497515 1.166005,3.172985 -0.558035,6.663265 -1.329745,9.750168 -0.805171,3.220738 1.555918,-1.077871 -4.954296,-0.535346 -4.488501,0.374041 -5.576842,0.699403 -8.901501,2.778641 -1.519466,0.950269 -3.183859,2.169878 -4.89091,2.738879 -0.77262,0.257537 -3.0008009,0.672946 -2.2424661,0.96992 2.7982401,1.095822 4.9913361,-3.173587 7.5831271,-3.192225 0.662035,-0.0048 -1.444277,3.568867 -1.327937,3.328306 2.316605,-4.79036 2.347367,-2.288859 -4.547307,-1.052609 -1.082465,0.194099 -2.2313036,0.546052 -3.2898573,0.24794 -0.1043624,-0.02944 1.9408821,-3.73777 3.7273973,-3.291124 4.143033,1.035786 7.564824,2.87647 11.818018,0.331422 1.363739,-0.816043 4.164553,0.447563 1.318822,1.824521 -1.107498,0.535891 -3.039395,-0.22351 -3.990415,0.330599 -1.364443,0.794986 5.626062,0.580213 6.0501,-1.681405 0.608432,-3.245073 2.476232,-6.921011 1.570331,-10.215223 -1.792385,-6.517826 -7.899905,1.331078 -11.210001,0.984468 -2.033055,-0.21289 -8.4279209,-4.842032 -10.7966398,-3.388618 -2.3105055,1.417694 5.2291888,5.141939 6.9108978,5.979144 0.172238,0.08574 3.128889,1.128893 3.12329,1.138126 -0.163302,0.269255 -3.013854,2.739108 -3.362129,2.372359 -1.188094,-1.251085 1.241143,-7.100677 0.46746,-6.872703 -4.4551999,1.312744 -2.89516,0.340664 -5.6409668,2.732178 -0.4679265,0.407544 -1.0100582,1.71961 -1.3948606,1.2328 -2.2428964,-2.837434 1.8129533,-12.451177 4.3663484,-12.451177 4.092714,0 0.190248,8.467493 1.239735,9.883668 1.112549,1.501261 3.53173,-5.1837 4.477515,-0.573016 0.193202,0.941858 -0.854159,3.325802 0,2.884403 1.597313,-0.825419 3.615045,-13.002877 3.257427,-13.075778 -1.549182,-0.315803 -1.463706,-0.243103 -3.272026,1.170681 -9.5259511,7.447555 7.005071,-0.951434 -0.991534,-8.012043 -0.09425,-0.08325 -1.084326,1.717679 -1.331186,1.98442 -0.167336,0.180813 0.176575,-0.727017 -0.06963,-0.735811 -0.346294,-0.01233 -0.716729,-0.03785 -1.034738,0.09982 -0.546973,0.236709 -1.028763,0.611535 -1.48769,0.991789 -0.85149,0.705511 -3.4822603,2.445977 -2.3854441,2.305357 0.5992971,-0.07685 12.5329711,-3.615674 12.5655791,-3.089609 0.08918,1.438723 -1.248538,7.906932 -3.33927,8.27781 -0.865777,0.153582 -3.059956,-9.345511 -3.541646,-11.185745 -0.416745,-1.592122 -0.165297,-3.40372 -0.165297,-5.057493 0,-0.164009 -0.09678,0.359609 0,0.492019 0.239733,0.327971 1.198103,0.113858 1.287304,0.07933 0.664283,-0.257269 1.602415,-1.160071 2.063334,-1.732752 0.945233,-1.174438 0.727883,-3.139187 -0.778924,-3.980205 -1.732044,-0.966738 2.058792,2.720518 1.702277,2.804945 -0.13709,0.0325 -1.760043,-1.854581 -1.948669,-2.06836 -2.908707,-3.2965342 0.3975,1.584045 0.328637,1.586081 -0.808398,0.02399 -1.372818,-1.34054 -2.021324,-1.788037 -1.230536,-0.849133 0.289224,2.983111 0.607923,4.443817 0.01753,0.08038 0.301307,2.24254 0.396679,2.289442 2.694665,1.325228 4.734357,-4.50389 7.32705,-3.392737 2.11215,0.905211 1.233028,4.471688 0.117834,5.642389 -0.737742,0.774464 1.461053,-4.351361 1.483107,-4.339442 0.165022,0.08918 -0.359972,6.866893 -1.748222,6.785237 -4.770714,-0.280601 -6.501823,-8.068494 -9.610516,-10.949485 -0.507961,-0.470752 0.992174,3.448835 0.760537,3.752509 -0.538504,0.70598 -1.543281,-1.129074 -1.672689,0.90914 -0.30679,4.831909 2.445305,10.696479 1.049522,15.368919 -0.53683,1.79705 -2.455298,-6.702998 -2.827134,-4.864713 -0.381317,1.885167 -0.810489,3.764944 -1.056204,5.672526 -0.1626598,1.262803 -0.09541,2.544809 -0.1660176,3.81608 -0.016822,0.302747 0.00124,1.197234 -0.08264,0.90589 -0.4646179,-1.611277 -1.1007366,-11.151689 -2.7522745,-8.355738 -3.9263722,6.647111 -1.555562,6.982671 -1.555562,10.611029 0,1.153199 -0.421658,2.386257 0,3.459616 0.4632573,1.179236 1.0383572,-4.294966 -0.1274082,-3.79878 -1.3932061,0.592992 -1.6736509,2.768596 -1.9957065,4.056862 -0.094263,0.377081 -0.3934287,1.499828 -0.2479412,1.139397 0.2475942,-0.613389 0.1311139,-2.509042 0.4540881,-1.931774 0.3781002,0.675805 -0.7841831,2.487814 -0.027547,2.322982 0.7726482,-0.168329 3.3640383,-3.704928 5.0141043,-2.912905 2.1822706,1.047475 0.6346265,6.681501 3.0987446,3.476917 1.497308,-1.947248 3.510232,-5.391868 4.793669,-7.438436 0.308307,-0.491627 0.84024,-2.060848 0.909136,-1.484659 0.241919,2.023284 0.32631,4.063696 0.39735,6.100142 0.01312,0.375934 -0.0049,4.762822 0,4.76005 6.482699,-3.700914 8.256491,-8.3557 8.4296,-15.020302 0.02288,-0.881287 0,-1.763176 0,-2.644759 0,-4.369158 0.406011,1.837998 -0.40587,2.31891 -0.248117,0.146977 -3.3316,-4.775201 -3.109531,-4.769819 1.12855,0.02734 3.49034,3.157146 3.470801,3.10796 -1.000805,-2.518868 -4.768172,-6.301285 -4.768172,-8.884222 0,-1.029114 0.506401,1.995661 0.803405,2.980989 0.402492,1.335302 0.730147,2.789968 1.400267,3.96388 2.344419,4.106937 2.477039,8.757116 2.734228,13.36457 0.06297,1.128128 -0.352985,2.346103 0.08264,3.388627 0.569272,1.362353 1.937492,-3.416088 2.026745,-3.379241 1.718958,0.709487 1.256657,6.280849 0.985129,5.534161 -0.692883,-1.905412 0.09039,-4.055849 0.02825,-6.082382 -0.03236,-1.055601 -1.317882,-3.748113 0.03815,-3.516871 3.153361,0.537717 4.349378,6.556843 3.542625,9.178806 -0.657871,2.138107 -2.954586,-2.998088 -3.36369,-2.941351 -0.898608,0.124639 -6.085326,3.825725 -3.881421,3.079362 1.686875,-0.571256 1.880491,-1.502925 -0.779017,-1.100724 -2.016649,0.304993 -3.484428,1.805251 -5.16952,2.690046 -0.272578,0.143115 0.165567,-0.769857 -0.104491,-0.917675 -0.797121,-0.436314 -1.736539,-0.691136 -2.644767,-0.66119 -3.362192,0.110866 -6.150003,1.141137 -9.2774969,2.090507 -0.3709832,0.112615 -1.3428448,0.576083 -1.1363614,0.24794 3.3030203,-5.249078 10.4661223,-8.431458 10.0923013,-15.285074 -0.13103,-2.402258 -0.774761,-4.771473 -0.909152,-7.190496 -0.03276,-0.589666 0.06073,-2.312582 -0.159341,-1.764543 -1.028008,2.560045 -1.135491,9.329998 -1.1549,9.531552 -0.268899,2.792386 -0.402209,3.540384 -0.335868,3.492191 1.394239,-1.012942 3.412608,-3.184856 4.185299,-3.864015 7.183334,-6.313854 5.797454,-6.32237 5.305328,3.521984 -0.0094,0.187867 -0.382154,1.115444 -0.24794,1.484659 0.963384,2.650198 1.872165,-10.730172 2.672713,-8.026324 0.671228,2.267086 0.17422,5.916366 0.37152,5.92884 0.521353,0.03298 -0.02046,-2.343437 0.719538,-2.169391 0.854602,0.201019 1.412725,2.402047 1.98239,1.734043 1.597674,-1.873469 -1.702195,-7.161458 -2.307197,-9.568916 -0.413483,-1.645361 -0.691634,-3.468247 -1.215098,-5.160731 -0.06074,-0.196402 -0.206777,-0.767659 -0.24552,-0.56576 -0.357892,1.865057 0.1121,3.796515 0.164688,5.694863 0.0099,0.358013 0.205383,1.367839 0,1.07444 -2.549547,-3.64216 -3.853395,-9.553068 -7.884261,-11.96562 -0.663406,-0.397067 0.09594,3.028073 -0.193966,2.311331 -0.134535,-0.332626 -0.791044,-3.101987 -1.22409,-3.174065 -0.08119,-0.01348 0.210206,4.942593 -0.323199,5.690304 -0.435353,0.610264 -3.013565,-3.11509 -3.461884,-1.129657 -0.06842,0.303005 0.440361,4.222582 -0.159644,4.528742 -1.228889,0.627038 -2.442745,-1.190849 -3.5143899,-1.573981 -0.657898,-0.235209 0.7823389,1.600992 0.2721167,2.078301 -0.8547781,0.799641 0.3865188,5.233842 0.3865188,7.449408 0,0.46214 0.5166864,-1.542696 0.08264,-1.383991 -1.1183524,0.408929 -2.0364585,3.208541 -2.1019553,3.353434 -0.6870238,1.519766 -0.7566152,3.414999 -1.9009301,4.628367 -0.6424968,0.681262 0.4515963,-7.933198 -0.5468697,-1.554358 -0.181133,1.157195 -1.3315507,6.809993 -1.6901722,6.95567 -0.445631,0.181023 0.1273193,-2.949743 -0.057942,-2.97233 -0.8002848,-0.09755 -1.9297844,4.068074 -1.9804621,4.276826 -0.040565,0.167125 -0.1409742,0.671044 -0.082659,0.509262 0.2603325,-0.722219 0.2189769,-1.658294 0.8004493,-2.159556 0.7248084,-0.624821 1.6013382,0.645696 2.4499284,0.38035 0.9192321,-0.287444 1.1819684,-1.298617 2.3141673,-1.157089 2.7473482,0.343417 0.9246812,3.051987 4.9589658,1.405049 6.545963,-2.672306 16.342524,-13.805233 12.177374,-0.846964 -0.4069,1.26591 -0.963347,2.644635 -1.404817,3.930197"
       id="path1727" />
  </g>
</svg>
