<?xml version="1.0" encoding="UTF-8" standalone="no"?>
<!-- Created with Inkscape (http://www.inkscape.org/) -->

<svg
   width="149.19099"
   height="200"
   viewBox="0 0 39.47345 52.916668"
   version="1.1"
   id="svg5"
   inkscape:version="1.1.1 (c3084ef, 2021-09-22)"
   sodipodi:docname="2.svg"
   inkscape:export-filename="/home/irina/Documents/Kvissentali tänavaraamatukogu/Logo/2.png"
   inkscape:export-xdpi="300"
   inkscape:export-ydpi="300"
   xmlns:inkscape="http://www.inkscape.org/namespaces/inkscape"
   xmlns:sodipodi="http://sodipodi.sourceforge.net/DTD/sodipodi-0.dtd"
   xmlns="http://www.w3.org/2000/svg"
   xmlns:svg="http://www.w3.org/2000/svg">
  <sodipodi:namedview
     id="namedview7"
     pagecolor="#ffffff"
     bordercolor="#666666"
     borderopacity="1.0"
     inkscape:pageshadow="2"
     inkscape:pageopacity="0.0"
     inkscape:pagecheckerboard="true"
     inkscape:document-units="mm"
     showgrid="false"
     inkscape:zoom="0.672594"
     inkscape:cx="144.21776"
     inkscape:cy="430.42311"
     inkscape:window-width="1312"
     inkscape:window-height="783"
     inkscape:window-x="0"
     inkscape:window-y="25"
     inkscape:window-maximized="0"
     inkscape:current-layer="layer1"
     inkscape:showpageshadow="false"
     units="px"
     width="149.191px" />
  <defs
     id="defs2">
    <inkscape:path-effect
       effect="powerstroke"
       id="path-effect405"
       is_visible="true"
       lpeversion="1"
       offset_points="0,4.99214"
       not_jump="false"
       sort_points="true"
       interpolator_type="CubicBezierJohan"
       interpolator_beta="0.2"
       start_linecap_type="zerowidth"
       linejoin_type="extrp_arc"
       miter_limit="4"
       scale_width="1"
       end_linecap_type="zerowidth" />
    <inkscape:path-effect
       effect="skeletal"
       id="path-effect401"
       is_visible="true"
       lpeversion="1"
       pattern="m 58.231126,93.290476 c 5.441159,18.594674 14.157593,29.487064 26.482008,45.353524 1.72052,2.215 4.209585,3.71769 6.146186,5.74647 8.196022,8.58616 0.990844,2.41329 8.296728,9.33465 0.926332,0.87758 1.132362,0.4913 1.796942,1.15588"
       copytype="single_stretched"
       prop_scale="1"
       scale_y_rel="false"
       spacing="0"
       normal_offset="0"
       tang_offset="0"
       prop_units="false"
       vertical_pattern="false"
       hide_knot="false"
       fuse_tolerance="0" />
    <inkscape:path-effect
       effect="skeletal"
       id="path-effect305"
       is_visible="true"
       lpeversion="1"
       pattern="M 0,4.9921382 C 0,2.2364779 2.2364779,0 4.9921382,0 c 2.7556604,0 4.9921383,2.2364779 4.9921383,4.9921382 0,2.7556604 -2.2364779,4.9921383 -4.9921383,4.9921383 C 2.2364779,9.9842765 0,7.7477986 0,4.9921382 Z"
       copytype="single_stretched"
       prop_scale="1"
       scale_y_rel="false"
       spacing="0"
       normal_offset="0"
       tang_offset="0"
       prop_units="false"
       vertical_pattern="false"
       hide_knot="false"
       fuse_tolerance="0" />
    <inkscape:path-effect
       effect="skeletal"
       id="path-effect301"
       is_visible="true"
       lpeversion="1"
       pattern="M 0,4.9921382 C 0,2.2364779 2.2364779,0 4.9921382,0 c 2.7556604,0 4.9921383,2.2364779 4.9921383,4.9921382 0,2.7556604 -2.2364779,4.9921383 -4.9921383,4.9921383 C 2.2364779,9.9842765 0,7.7477986 0,4.9921382 Z"
       copytype="single_stretched"
       prop_scale="1"
       scale_y_rel="false"
       spacing="0"
       normal_offset="0"
       tang_offset="0"
       prop_units="false"
       vertical_pattern="false"
       hide_knot="false"
       fuse_tolerance="0" />
    <inkscape:path-effect
       effect="skeletal"
       id="path-effect297"
       is_visible="true"
       lpeversion="1"
       pattern="M 0,4.9921382 C 0,2.2364779 2.2364779,0 4.9921382,0 c 2.7556604,0 4.9921383,2.2364779 4.9921383,4.9921382 0,2.7556604 -2.2364779,4.9921383 -4.9921383,4.9921383 C 2.2364779,9.9842765 0,7.7477986 0,4.9921382 Z"
       copytype="single_stretched"
       prop_scale="1"
       scale_y_rel="false"
       spacing="0"
       normal_offset="0"
       tang_offset="0"
       prop_units="false"
       vertical_pattern="false"
       hide_knot="false"
       fuse_tolerance="0" />
  </defs>
  <g
     inkscape:label="Layer 1"
     inkscape:groupmode="layer"
     id="layer1"
     style="display:inline">
    <path
       style="fill:none;stroke:#000000;stroke-width:0.236391px;stroke-linecap:butt;stroke-linejoin:miter;stroke-opacity:1"
       d="m 22.435352,52.900334 c -1.625415,-11.649946 -0.207217,-23.490401 -1.041493,-35.17026 -0.175518,-2.457216 -0.925765,-4.839794 -0.925765,-7.29038 0,-2.5834704 -0.11571,-5.1588452 -0.11571,-7.7350242 0,-0.8249122 0.230509,-3.14300064 -0.236979,-2.46335421 -0.714866,1.03931311 -0.974985,1.99586611 -1.340226,3.18102581 -0.425487,1.3806284 -1.068422,1.0274303 -0.66352,0.7670704 0.597565,-0.3842544 1.706907,0.1473118 2.175494,-0.2040458 0.724212,-0.5430471 1.732057,-3.26752954 0.617069,-1.9925872 -1.741599,1.9914436 -0.888838,4.4402971 -3.928958,4.4402971 -0.283572,0 -1.078866,0.3049073 -1.159822,-0.1025589 -0.460492,-2.3176149 8.788971,-0.8220979 7.380923,-3.0408259 -0.625647,-0.985876 -3.03325,2.8315087 -3.194731,3.3159545 -0.632321,1.8969971 -1.714296,2.9632571 -3.754844,2.9993256 -0.782295,0.013848 2.719453,-3.7967197 5.235404,-3.7967197 2.155168,0 4.715131,5.6918315 5.829682,7.7476665 0.210103,0.387551 -1.854237,-3.20255 -3.962106,-4.3129454 C 22.8506,8.9800128 8.5705466,19.088098 11.335065,12.886546 c 1.394352,-3.1279106 9.905031,-1.958958 12.600441,-1.958958 2.370596,0 4.259401,0.580894 4.239512,0.561792 -0.489341,-0.47008 -2.056066,-0.341057 -2.628892,-0.367101 -5.637938,-0.256294 -5.307755,3.281289 -8.675315,6.129487 -1.60341,1.35613 -6.240248,1.26775 -6.570252,-1.381673 -0.7446632,-5.9785124 17.502124,0.969713 16.553638,-1.58731 -0.447483,-1.206388 -1.937202,-1.026135 -3.001004,-1.144338 -7.986404,-0.887374 -4.880205,4.616119 -9.475569,7.384514 -0.5504,0.331586 -4.6139031,0.889518 -4.3796587,-0.237041 0.1957457,-0.941418 3.4901057,-1.66437 3.8193057,-1.743091 2.999343,-0.717234 7.248692,-1.239437 10.457272,-0.694317 1.568414,0.266462 6.569332,6.157175 4.459006,-1.615266 C 26.410984,7.6790706 16.844981,19.458746 14.826091,21.20165 14.406688,21.56372 8.7614677,24.36092 9.4242819,22.418893 10.841015,18.267912 29.617286,25.57853 29.079823,21.014267 28.905234,19.531588 28.078017,18.52368 26.536827,18.13838 c -7.055252,-1.763802 -7.079089,5.389238 -11.449429,8.318919 -1.359561,0.911398 -2.553414,0.926596 -4.150972,1.011295 -1.5359009,0.08148 -7.580591,-1.825405 -6.7856004,-4.475294 2.3477777,-7.82569 18.5871464,4.04382 23.4687444,4.04382 0.978273,0 6.26774,-0.921547 4.699826,-3.081799 -1.599568,-2.20387 -8.559605,3.902888 -9.795146,4.568194 -1.954383,1.052385 -22.70100397,5.582366 -21.2216138,0.766016 1.4408022,-4.69073 18.4791998,-0.231573 21.3898768,0.694326 0.156202,0.04968 14.746255,3.232158 11.0736,0.871381 -0.556681,-0.357835 -2.523635,0.09985 -3.183072,0 -3.972925,-0.601568 -9.035875,-0.630739 -12.975555,0.689974 -3.071203,1.029566 -5.571243,3.283442 -8.9050842,3.283442 -0.9774776,0 -6.3293247,0.06603 -5.3588249,-2.09612 2.0486332,-4.564093 22.5117631,2.663514 27.3947991,2.663514 0.479014,0 7.532631,-0.3396 6.606205,-1.83761 -1.903698,-3.078234 -14.673153,-1.319802 -17.475419,0.0813 -4.521002,2.260533 -7.034863,5.925691 -12.1636435,5.925691 -1.3042117,0 -8.43087678,-0.341663 -7.50526392,-3.118395 C 2.3204887,30.086618 37.600286,41.177309 39.279299,36.221707 40.169746,33.593547 33.027115,34.32043 32.202122,34.504364 28.843702,35.25311 5.1651669,46.679157 3.8299078,42.07258 c -0.8719613,-3.008232 5.138206,-4.665901 6.9432132,-5.1816 10.563137,-3.017936 13.511956,1.745522 21.67252,4.944604 0.729831,0.286109 5.48984,0.439336 4.573993,-1.317658 -0.774076,-1.485001 -2.783004,-1.672947 -4.212343,-1.672947 -7.536115,0 -9.990526,3.670153 -16.036993,7.039742 -3.026629,1.686688 -13.2744507,1.104097 -15.6531149,-2.19683 -2.7930368,-3.875968 5.3684116,-6.36659 7.875304,-6.523257 3.7177029,-0.232332 7.4227269,1.080493 10.8777109,2.31439 4.793156,1.711812 10.249796,7.163046 15.237866,2.727484 0.582779,-0.518236 1.938471,-1.522016 2.137514,-2.309993 0.50009,-1.979749 -6.087084,-1.385668 -6.995936,-1.044844 -8.624791,3.234401 -5.257544,8.590232 -17.537362,9.474175 -0.936227,0.06737 -3.0383417,0.543047 -3.8459304,-0.09677 -0.3342302,-0.2648 3.1466374,-0.818005 7.2011074,-0.818005 1.790847,0 13.004906,1.382888 13.196997,0.829933 0.357862,-1.030084 0.195219,-3.533393 -0.344165,-4.334245 -2.949266,-4.378899 -6.594268,2.966616 -10.062332,3.6872 -1.198776,0.249085 -12.1548522,-0.146686 -7.770592,-3.109085 5.360478,-3.622014 21.276704,1.080635 19.887364,-6.560683 -1.887035,-10.378613 -14.459297,5.193287 -18.580668,6.01987 -0.607635,0.121866 -6.1086434,0.917357 -6.3644199,-0.17517 -1.8071609,-7.718941 15.2908479,-6.045279 19.5335229,-6.433733 0.994453,-0.09105 6.244858,-2.046873 4.55666,-4.193553 -2.743191,-3.488167 -13.289898,3.717023 -16.805297,3.717023 -4.8026085,0 -9.174119,-1.556638 -8.5180507,-2.022473 3.5795129,-2.54162 8.9840737,-2.813961 13.2944637,-2.641526 2.303918,0.09217 15.106708,3.322522 13.763327,-3.326729 -1.30875,-6.477825 -26.4275877,10.912806 -26.4275877,0.453398 0,-5.835694 10.8138747,-6.760744 14.8122007,-5.670299 4.585063,1.250462 7.469186,5.595536 7.842049,4.6302 3.087384,-7.993141 -6.007844,-7.677914 -10.940172,-6.18606 -1.40753,0.425728 -2.313407,1.765821 -3.666928,2.182293 -0.796706,0.245144 -5.5348076,-0.302817 -5.180448,-1.925882 0.5523032,-2.529747 3.361056,-2.886742 5.551301,-3.111382 6.091515,-0.624771 9.830652,2.422256 12.678975,2.422256 0.245198,0 2.204353,-0.153673 2.281332,0.07165 0.468006,1.370131 -0.658552,2.489845 0.821187,3.453403 1.258646,0.819578 3.318929,-1.207943 3.814114,-2.141212 3.548457,-6.687839 -16.652159,1.309787 -20.014618,-2.332902 -4.6404386,-5.027177 8.46121,-5.177196 11.434482,-4.281648 0.353171,0.106374 5.496541,0.300887 5.402273,0.04789 C 29.241492,13.739092 11.916941,19.436525 10.452159,13.838864 8.9886453,8.2460442 25.29387,13.345484 26.264843,11.642007 26.495925,11.236596 26.205429,10.306829 26.026489,9.9132467 24.438795,6.4202639 8.2408909,11.948237 13.291208,5.0039869 c 1.785745,-2.4554026 13.963764,2.349502 11.751388,1.2263655 -2.499414,-1.268849 -5.349872,0.9465017 -7.959127,0.3402253 -4.072464,-0.9462694 2.276284,-12.6127904 5.595616,0.5570563 0.02814,0.1117705 2.101347,7.520739 0.932305,9.112516 -1.797432,2.447424 -6.570708,-1.077034 -8.014887,-2.34071 -0.224247,-0.19622 -1.055717,-0.129139 -0.832257,-0.326252 0.926873,-0.817595 -2.769539,-3.324505 -1.534641,-3.375324 0.930464,-0.03833 6.328494,3.178095 6.317165,4.256211 -0.0071,0.727383 -3.708545,0.09118 -4.513087,0.676305 -1.89613,1.379011 0.18951,5.114547 -0.925764,5.993262 -0.265042,0.208826 -2.661941,-1.9321 -2.674673,-1.918734 -0.270536,0.284108 4.273383,4.819986 3.74045,4.287053 -0.762684,-0.762675 -4.287473,-4.315813 -2.270155,-2.154418 1.002146,1.07372 2.086238,2.08623 3.124462,3.124444 0.267838,0.26782 1.133161,0.989995 0.803496,0.803487 -2.101463,-1.188912 -4.436858,-2.984851 -4.449473,-2.8938 -0.237336,1.713188 3.584927,5.32491 3.418353,5.357985 -1.954437,0.388097 -6.7001331,-5.500803 -6.9778084,-4.871743 -0.7026616,1.591822 4.7968554,6.621527 5.9935934,7.818266 0.870184,0.870192 3.903004,2.994268 2.881158,2.308492 -0.254124,-0.17055 -4.634024,-3.334279 -5.04685,-2.936033 -0.824904,0.795777 3.476668,3.936088 2.98838,3.661112 -1.307392,-0.736238 -2.866782,-1.040707 -4.142966,-1.751749 -0.325108,-0.181147 -1.374044,-0.474261 -1.09234,-0.231064 1.119402,0.966381 2.708544,1.426534 4.085563,1.94292 0.295293,0.110734 1.222103,0.312698 0.917375,0.231439 C 12.537897,33.136311 9.7357739,32.132887 6.8616384,31.388993 5.51673,31.040905 1.7728583,29.909576 2.7197442,30.926115 c 2.2270817,2.390887 6.3774461,2.897508 9.2589518,4.338256 0.125512,0.06272 -2.9248558,-1.063936 -3.6892819,-0.551749 -0.4280245,0.286779 6.3034239,2.710938 6.0459319,2.710938 -7.3186675,0 0.156023,1.764999 0.731136,3.946273 0.09027,0.342397 -2.212224,2.010591 -2.010554,2.091314 2.872911,1.149967 10.274642,-1.39177 10.31197,-1.366119 0.334936,0.23017 -0.09117,0.880672 0.09143,1.148323 0.93679,1.373204 2.834841,-2.491873 3.619048,-1.895568 0.60608,0.460859 0.231376,3.033848 0.231376,2.272451 0,-2.131411 1.927267,-5.636339 3.914628,-6.436592 1.063507,-0.42823 -2.849485,7.820223 -2.867131,7.184096 -0.03949,-1.425042 1.677799,-3.323156 2.477578,-4.522807 0.770886,-1.156328 1.539001,-2.402278 2.430136,-3.47162 0.8059,-0.967051 0.881593,-2.22341 -1.094287,-1.526046 -0.328834,0.116068 -4.371761,3.407631 -4.474346,3.346689 -1.119045,-0.664806 2.156365,-7.309527 1.72784,-7.165691 -2.38063,0.799118 -3.98387,3.935347 -5.983015,5.490233 -0.304085,0.236514 -1.027591,1.064491 -0.924693,0.693254 0.637976,-2.301595 5.774824,-8.794207 4.559707,-11.780094 -0.986135,-2.423185 -3.091118,4.225226 -4.755086,6.244018 -0.106329,0.129014 -2.362386,2.517604 -3.355883,3.240154 -0.289066,0.210237 -1.026313,0.913614 -0.903133,0.578079 1.347061,-3.669483 4.051798,-6.686445 6.015232,-10.066477 0.762076,-1.311905 3.087956,-5.037193 1.851512,-4.157959 -2.681945,1.907147 -4.702042,6.626995 -7.165432,9.364111 -0.581161,0.64574 -2.254555,2.462327 -2.041566,1.620082 0.422324,-1.670017 9.313962,-14.119671 7.381727,-15.188226 -0.652539,-0.360864 -4.182841,0.6714 -4.182609,0.62645 0.02466,-4.814 2.545704,-9.1855643 -3.025485,-12.0077544 -0.138056,-0.069957 4.266807,5.0911754 4.215336,5.1279314 -1.436148,1.025831 -6.17785,-1.3461948 -7.107564,-0.234914 -1.276103,1.525322 0.682792,4.491438 1.152996,6.113378 0.24032,0.828959 -2.475049,-0.223854 -2.160815,2.500119 0.111172,0.963728 1.765991,3.318975 1.386865,4.219285 -0.49858,1.18398 -3.016801,-1.212615 -2.907997,1.002905 0.04601,0.937094 2.548223,5.985124 1.847089,6.662965 -0.01537,0.01483 -4.3646843,-1.748291 -3.144439,-0.301869 1.953642,2.315774 4.158772,3.813998 6.225765,5.878615 1.458126,1.456447 -2.92751,-2.901778 -4.371877,-4.371876 C 10.598184,30.822537 9.2021884,29.336697 7.757285,27.8914 7.1856029,27.319566 10.044443,30.178316 9.4725549,29.606697 8.6423352,28.776862 7.5024823,27.634221 6.3730113,27.07729 c -2.3198575,-1.143883 2.1607342,2.850334 3.5427121,3.932827 1.9971796,1.564384 3.7486426,4.034439 4.9968616,6.278425 1.945887,3.498218 -3.025494,-0.312225 -3.513594,0.631302 -1.199482,2.318633 0.919564,5.788315 -0.11571,7.631079 -0.207272,0.368923 -2.9562527,-1.911614 -3.9882753,-2.634021 -0.857273,-0.600084 -3.6257489,-1.694684 -2.5831389,-1.783958 1.4992426,-0.12837 3.4962345,3.021197 4.1879693,1.684893 0.8494288,-1.640926 -3.6644173,-1.461611 0.8661721,-1.82478 1.3545128,-0.108572 2.6921308,-0.416847 4.0502088,-0.462878 1.277444,-0.04333 3.312085,1.520605 3.818787,0.34715 0.52877,-1.224561 -3.431727,-2.340845 -2.408005,-3.195902 1.297448,-1.083673 6.38915,2.146368 4.877149,1.39034 -1.423291,-0.711667 -2.605529,-1.976818 -4.160514,-2.429126 -0.457026,-0.132945 6.511204,7.283966 6.35209,7.831498 -0.105409,0.362713 -3.162549,-2.435488 -3.117466,-2.468411 1.537062,-1.122601 6.259251,0.490253 7.003718,-0.531656 0.607983,-0.834561 0.248244,-2.063321 -0.628506,-1.906602 -2.137058,0.382003 2.216503,3.73349 3.317268,5.604658 2.152121,3.65836 -1.861554,-0.346238 -0.346551,-1.945011 1.41919,-1.49767 2.87099,0.798922 3.731176,0.258769 0.237729,-0.149286 -0.815611,-0.638976 -0.535131,-0.65027 1.547256,-0.06227 2.674628,2.138032 1.922925,3.167866 -1.499752,2.054655 -4.953423,-3.147129 -5.097366,-3.176273 -1.73061,-0.350303 -3.469592,-0.658891 -5.198228,-1.018773 -0.448073,-0.09329 -1.811083,-0.231421 -1.353405,-0.231421 2.695026,0 3.839158,1.463853 2.99543,-2.670402 -0.584048,-2.861868 -3.212029,-5.105764 -2.082969,-5.67029 3.037136,-1.518568 8.033132,2.197169 8.087677,1.620064 0.414524,-4.386244 -7.294482,-9.595148 -7.410898,-11.848649 -0.06674,-1.291587 5.570554,2.564216 5.98876,2.651953 0.07675,0.01608 -1.246048,-3.377889 -1.437836,-3.509396 -0.82217,-0.563748 0.873123,1.863475 0.873123,2.86035 0,2.371722 0.462886,4.579657 0.462886,6.914194 0,1.328084 -3.475765,-6.485187 -2.995519,-7.094448 2.462345,-3.123836 -4.548869,-5.891177 -4.458711,-5.895001 2.3512,-0.09964 5.154663,3.120477 5.328957,2.758764 0.126209,-0.261932 -5.410046,-5.897208 -6.082054,-6.632204 -0.516645,-0.565088 -2.230727,-1.977943 -1.504353,-1.735819 2.968626,0.989522 5.451654,3.078378 8.100408,4.744526 1.946146,1.224185 -7.398041,0.412023 -8.974522,2.198706 -1.173911,1.330425 0.09865,3.476962 -0.909611,4.478143 -0.564562,0.560595 -3.87772,-1.07254 -3.282817,0.87541 0.762442,2.496546 2.361331,4.504965 3.818761,6.596064 0.416159,0.597092 1.671839,2.366165 1.157212,1.851529 -2.335269,-2.33526 -7.710399,-6.935797 -0.412326,-4.372475 2.214234,0.777711 4.380918,1.75577 6.365152,3.008965 0.230617,0.145659 0.653548,0.840888 0.578615,0.578616 -1.591196,-5.569107 -9.165989,-9.775723 -9.550949,-9.354131 -1.258842,1.378636 1.259066,5.045456 1.179192,5.004268 -2.072337,-1.0686 -3.874003,-3.300104 -5.533369,-4.959471 -1.149985,-1.149984 5.022959,3.466295 3.397034,3.502069 -1.586836,0.03493 -4.297729,-4.380695 -3.79579,-2.874939 0.431599,1.294786 11.091371,10.207008 5.786019,7.058941 C 15.453953,30.340486 11.256111,27.329671 8.5580741,25.528595 8.226149,25.30702 7.4194988,24.638461 7.4674502,25.034652 c 0.4692661,3.877469 0.6778863,3.947908 2.8930228,7.810198 0.814075,1.419395 4.29664,4.187245 2.661566,4.12465 -1.972851,-0.07558 -4.2635554,-1.931761 -5.8805904,-2.890002 -0.2665783,-0.15798 -1.077928,-0.61187 -0.8070433,-0.461386 1.7214345,0.956356 3.5093597,1.811494 5.1576837,2.870248"
       id="path1333" />
  </g>
</svg>
