<?xml version="1.0" standalone="no"?>
<!DOCTYPE svg PUBLIC "-//W3C//DTD SVG 20010904//EN"
 "http://www.w3.org/TR/2001/REC-SVG-20010904/DTD/svg10.dtd">
<svg version="1.0" xmlns="http://www.w3.org/2000/svg"
 width="1000.000000pt" height="1000.000000pt" viewBox="0 0 1000.000000 1000.000000"
 preserveAspectRatio="xMidYMid meet">
<metadata>
Created by potrace 1.14, written by Peter Selinger 2001-2017
</metadata>
<g transform="translate(0.000000,1000.000000) scale(0.100000,-0.100000)"
fill="#000000" stroke="none">
<path d="M4825 9490 c-99 -15 -126 -20 -192 -39 -185 -51 -335 -140 -478 -285
-116 -117 -204 -253 -266 -411 -41 -106 -67 -291 -63 -452 7 -239 27 -298 239
-688 36 -66 130 -244 183 -345 35 -68 57 -109 161 -305 35 -66 84 -158 109
-205 24 -47 79 -150 122 -230 182 -340 266 -499 317 -597 21 -40 40 -69 44
-65 3 4 32 57 64 117 76 144 133 252 215 405 37 69 89 166 115 215 26 50 83
155 125 235 43 80 117 219 165 310 48 91 104 197 125 235 20 39 61 115 90 170
29 55 64 119 77 143 91 160 163 327 190 441 32 135 21 359 -25 526 -98 359
-398 668 -757 779 -116 36 -203 49 -355 51 -85 1 -177 -1 -205 -5z"/>
<path d="M1865 7810 c-258 -53 -479 -178 -673 -380 -156 -162 -260 -390 -287
-628 -6 -53 -6 -239 0 -292 34 -280 194 -566 436 -775 119 -104 307 -186 480
-211 16 -2 44 -6 62 -9 17 -2 57 -7 87 -10 30 -4 71 -9 90 -12 19 -4 516 -8
1104 -10 l1069 -4 -19 31 c-11 17 -118 184 -239 370 -121 187 -289 447 -373
577 -83 131 -179 278 -211 328 -32 49 -93 144 -136 210 -285 442 -347 534
-402 594 -65 72 -75 77 -253 142 -142 51 -195 68 -240 75 -19 3 -55 10 -80 14
-76 15 -327 8 -415 -10z"/>
<path d="M7675 7810 c-189 -36 -380 -103 -471 -165 -55 -38 -97 -93 -261 -340
-92 -138 -133 -201 -284 -435 -29 -46 -90 -139 -134 -207 -44 -67 -214 -331
-378 -585 -164 -255 -319 -494 -343 -531 l-44 -68 1057 4 c582 2 1081 6 1108
10 28 3 75 8 105 12 201 22 361 65 468 126 289 164 538 519 588 839 3 19 7 46
10 60 5 30 6 237 0 265 -2 11 -7 43 -10 70 -9 65 -51 203 -83 274 -147 324
-517 606 -883 675 -103 19 -332 17 -445 -4z"/>
<path d="M1997 4594 c-1 -1 -37 -4 -79 -7 -315 -25 -621 -212 -820 -503 -105
-154 -156 -293 -192 -524 -7 -42 -7 -261 -1 -310 19 -140 50 -243 110 -365
103 -209 275 -384 495 -503 73 -40 240 -107 240 -96 0 2 8 1 18 -5 9 -5 37
-12 62 -15 25 -4 61 -10 80 -14 43 -10 286 -8 355 2 112 17 280 71 360 116 92
51 221 167 300 270 23 30 115 165 203 300 89 135 166 252 172 260 74 107 930
1389 930 1393 0 2 -2230 3 -2233 1z"/>
<path d="M5770 4587 c0 -7 367 -559 393 -592 4 -5 83 -122 175 -260 419 -625
688 -1024 722 -1070 52 -70 163 -181 238 -237 96 -72 259 -144 372 -165 14 -2
41 -8 60 -12 60 -13 318 -5 415 13 263 49 476 163 655 347 100 104 186 243
237 384 21 58 50 190 58 260 7 60 7 247 1 295 -2 14 -7 45 -10 70 -31 223
-139 441 -303 614 -128 133 -242 214 -414 290 -41 18 -179 52 -254 62 -70 10
-2345 11 -2345 1z"/>
<path d="M4952 4057 c-23 -45 -71 -138 -108 -207 -36 -69 -96 -183 -133 -255
-124 -235 -162 -309 -229 -435 -35 -69 -80 -154 -100 -190 -19 -36 -63 -119
-97 -185 -126 -241 -173 -331 -203 -387 -201 -371 -262 -547 -256 -746 6 -239
50 -403 155 -588 29 -49 54 -91 58 -94 3 -3 18 -21 33 -42 46 -61 169 -176
246 -229 204 -141 424 -201 717 -194 330 7 572 104 786 315 167 164 295 376
336 555 37 164 38 381 3 517 -25 97 -91 244 -190 423 -15 27 -49 91 -75 140
-56 105 -106 200 -163 306 -23 41 -60 111 -82 155 -23 43 -52 97 -64 119 -12
22 -53 99 -90 170 -38 72 -81 153 -96 180 -15 28 -51 95 -80 150 -29 55 -67
127 -85 160 -31 58 -59 110 -175 330 -29 55 -56 103 -59 107 -4 4 -25 -30 -49
-75z"/>
</g>
</svg>
